<mxfile host="65bd71144e">
    <diagram id="Q0Bqb7_0KAcd7Om0uFCT" name="Page-1">
        <mxGraphModel dx="2014" dy="836" grid="1" gridSize="10" guides="1" tooltips="1" connect="1" arrows="1" fold="1" page="1" pageScale="1" pageWidth="827" pageHeight="1169" math="0" shadow="0">
            <root>
                <mxCell id="0"/>
                <mxCell id="1" parent="0"/>
                <mxCell id="170" value="" style="edgeStyle=none;html=1;" parent="1" source="160" edge="1">
                    <mxGeometry relative="1" as="geometry">
                        <mxPoint x="349.2977272727271" y="55" as="targetPoint"/>
                    </mxGeometry>
                </mxCell>
                <mxCell id="160" value="ElsterGPT" style="text;strokeColor=none;fillColor=none;html=1;fontSize=24;fontStyle=1;verticalAlign=middle;align=center;" parent="1" vertex="1">
                    <mxGeometry x="327" y="10" width="100" height="40" as="geometry"/>
                </mxCell>
                <mxCell id="162" value="" style="sketch=0;outlineConnect=0;fontColor=#232F3E;gradientColor=none;fillColor=#BF0816;strokeColor=none;dashed=0;verticalLabelPosition=bottom;verticalAlign=top;align=center;html=1;fontSize=12;fontStyle=0;aspect=fixed;pointerEvents=1;shape=mxgraph.aws4.waf_bot;" parent="1" vertex="1">
                    <mxGeometry x="660" y="123" width="34" height="34" as="geometry"/>
                </mxCell>
                <mxCell id="165" value="" style="html=1;verticalLabelPosition=bottom;align=center;labelBackgroundColor=#ffffff;verticalAlign=top;strokeWidth=2;strokeColor=#0080F0;shadow=0;dashed=0;shape=mxgraph.ios7.icons.user;" parent="1" vertex="1">
                    <mxGeometry x="397" y="287" width="30" height="30" as="geometry"/>
                </mxCell>
                <mxCell id="166" value="" style="html=1;verticalLabelPosition=bottom;align=center;labelBackgroundColor=#ffffff;verticalAlign=top;strokeWidth=2;strokeColor=#0080F0;shadow=0;dashed=0;shape=mxgraph.ios7.icons.message;" parent="1" vertex="1">
                    <mxGeometry x="440" y="60" width="200" height="190" as="geometry"/>
                </mxCell>
                <mxCell id="167" value="" style="shape=callout;whiteSpace=wrap;html=1;perimeter=calloutPerimeter;" parent="1" vertex="1">
                    <mxGeometry x="440" y="260" width="200" height="120" as="geometry"/>
                </mxCell>
                <mxCell id="168" value="&lt;div style=&quot;text-align: justify;&quot;&gt;Now I am going to guide you through the tax deduction part. Please raise any question if you feel unclear about this topic. Let's start:&amp;nbsp;&lt;br&gt;1. did you have any&amp;nbsp;unreimbursed medical and dental expense that&amp;nbsp;that exceed 7.5% of your adjusted gross income?&lt;/div&gt;" style="text;html=1;strokeColor=none;fillColor=none;align=center;verticalAlign=middle;whiteSpace=wrap;rounded=0;" parent="1" vertex="1">
                    <mxGeometry x="450" y="125" width="180" height="26" as="geometry"/>
                </mxCell>
                <mxCell id="169" value="&lt;div style=&quot;text-align: start;&quot;&gt;&lt;font color=&quot;#111111&quot;&gt;&lt;span style=&quot;background-color: rgb(255, 255, 255);&quot;&gt;yes, I have an self-paid emergency ambulance bill of 1000 euros, could you help me check if it is feasible to deduct this expense?&lt;/span&gt;&lt;/font&gt;&lt;/div&gt;" style="text;html=1;strokeColor=none;fillColor=none;align=center;verticalAlign=middle;whiteSpace=wrap;rounded=0;" parent="1" vertex="1">
                    <mxGeometry x="449" y="290" width="170" height="30" as="geometry"/>
                </mxCell>
                <mxCell id="174" value="" style="shape=image;verticalLabelPosition=bottom;labelBackgroundColor=default;verticalAlign=top;aspect=fixed;imageAspect=0;image=data:image/png,iVBORw0KGgoAAAANSUhEUgAABF8AAANyCAYAAAC0T2QCAAAAAXNSR0IArs4c6QAAAARnQU1BAACxjwv8YQUAAAAJcEhZcwAAFiUAABYlAUlSJPAAAP+lSURBVHhe7P0PlB1nfef5s0NYCAwDG4aNBxZmSCY5TPKbLE5PyDQbcfqgM9pjJtpsUPP7rTrx4o43Q68Zi5Hjth16hJFWE9E2okcOnY4tWo5oa+JGsdKSI1prWzbCLVtuWRYtkN0ycgsLX2xZbQuuke0rt/j+nqduVd2n6j71796q7tvq9+uc77F1/9T/qlvPp6ueepMAAAAAAACgMIQvAAAAAAAABSJ8AQAAAAAAKBDhCwAAAAAAQIEIXwAAAAAAAApE+AIAAAAAAFAgwhcAAAAAAIACEb4AAAAAAAAUiPAFAAAAAACgQIQvAAAAAAAABSJ8AQAAAAAAKBDhCwAAAAAAQIEIXwAAAAAAAApE+AIAAAAAAFAgwhcAAAAAAIACEb4AAAAAAAAUiPAFAAAAAACgQIQvAAAAAAAABSJ8AQAAAAAAKBDhCwAAAAAAQIEIXwAAAAAAAApE+AIAAAAAAFAgwhcAAAAAAIACEb6gUOXXT8ljp2+Wncc+JsOTvyxDj7xNvnbwH/k1ePAXZOtjvyQ7nvgNGZ/+tEy/eJe89sZL7rcBAAAAAFj8CF9y8OLPnpCvP/beQKiQZ931xIflZ5WSO7Z6+j39Gdt3vdLTp6dzPvxcLsr0i9+Qbxz5l2rcb66blqTSgcz2xz8kj/zwRjlf+bE71KD7n/4/rd+dj4paH4thO4iuN8sdh97tBGTfnPpdtXw/I6deulcuzL3iDn1+Hdt+nVx3Xb/cf8Z94VJ05n7pv07N5/Zj7guu8nPy5ImX5A33n4vRG2d/IE+eLrv/AgAAAED4kgPCl5pzrz2tGu8fVePMHrrYSgcx/+3obzlhjg51PIQv9ZoLX+z1V4/89/K3R//nuuWfm2N3ynXXXSf9973gvlC1YOHLG2X5wYG75LYv3yw3XK+nQdcN0rd+s9x53zF5Kc9ExBq+vCGH7qiO967vuy+1hBfk/i97yyOq7pTqnJySPev1vzfL/WedFwAAAIAlj/AlB4QvVT/6yX658/D/ZB1/s7XzWLu8cfG8OybCF5siwheztj/+K3Lq5X9wx5aTFgpf3njuIRla5wYJN/RJ/1/eKXftuEvuumOz3Pzn3uubZc/Mq+43mhRx5cupsZud8TzUUlf9eOHLRrlNLxNrTchzzmfLcuivb5Drbh6VJ193XkBO3nhsq1z35fvV2gAAAMBiQ/iSA8IXkR+XJ2Tb5D+zjrvZGnzkLXK09FV3TFWEL/WKDl906T57Dp7qze8qmFYJX87cL5udK136ZOi+H0i5bvbekJcev0s26s9cv1nuf959uRlRtx21JC988a5uwUJw9gvCFwAAgEWJ8CUHSz180f2C3PO9j1vHm0d948ivOh33mghf6s1H+KJL34o0eXq9O9YmtUT48qp/q8/m0HSEvaqmt08HJnk0gAlfkMXrx+Suvpy2PQAAAMw7wpccLPXw5fsv3CFDj/6idbx51EMne9wx1RC+1Juv8EXX7Yfe5XTI27TE8EVfcXKP3LbxBudzum64ebOMPm7pkNYZ1s2y54fq/994SY7c3e/327L5wZgnaP3kIdmsh71xj3vbTJxX5dBf6WH2yegJ9yXNGXf1tTfOHpF7/nJjrc+YP79ZNt99SJ4L360UEb5Ygyf3s7c9XBYp/0Ae2r5Z+m5wh69vkbpjjzwZNYsvPSl77uivff7PN8ptf3ckY/81WcKXiM82soyUN35ySg7du1U231zbBvx5CF+h1MA4qss7uu40Z+L1F+TYfbpPoD65wfuMWv6btz8kpyLW79bH1IJ+9VRgnd2wbrPcefA5dxvW2/iobF7nzt/1N8jNA6Ny5GxtBT03XtuWgzW/t+YBAACgcYQvOVjK4Yu+/STtVS96Gu478Ufy2Okv+fXwzH+SXd/rcJdffSe9Wx97j5R+esAdWw3hS735DF906fVm9sPTkNjwZaPcqRqsujHaf4fXr8hW6Xf7X6m7SsUd1p1PqMb/ZvUZ3SjW37vzNtnzlPsZi/LDtznfu3kseHVVFO/zG8eN8bvjHtq1x7l96YZbtvp9oWz9stuo3ny/vGCGBQ2ELzfv2CN3rlPDX3+b3OkO/84tN1eHv+5OORYOAJ53b6e6/ma57U738395czU4uPmu+s9Hyit8ybiMlCfv7nO2gY1/eafcc98hOXTfPbXP33FIArPQwDjKPzwiR54I14TctVHPw0bZYyRy5QNqe9QdMA+o4d77kBw5oNaHt/w37pFTlvW7cdf9cpdeZ/60GNvwA6fU+lbzd4Nl/Vx/m0z8pDqo6jTeI7fp19ffKQ/50/mkvEC/OgAAAIsC4UsO0jS69WOXdYe0+rNZ6+VXn4rtY2Mhw5eXX31Sth1+v3WctXqzjE9/OvGxxfrWosdO3+wsK/2UI/3d3cdXWOf9hy/vDYQ4caWDGt1XSf101WrnsY9Zv2ur7z0/ZA0d9PJt9e1Ah1knZ/8uMFzdX8+R577srKO/efyfq8+le1KVvvpFr4emxIYvqvrulCPhJxa/ekTu1LdfXK8a9+bicIfVt041Zjd/S55LeWWH08Gt+t6daXePH+6Rm/W0maGJO2591cWdj9dNsBy5U02THoeZRjQQvuhh9O/1rpioeWG8v/qeuRwv/kBGdQfClmX46hPV26f6vvkD95Uk+YUvmZaR9mpZynXrsiwPDehhhZ6o1Og4QryArd8M2LTX1bRYwg4nIFKfDzyhylhndUGhvw2rsoRm1vWpluadenjcdgQAALAoEb7kQDdgkxrdSVctNGMhw5enz/6t/PWj77CO0yv96Omk4CXs3Ksn5MGTf+oEBc1KM406oGnWpbId6CuNdjzxG9bvh+uRH97kfqtBCeFL+HXPkzv0+6GAwmt4X79VDqW+oqM2rqQGuc9rVJuNYG/cUQ3j799VPz+NhC/hwMlz9v7qrVPGsN54fKszzs0HwiGE5j4OOmp4dbxAJbpq85YQvmRZRjFeuK8aUATWWx7jUMvauVrIchVOJNt27K2zvlF50jIcb7uzrh/rtkH4AgAAsJgRvuRgKYcv+ooJ2/jMmjy9wf30wiB8qVXa7UBfhTRy5NetwzBr9/H/1f1Gg2yNVqXaMA31q2KoNrwjwpdQmJEkz/Al8koS9zvWxnmW8OUvJ8QWpahvVRvmxrCqAdVG+VbEk5ms44nkBSrRj5r+1ve9KYsPXzItoxhx4UvD47iopl3fspb1iVa27dhbZ3ccqu+fSKkuf7ePojr169N/jfAFAABgUSJ8yQHhi32cunToocOPhUT4Uqss28HjP/oL9Z34W5BGp36nuX5fbI1WJSkYiAtf0jbePXnedhQ5bluj32ucZwlfQp+tCTfW3/Cf4BRf3njsV7bUpjciULGKD18yLSPN6eT2Htk6cLPcbHa665YtfMk8DtcL9+k+XXRfLBHff6Mspx7dI3f+Zb/cvN7odNetwHAT1ln8Nk74AgAAcKkhfMkB4Yt9nNV6s9OIX0iEL7XKsh3o/lx0vy624XjV9Py0QPjyxmPV23Py6HA3U6M/onGeT/hSlom/rA7nroNe56y28jpsLcuTexu4msUqv/Dl1adGZaPfYfCeWkezJ56TH4xtdIaXW/jidU4cdXXR8xMypPvQuU53AH2P3P+oOy3fPyUvPVrdhtKsXw/hCwAAwNJC+JKDpRy+TP34Nhl85C3WcXqln4aUtc+XPBG+1CrLdjAv89MC4Utjj5oO3S7ScuFL8m1H2SxE+PIDGXU6pd0qhyxpSNxtR5nWg3bxBfmWnubI/oK8MGuj3DNjuYnINt6EdUb4AgAAsLQQvuRgKYcvaa6O0Fe/3P/0Z2Kf1FMkwpdaZdkO0qzbvz36P8trb7zkfqMBEY3leQ1f5A05MqzHd53cdiB+Xl5V49BPCbpu4KHg1RGNNPojGud5hS/eFT3Zl4fNAoQv3jzfeaT675DqcsonfDnlXEXTJ3c+EdVTs7t8/+Jb1uDDC4ICw01YZ4QvAAAASwvhSw6WcviSZtzVerPcc2yZlF9/1v3m/CF8qVWW7eDRZ/vUd+L7fCm2w935Cl+Un0zIbfqWE9UAHzrwnLxhyQnLP9hTvS3F1hlrC4Yv/qOm1fTumbGFCm9I+SdpHwu1AOHL64dkq56njXvkVGh9+CGYqqbDlxOj1cduq2UXvTS8p0NZrozxblcKDzdhnWUPX2KmAQAA4BJ2/sKcfPXRH0jHnQfk7RvH5E033+PUL6r/16999ZEfOJ9pdYQvOVjK4Yv20Mke6zhtNfTI2+T+p6+U85Ufu98uHuFLrdJuB+medvRmJ6BpSkRjed7DF83v00PVn98sm+9w+z658zbpX+d29HpDRJDRSKM/onGeW/ii6WDgBj286+SGW7b6fbnoDmP79OuRwwtbgPBF3pAnd/RVp/3LW+We+w7JofvuUdN+s9xwXZ9sHa72vdNU+OIFVNdtlLsedvtwCdWTz1dvM3rhgWpnvNfdfJvcee9DcuTAHrnrjn654frrZPPwVqcT5jTr15M9fBF57t5qPzfX/cWQ7DlwRB669y6ZOO2+CQAAUIDnx++SN127Rx5x/+376dPytVvvkA9dOyRv+vwd8omdM+4b+dp65JT80/57/cAlqt6jPqM/28oIX3KQptHdaKVprC90+DJ7XjUUDv9P1vFG1e2PvlMePPmn8xLCtFL40mjN53bwQvmQ3P3dy63fN2vrY++R0k8PuN9qUCuFL9obZfnBgbvkti+rBr57NYPuYLXvy7fJXfcdk5dszwzWWjV80crPyaG/MwIkXU64tEcOPdfCV75oF1+SI2raN/65O93X3yA3D9wpD+kA7Oz9Tl89TYUv3nKNqdqwXpVTB+6Uzf5yrG4X9zyhb1V7Uu5S20tgvAnrrJHwRS6W5cm/21wNzvT7f75R9hRzngMAABazqT3ypmuHZOOU+2+LR7YN1YUq5x7eKZddu02+9oz7gmIPX87Kjo3q+zfvkb2nzsrMU0fkkVPOUxxy1Xvf9+pClqTS32lVhC85WOrhizZ5er381SP/vXXccTX06NtF9wdTZAhD+FIr23Yw9/OKE6DpzpP1rWFp12MeywwAAABAzhoMX157fI986PPbZYfxFApr+HLqIflEwvCbteHbTwVClV9Yv0tW/92kfO2xZ+QfTjwvd02dls/tPSr/+L/sDnxOl/5uKyJ8yQHhizid6eoQJamPkKjSV8I8PLNWXntj1h1ifghf8q/tj/+KnHv1hDtmAAAAAC2jwfDFxhq+OMO/S3ZEXGzcrO/88GxdoPLgzIvuu0E/eOkVedcmNT2hz+thtBrClxwQvlTpx0mPfX+5Gl9jAYyuv3n8n8upl//BHWI+CF/yLR2UTb94lztWAAAAAC1lkYcv/37Hwbow5Y/umZQzP3tdvvjgk877V+46LK+9Ue1k9z/u/W7d5/VnWg3hSw4IX2r0LSy6L5dGbkHySn9XD0MPKw+EL/nV1x/7p/KD2Z3uGAEAAAC0nEbDF0uoEghfXp+RHUN3S/t1+rtGbTNu87n4sjwyulM+eX31vcuu3yZX7/iePH/BfT/BMy//rC5I0fWW9X8v7wjdYnT8xZ8639n8yNOB171qNYQvOSB8qaevXtG3ptimJV292bmKJo/bkAhf8indCa/ujBcAAABACysqfLn4upz7aVnOHdylXtsuX39a/b/+96vuY54vviA7vqyGe91d8pUHvydPPDUj+x/cK5+6bkgu+/LDMnOx+rE42574oTVICZd5ZcvvW66U0dVqCF9yQPhip69cOfTsF5taNn///U84tzM1g/Cludo2+T45/KP/ktuVSAAAAAAK5IYvyZUxfPFYPqedO3C3XKZfDz9L5fg+uVyNr28y+YlIN96f/ISj/zQ+JRd//nPn8zfd/33rZ3S1GsKXHKRpdH/jyL+UH/1kv/PZLPXyq085ndnGadXwxaPDk0PP/ucGg4k3yyM/vNEdUmNaKXxZ6O0ge71Z9v/gT9wx5OuZZ56hKCqHAgAACHDDl6t3fk/2P26vr23OO3wpy94BNcyBx+Sc+0rNU7JRTc9l33ja/Xe0/7DnCWuQ4pV5xctn743/bKshfMmBbhwnNbrTXLnQqFYPXzyNXgmjr7yYPd/4c8xaKXxZ6O2gkdId7P7g7DfdseTH1oikKCp7AQAABLjhS+63HXms4cuMfOUG74qaiDL7homQdOXLfzt22vnclx8+YX3frFZD+JIDwpds9JUwj/zwJqdRb5vW+nqzPPpsn/vt7AhfarX1sffIydm/c6bVq+MvbJXbD73L+nmvdjzxm7lPt60RSVFU9gIAAAhYyPDl9iPVfmBs5fUNE+POo/F9vvz/dj4mX3roSVm27YD1fbNaDeFLDhZDo7uVwhfPudeeltHv/hvr9IZrdOp35I2L591vZkP4Uquo7UDfWhT/iPD8bz+yNSIpispeAAAAAQsSvri3HW18WJ53X2nEzDn70468+h++vEc67vyO/ML6Xdb3zWo1hC85IHxpnL4KRneqa5tms7Ydfr+8/OqT7reyIXypVdR2UH79lIwc+XXrd7zK+/YjWyOSoqjsBQAAELAg4YvX4e42Nd7G/mjuiXp6ka7HS9UeZb722DPW973Sw2g1hC85IHxpzrlXTyQ+lvqOQ/+DPPeTh9xvZEP4Uqu47eD7L9whQ4/+ovV7Xu144jecoCYPtkYkRVHZCwAAIGCBwhf9qOl7btXDHZJPbXtY9rqd++4df0D+7NY75Csx02N6+NlZa6Dy36mqzFUfQjIR8Rmv9DBaDeFLDghfmvetp/7QOt1e6fBEhyiNIHypVdx2oJ+mtOf4Fdbv1erNall9JvHJS2nYGpEURWUvAACAgIUKX7SLZXnywT1ydd8dcpmaBj0dH7ppm1y97WF5ov4xSJE2HnjKGqp88q6DsuPYafnI0APW93Xp77YiwpccEL40T4cftun2ivAlWR7bwQuvPOY8Xcr2Xa/07UfTL97lfqNxtkYkRVHZCwAA4FKU9OQjW+nvtCrClxws1fDltTdekiPP9Uv59WfdVxq3+/j/ap1ur/RTenQw0AjCl1ql2Q4OPbtOBh95i/X7XuVx+5GtEUlRVPYCAAC4VG174ofyP97yD9agxSz9Gf3ZVkb4koOlGr544/2rR/57uefYMjn18j80dDtK6affkeHJX7ZOt1fbH/+Q/OS1k+43siF8qVWa7UB3gvzNqY9av1+r5m8/sjUiKYrKXgAAAJey19+4KFsOnZRP/M135B//l91+4PJO9f/L1Wv6Pf2ZVkf4koM0je5vHPmX8qOf7Hc+m7VefvWp2EZumka3vnLk5OzfWYeftsLTYRvvHYfeLXuf+gP54ct7Ze7nFfeT0V4oH0p8yo6ue7738YYb+q0Uviz0dpA2hDv10r1y+6F3WYfhlV6m0y9+w/1GdrZGJEVR2QsAAACtj/AlB7oxm9TobqaSrpZI0+jOo8LTkTTeoUfeJt848qsyPv1peez0l2Tmpd3OstL/feSHN8k3p37XuWrG9l2z9C0wR0tfdceaXSuFL81UHttB2vBF2/+DP1HfeXPdMMzSwVmjtx/ZGpEURWUvAAAAtD7ClxwQvtg/n1clzX8SwpdaZQlfdKiS5qqk+57+44auSrI1IimKyl4AAABofYQvOSB8sX8+jxp69Bfl+y/c4Y6xMYQvtcoSvmh62et1YBuWV42uI1sjkqKo7AUAAIDWR/iSA8IX++ebrcGDv+Dc+tJoXy8ewpdaZQ1f9LLfc/wK67DM2v74r8i5V0+430rH1oikKCp7AQAAoPURvuSA8MX++WZK9wXz0MmepoMXjfClVlnDF00/4nvb5PuswzNLhzRZ1petEUlRVPYCAABA6yN8ycFSDV9ee+MlGfv+cucKFdvnG607D39Annnp792xNI/wpVaNhC/aoWfXOR0f24bplQ7MvvvjLe43ktkakRRFZS8AAAC0PsKXHCzV8MWjbzfRtwdtm/xn6nPxT8eJrjc7t64cee6WVI+ozoLwpVaNhi8X5l6Rb0591DpMs/QVMvpKmTRsjUiKorIXAAAAWh/hC3KlA4DvPT/kPF56xxO/oRr7/9R55HS4kX77oX/ihDV///1PyJHnviwvv/qUOwQsFbZGJEVR2QsAAACtj/AFwIJ4/fXXKYrKoQAAAND6CF8AAAAAAAAKRPgCAAAAAABQIMIXAAAAAACAAhG+AAAAAAAAFIjwBQAAAAAAoECELwAAAAAAAAUifAEAAAAAACgQ4QsAAAAAAECBCF8AAAAAAAAKRPgCAAAAAABQIMIXAAAAAACAAhG+AAAAAAAAFIjwBQAAAAAAoECELwAAAAAAAAUifAEAAAAAACgQ4QsAAAAAAECBCF8AAAAAAAAKRPgCAAAAAABQIMIXAAAAAACAAhG+AAAAAAAAFIjwBQAAAAAAoECELwAAAAAAAAUifAEAAAAAACgQ4QsAAAAAAECB3vS1g/9IKIqiKIqiKIqiKIqiqGKKK18AAAAAAAAKRPgCAAAAAABQIMIXAAAAAACAAhG+AAAAAAAAFIjwBQAAAAAAoECELwAAAAAAAAUifAEAAAAAACgQ4QsAAAAAAECBCF8AAAAAAAAKRPgCAAAAAABQoAUJX7528B9RFNUiBQAAAAAoFuELRS3xAgAAAAAUi/CFopZ4AQAAAACKRfhCUUu8AAAAAADFInyhqCVeYW+6+R6KonKssD179lDUoikAAJAPwheKWuIVZms8UhTVeIXZGrgU1aoFAADyQfhCUUu8wmyNR4qiGq8wWwOXolq1AABAPghfKGqJV5it8UhRVOMVZmvgUlSrFgAAyAfhC0Ut8QqzNR4pimq8wmwNXIpq1QIAAPkgfKGoJV5htsYjRVGNV5itgUtRrVoAACAfhC8UtcQrzNZ4pCiq8QqzNXApqlULAADkg/CFopZ4hdkajxRFNV5htgYuRbVqAQCAfBC+UNQSrzBb45GiqMYrzNbApahWLQAAkA/CF4pa4hVmazxSFNV4hdkauBTVqgUAAPJB+EJRS7zCbI1HiqIarzBbA5eiWrUAAEA+CF8oaolXmK3xSFFU4xVma+BSVKsWAADIB+ELRS3xCrM1HimKarzCbA1cimrVAgAA+SB8oaglXmG2xiNFUY1XmK2BS1GtWgAAIB+ELxS1xCvM1nikKKrxCrM1cCmqVQsAAOSD8IWilniF2RqPFEU1XmG2Bi5FtWoBAIB8EL5Q1BKvMFvjkaKoxivM1sClqFYtAACQD8IXilriFWZrPFIU1XiF2Rq4FNWqBQAA8kH4QlFLvMJsjUeKohqvMFsDl6JatQAAQD4IX1qkvnr7v5D2tjZpv/bd8lXL+wtae98rf6Cmra3tA/JF2/vUoq4wW+ORKqi2TMrXShfktYvuwq+8JF+zfY5a1BVma+BSS6GelVfU+r9w9rjlvdYtAACQD8KXguuLN+jQIqpqYQbhC7VQFWZrPF6y9UTZnWvDxTl57XxZ9j4yKR+yfSfH+rOZC2qEc/Lkk0/J5x54Ru554in5hOVz1OKuMFsD91Kr42f1tn1Bzn7f/r5TJ14WnTu+fua79vcvuSJ8AQBgKSN8Kbi88OWjy39DVvxhuC5bHGEG4cslXWG2xuMlW2748vyPTsuO71brnpmyPF9xXpZzM8cyBjDfkR0vqS/+tCRd+t9jz8vzMidPPLLP8tmn5BE9nrOnCg95qIWtMFsD95Kro2fkdTWvF196yv6+qqdfdqIXOXPU/v6lV4QvAAAsZYQvBZcXvvzB5rda318URfhySVeYrfF4yZYbvjz5ROj1Lcdk/3n9zs9kxzdC78VWlvDllDypPqoDnvr3qEupwmwN3EuvvitndPryxsvylPX9k/KTn6v3Xz8jR6zvX4pF+AIAwFJG+FJwpQ1fbt38a87n2m54p/H6O+Uz+rX/472y6eG3St+GX5Erll/ufO6jyz8sf7z5HfLVh4PD+drDb5H1t31APvXJj1SHV1fBAOXWHb8sf/zp35KPOu99RJb/0QflcztC02qGLw++XdZ8/sPyex/T/75cfu8zH5Dr/u4Xgp93K9WwG5lHKtcKszUeL9mKCl9UfeL7P6u+93j9e/kU4ctSqTBbA/dSrO866ctFeXna8v4zP3GWxesvHKl/75ItwhcAAJYywpeCK5fwpe1X5dM9OpD4iCzXtysZwcoV/W8zPv8L8sW+33Re/+inPyBrbn+X3LT5A3KFE5S0yac2vFu+uOst/uc3qXE6wcjHfkuu6PmAfKanFqr8wX81ptcPX35N/uAzajo+/pvObVPLP14dbtvHfk3W3OtNQ8ZhZ55HKu8KszUem6n3fWWvfOmhJ5uq399x0DrspismfPnQd8PhSzUseeKRe+TyB5+Xmdect0Veed65yqXaf8sF2b8vOBxd1ffK8nXn39+Rr5z8mZx7w/m2wXtf1z753HfPyfPeOBTdD82Ob+33h+mUM/3qe1uOyo7Sa3LO67j34pycO3NaPne78VlqwSrM1sBdiHr44Yetr+dWT0TfenTyp3pJnJcfP2q+/oAc+9FP5HW9u7guVl6R5753wPiMqtOviPz8J3JyzwF56sx5uaCvoFG8IOeBIyflzCsX5KL7unbxwuvyk+eOy8PmcPYfk+fOve5/X35+US6Un5Nj3zE+o8rpv6ZyVo49Fhruzy/I+bMn5cj+4Oer8/GKXPD2R+XC+bNy8shzEeFLhvlWQ3g25XTnVQAAIB+ELzH1uS//svx/ez4kfzlhfz9N5RO+qPrkB6TvgdrnN93qfv7fvU/We5//9rvlj53P/6pcd1/ts1+97Vern/38u2WL99n7fkk+rcOQcHByrxu0fOyD0vdt9zU/fGmTj/a8R271rkR5+G2yRocx+vW172ps2Fnnkcq9wmyNx2bq39z+oDPcb58621D9uPya/PXhGeuwm67I8GWffO15/c5rsneX91o1fJmZeVHOXZyT58+8KPd897TsfeK483768GWffOKbk9K1qyQz6tVzP3pa/b/+90G53H2/+nn13pnnZcehZ+Rr331ennSCGDX8+4xbmJzpn5PX3lBT+so52ev1W/Psa2rKlZdO04FvC1SYrYE73zU5OelMy9NPP219P5864t969LT5+v5T1VuOzv9YHvFff8DtpFdt5eUz8tzMKTn1ozPyivPSBTl7/IHa950Q4ryc1Z+/+Lq8cvbH8pz67LP6Cpv9J+UnOvS48Iqc+dFzckoNR7/38vkLcv4Fo2Pf/cflrO5z6ecX5JUz7ufOvFINNCpn5bgRqFSn66JcVMO98Io6JqnhPqfqTLk6veFw6fiL7uvnX5YfP6vm41n3s2oAzqQFwpes812djouv/8SZPz0dP37pdWe48rPnjOWZXwEAgHwQvkTUf+z/H52G/++2Xy7/x+f+hXytwQDGC1+sZQQtSeFLXXjjByIflJvqQpJQ3ywjH6gO+8r3yq3ua1/92q84r300MD5db5U1V+ph/Gv502+6r/nDNV7z6pvvkw53nH1uKJNp2Fnnkcq9wmyNx2bKC19s76WpOx4/Jbc/Pl/hiw5GjsuOM9XG0GvPP210hlsNX5ynEz1RfyVO+vDFq4jbjpx+YqqvBzri3fKMPKFbWGag4k6/fu2T5mfVfHylNKfe+Jnck6nPGqqICrM1cOezDh8+LD//uXfZhMiRI8Xd+vNISXeedFFePlF77YGZ6i1H5597pPZZt4NeHUw84L2mywtqzGDBCSGUi6/Is48Zn9X1/bNqLxR55XTo9VB99wVnbMFwQ5Vt2vxwJDxtew7Jj3XKaYZLjz4nTndR538shwKffcDtYLg6HP/1RuZbvRYe9knnsrfwlUT5FAAAyAfhi6WuvaUavPzf/+Uy+dLf/mP52LKPSNe1/7yhAMYLX6xPO9qQPnz5zEhtmE75wcSvyZq97mv+lS//Qm56sPbZLbf/i+o0GFenxIZCbvnjNMZ13XhtuE7546xNR6ZhZ51HKvcKszUem6nFEL7UuTgnMzNPhwINN3yJuJokr/Cla1q35swrbmr19bPqLXM4Xnhk65fGec8+PdT8VpitgTtfpa940cHLU0895UzLiRMn5I033pBDhw5ZP990PfpjJ4y4+LJ3hc0Dcsq95eg5Iyg44oQhr8uZJ2qvefWskzm8Is96r7khRCC88cq48uW544+EwhKv3CtyrJ39VvtlkfKz/mvV8OWCnP1e+LPee8a0VSdWXjkdDHWcOl4NhszwpZH5fuXZ4Odq7yU82rvBAgAA+SB8CdX/vfEyJwj47Pp/5r+2ac8vyv/S8T/LH/2nfx74bJrK57YjS/gQEUys/1JEny8f+3X53K7a57zp6vjMB+VP+t5vrd4x9/P+uGxPO6qfxkzDbmAeqXwrzNZ4bKZ0+HJRNfa8f//Z/3vMentRVOnbjnSZr/3abf9vYBwNlxte1B41/Yz07XpUPrHF8tmoK1Xcyit8+Ypzu1OccPgSEbAQvrRMhdkauPNVzz//vPzgBz+Qe++915mW73znO/L4449LuVy2fr75ekSe090nOX20qH97V3S88mwgGKn2ARMnHEJEBw0PHHvOvW1HeeN1+cnzT8t3A/2huE9aiqOmz/t8XcBiVPi9apgSMW37q1fFmOFLbvNN+AIAQMsjfDHq+sFfckID3c9L+L3/Z+c7pP33PiL/5599oO69uJrv8OVrB98iN33+t6rD0vWx35IV3e+TvtD3/YDkS+8IvG6tuBAk5sqXVMMmfFnwCrM1HpspHb7oOxy8f+srWR4vnbN2rJumtN/+61DHs42Wd+WIpcPd+prP8OVnco/TD4ytvL5hVBG+LIoKszVw56u+9a1vOcGLF74cOFDt1HXv3r11n82rHnnOuRFHfvLMHnnAu3ojdGWI3wHvE0fkiLUOyQHv86mChgfkkeOn5Mw5tz+Un1+Qn8x4V/e44cvPfmwZj1uP1Tq7zS18sTztKLf5JnwBAKDlEb64tebW90rbv2mTKzo/7AQHn9v0y4H3+/7mn8i//djl8n9e39rhi+5v5aNt/1o+8zf2xz97det/dce36pdlk+X9QPnj+tfyp38beu9v6/t8yTRswpcFrzBb47GZCt921MxtRP+dKq3t9sUVvnz9jB5LltuOUoYmhC+LosJsDdz5rnD4Umi5/aDoW4+csOHnP5FToScExYcWocoaNHznKbdzXffqG++2owtn5Xj4s5bKEr74tx3Zbg1y+6Opv+0oh/kmfAEAoOURvqjq+X+qtxr9yRfe7/z7T29+n/Nv/bQj/e+btr5bfud3fluuuiFb8KJrvsOX6vh+Q3rCHeOGy3sikX708631j3L+6r1vrT29yB9Xm3z0M++VTWmfdpRm2IQvC15htsZjMxW+7UgHL+bTizru/E5i/bpxm5F2eQte+eI9mvqJQ8bTiHT9t9My4/zpPV344nW4+9rZU6E+ZyxF+LIoKszWwJ3vmtfwZc8D1f5LLpyX8/oR6z89Vd8Xi9vx7MVXng11JmupBoKGcEhS7XD3orxyOrmvm0zhi9fhrqVT3Opn1ZQb4Utu8034AgBAy1vy4cs1f/HLTnjwf617X+D1tVveI//m37TJ1X3vl4/+7m9L903/U+D9tOWFL9YOd//wMr8PlbzCly073i/LnddD9fHflE+te1ftMdH6syMf8D/b/snadP2eDk6MJyP54/p3H5YrPlkdlv7c8o9Xv1v3SOkswyZ8WfAKszUemynbbUdm+JJG+POteNvRm75x2nl0tLzxmjzy/dPytUPPyI7vvyQz+jHQb+gnD6UMX/Sjpk86D4pWXyzLfjUspz+a778oT5y7IK+dOVX7LOHLoqgwWwN3IWp2dlb2799vfS/v8m430n4yY+mMVocTL+oYQrnwipwtVR+j/FzprPzk/AW5aHSAGxs0fP+MvF45Ly/rx0c/dUSOPFV7hLQehv/kIP2oaX90tcdH//jsT+R8RYcytWFmCl+MkCXwqGl9+1PUo6bzmG/CFwAAWt6SDl+8x0mbneua9Zne6iOaGw1edHnhi71qHdjmEr48/Fbp2/ArcsXHQ2HPJz/ijq9Nlof6Ydky9m7p6flwNRTRn9F9xPzRr0jP1rfVXfniPDr6wbfLms97n/+ILO/+gNzkd54brFTDJnxZ8AqzNR6bqaVy25Guy791Wp48r4MW1xsX5MnvHpXLH9fjSRu+6NonXY88HxzWxTl57XxZ9h86Uvsc4cuiqDBbA/eSL6+jXf/WH1s9IEeeOSOvVJxLxap+flEuVl6RszPfrX0uLmh49Gk588oFuajH5bl4Qc6/dEqOhW512rP/iJzUwYwxOrl40QljTh2tfS5b+KLrgBz7UXC4F86flZNHjov+eDB80ZXDfBO+AADQ8pZs+PL5zdU+XnQAY3v/C9veJb/z0d+Wq/9z9VakxVDVJx1dLp++zXKL0zcvkxU6yPjDX5aN4feoJV1htsZjM9XS4QtFzUOF2Rq4FNWqBQAA8rEkw5f/NPBPnSsxooKXvjvfJR/9t5fLf/iS/YqY1qx3yJ/+O32VSK3j20B5TyX6d++T9eH3qCVdYbbGYzOVdNuR7YlG4fr9HQf9z2u53XZEUfNQYbYGbh6lbyMqsmzjpC79AgAA+Vj04cst42+V//w3/yS2/uLvf9H//HVuXy7X3moPXtaN/BP53fZa8BIe1sCD8U8RWrh6u3zuD91bdEL9r+jadOuvyUfbQh3jUpSqMFvjsZlK6nDXFraEKxy+2DrcfU//vXWvUVQrVJitgZtHaeVyWU6cOJFr6WFqtnFSl34BAIB8LPrwRYcoXn8mUdW15p87n71+8Jfk3/zObzu3HIWHo+vm//ZOJ3gx+4AJD2v93f848J1WKv2IZx2wtH38w/Lp698vf9Kn6wPy6VVuny+f/IB88UH7d6mlW2G2xmMzlRS+ZC3NDF/0rUj6apr9My8GPkdRrVJhtgZuHqXpTl1/9KMfyfj4uPUzWWrfvn3y3HPPydxcte8h22eoS78AAEA+LonwZcX//q+s75l1w1//D87jotf+139qfV+HKv/2f/mI89hp2/u6Wj180XXr8GXy6T/6TWl3wyKnU9w/+hX5k83vDDzpiKK8CrM1HpuposOXrz7yAzl7vhJ4HDVFtVKF2Rq4eZT22GOPydmzZ+WVV16RgwcPWj+XpvRwzp8/Ly+88IIcOnTIGbbtc9SlXwAAIB+LP3y5JTl8+fOvv9t5XPSf/eV7rO9v+OY7nODlc5t+2fq+V4shfKGorBVmazw2U0nhSxrh25T+2Vf2Ole8/NXkMzJ7viL/n8H7/fcpqtUqzNbAzaO0AwcOOP//ve99z7kK5uTJk/IP//APdZ+NKv3ZZ599Vt544w2ZmppyXvvOd77jDDv8WWppFAAAyMeiD1/W3PrexPBFP7VI9/Oir34Jv3fzjnfKv/3YR+Sa/xIfvOhywpfR4KOaKWqxV5it8dhMJYUvHXd+J7FsV7XcduiknHvtgvzWXz1Q9x5FtVKF2Rq4eZTmhS+6HnzwQae/lp/+9Kfy0EMPBT5rK/0Z/fkzZ87Ifffd579O+LK0CwAA5GNJhC86NPm/1r1P2n/vI06Hut7rX7yr2sfLNX+RHLzoInyhLsUKszUem6m8bzvSte7B41J+/Q0eOU0tigqzNXDzKM0MX3TpK1l++MMfOlfBHD9+PPCeWfo9fbXLsWPH6t4jfFnaBQAA8rEk+nzRoYm+tUj396IfIf2F4XfJf/7GP3H+/z9+2f7UI1tx2xF1KVaYrfHYTGUNX/7JX+y2vu7Vf95/XH5WeUP+7daHrO9TVKtVmK2Bm0dp4fDFq1OnTjnv6/5gzKta9P/r17QXX3zReosS4cvSLgAAkI8lc+WLd8XKZzdc5nS8q694+Y/96YMXXa1w5cutm39NTccH5IuW9y6V+uINbdJ25XvlVst7C1WtOE15VZit8dhMZQlffnHjmDz301fl0988ZH3/L74zLa+9MScf33bA+v6C1xNl1bo9ZX9vEdWfzVyQczPHrO/NXx2T/a9dkP37bO8trgqzNXDzKO3b3/523euTk5POlS/T09NO0HLhwgV5/PHH5ciRI87/62BGByz6//XTjcLfzy98OS5n1TjOft/23qVZx89ekAtno684WgwFAADysWSufAmXDm1sn40r/b2FvvIlNnwZ+UBgHts+9luyovsDct0331L/2ch6q6y58tdkzV7be3nVW+W6/6tNPnXbW+VrO94n7R9/X2B+CF/mt8JsjcdmKuuVL5+6+1G5MHdR/v2Og4HXv3LwaXml8ob8L8PfDrzeUhUXvuj3AoxgYd+Lcq6FQhvCl3wrzNbAzaO08JUvhw8fdoIXHbbof997773yxBNPOI+P1q8fPXrU/6wOWfStR08//bT/mve6Zr7WWBUQvpx+xZm2gAtn5bjtswtQhC8AAMCz+MOXFE87yqsWS/jyx7e/Rb5631tl48h7pOc//IZ8tO035TMjv1D/eVs98Evy6baiw5f4InyZ3wqzNR6bKR2+mMO94/FTTgBjfiZcV/39404Ao4MY/VQj/R0dvPzOHQ9aP98yFRW+6HDFDFvC1WJXzBC+5FthtgZuHqWZ4Yu+4uXnP/+5c4WL+TldunNd3SFv+HV95Yx3NYz3WsuHL688a3+vBYrwBQAAeAhfMlTW8KU+KNFXlahG/A3vrP5773vlD3TQ8Te/JH+86iPO8D+6/Nek52+NoOTe2nvtqz4o1/V/MDRMo9zw5TMj5uu/IDd9/nJp+3fvk/UPV1+7dfj98qn/7bfko+qz+uqYKz7/S7JJvzempme5+qx+3SkjhBl7j/zxp6vf+ejyD8sf3/Y2fxxOMHHDu2X9hl+T3/uY/t5HasN0P1Ord8pn1DD+YPNba685010bVzXouEyu84anpvEPNrxDtniff/gt8sUNvyrLP14d1/Luy+SLD7jvucv0ul3vkJ7P6OmtDtdZF1e+V/q+9kG5wvne5fJ7n7lM1j/ofk9X0jya0xSax/rhu++PGevvk78i191rjO+Bd0pP929Ku17WH/9N+dSGd8pXI4dnmd6cKszWeGymvPDl26fOOvXj8mupOtz9D3ueUA1Hkf0zLzqd6/6u28eLfvrRP/4v8f3CpConECnL183XAiHIKXnytRfl6zMXnOmvCn3eGYbngprWmPBFDevPwq+r0kFHgPf9wLBFnnzC+46arnCQYxn+16vdeFSZ76l51MGK974tZKmGLy+q8dTUxl+trMMPzmdoOTrzZHCWgRu+6GXqM+dbv6+Go9eZLxzWBIcbmFdnOk+pYbhvagUFYGG2Bm4epXnhixe86EdOhz+XVDqUqVQqfgDTTPjyrHlhyitn68KXwPvmFSvfP6vWpukVedZ7z6zY8OVZ9S1D4IoY9Z7+t3fljPOeDofUeAJX0+jxBofzyunaOPT0B8OVYMAUDF9C0xOYJ9v0qNcD06IE5mF+CgAA5IPwJUPpBnT+4Yv69yf/haz527fKV/e+Q3r0+zoo0e8//A7500+2yUc//X7pG3uL3LrrPfLH6t/Zwpd/JFu26sDmN+Rzu9zXdr1b1oy8Tb56nxrm8AdkufrOp7/2FjW+X5Cv3q4/++vyuW/qq2feIlt0GPDgu+WPP9Ymy9e+Wzb53/nX/tU0TjDRdrlc0fcu5/1NQx+UDm+YxnRUK2X4oob3B196pxreW2X95n+hxne5/PFwdXwbN31Y2j72a/I5vczue7us+czlTlDhXJXiLNPLpf3jvyW/v+490jeshvFtb12oefjce2X9XjUPf3uZs+w7vuT24dPkPPrDX/se2bhXTfOmX3PDLXc6x9Tw9br7D78kX9Xje/jt8rlVat1+5ped6fnq36npVuP3lkvi9OZYYbbGYzP1zr/YHXhs9L0nnk/9tKPuscflp69fCDzVSLv8r3N4ylGa8EWNy2ywO4FC6P1aKKHDAPN9s+Lec4OJwHuhYQemVb8XH744wzP+rafbnw83rAgEEaGqBiXmsgmOM/PwnddqwwvOb3XZ1E+Pu8wi56t+mdrerw03tNycaTKXY3h95ldhtgZuHqXp8OWxxx6ru6Uoa5kBjB6mZvtcXOngIRAWOEFCMJgw368FGRmukNHDtIYvehje8KqvOUGP/1k3CAmEGdXvmMOrhkPGtDjzUAtNsoUvx+W4MU/J06Nfiwid5rEAAEA+CF8yVFHhy+/fWrvCIvCdb75PNfAvD4Qpt/7X8DCNighfIl93KhSGhIIQXV/92q+o135Fer2rS9z5+GhfdT6qwcQHpM+/0sUSsPiVNnwxh/c2WfN/qNeuf5f6/3fIn/67UAjhfv+6cfX/7jJdsfHttfdVVZfrr8sa/8qT4Lpodh7rhv/wu5z3V2yqTcfGTb8hbR97v7Fu/7X86Tfdz6tyxvGZ9zghUtL05llhtsZjnpX1UdPv3rQn8G9t/sKXUMih3/ca9+b/uxUMFerLed8RHG7d9yzD1gFHNRhICl+qoUMgRDDftww7XLb5qAUs2YcfCGec0vPgLnvbenAqYjz+ZxPetwxXz5c/HammM58KszVw8yjtxIkTTvCi+3qxfSZL6QDm9ddfd56CpNk+E13VIMO8SqQaJnjBhOV9fbWLGz4Eg4mYCl8Zojhhh3PlTDi4MMMMc1q8qp8mJyAKTEcwEMkWvoQqEBxFT0/k9+epAABAPghfMlRR4UsgXDG/YwlCqq9lC1+qV754DflfkI23fUA+9Yfu7S5uxYUv1WmqfdYvdz6c0CDQH0oO4UtgeP9I+tZ6r1W/Xz897vcty1RX0rpodh7rh18/n/XrNjQuXe44kqY3zwqzNR7zLB2+7Jn+ceBqmCylzV/4YnnfbbBbg5bA92PKGXctOAgPy/m3RTUYSApf9Ps27rykmMZASGG8Vv1e1uFXQ5J67jwYy9QcX/V7lvn010nC+3q4Nt60WZbDpRC+aLOzs04Ik0eVSiV3qFmnOypM8F7T79sYgYkfrMRc/RF15Yt+PXAViS5zmoIhSrWCwYmufMOXapgSEAhf7PPpTINWNz/zUwAAIB+ELxlKN46bC1+qV22kDl8sV75Ur9Awh2mULXx5+G3V23I+eZls1P/e8X75qL6dZqt3S1AoJLCEL9VxflBu+nbtNbOaDV+qww+FL2oea1eZvF0+94fqNePKF/OKkkA1GL40O4/1w08IX5x1a9wKFqqk6c2zwmyNxzxLd57bLPM2pIbLEr4EQ5D48MUaGlga9FFlNvTD4Uv8cCzhS2BaLKGEWSmmsW56VAWvfMk2fP3dwBUqZlnWQ7WaDF/0/1tDHbciprM6j8bncqgwWwM3j9KhS5FlG2d0VYOG4JUvZjBRH3RElvUqFreiwpdUV76E36+fpuzhi37fFr5Ul0fgs3VXvkTMo1fWQKn4AgAA+bgkwpfAlQMFV5bwZcvwB52g49O3vkNuve9t8sUvuf2ApA1fvD5fPvM++WKGPl+cpx3tfbt88fb3ymf+SHf2ajzt6G/0Z3T4ovtLeausv/VXnL5L/JBg1y/LirbL5Q9ufbt6/21qutVrXn8obv8jzpOUht8rN41Vx5stfHmb09dJ26oPhPqxCYcvRp8vzjSG+3z5sPzJcLXfmq+OvUOu+9o7q32pNBi+NDuPmcMXr88Xtz8fPR+b/vY90jti9iETM705Vpit8XhpVvUKjloo4F7R4TfIE8KXuu/rMMD8flwFv+uEHYGgIDxss6rjqYUE7niN79cPz6i04Ys5706oUQs6Mg9fv2YNWHSF58d8vYnwJXK4bl2C4UurlRNcmGGBDg9CwUS6MCEmmIgKXyxhR30fK82HL+F5cP4dE77UwqjqvzOFL8ZtWdb3CyoAAJCPRR++tHQ9/Fa56YYP157Ys+5d0rfxN9KHL7r0E3j8px19QG4avkxWBBrlRoVvZfn4b8rv91wmfcZVLPpKmN7Pf9h9ws6H5Y83v0NN4+VGSPAL8sV17vtqmv90h/u98XfJn3pP5mm7XH7vf/tVWdNQ+PKPZMvf/bJ8+pO1Jzit2aHmMRS+fPT6X5IvRj3tSN86tfmDcoX3ZCY9nze9q7nwRVcT85g5fNH14NtljVoX1acn6ach/br8yTDhy7yWEwp4VEP+CdV4Tx2+qHIa+57w940KjKcqGKxUwxZHYPwmI2gIjFcPS302FIZUAxSDN1xL6BAu/V1nmO5XtXAQlHn44WUQmN7QvDrfbzZ88T7jDtPlz4dlOglf8i8n8PC88qz6tyXcMDlhhBtMGIJX0BgVGb7oCg0nEFzkE77UjSM0j7XwRf3bCZ886jOnz8oFf9i26dGvmYLTNl8FAADyQfhCUUu8wmyNR4qiGq8wWwOXolq1AABAPghfKGqJV5it8UhRVOMVZmvgUlSrFgAAyAfhC0Ut8QqzNR4pimq8wmwNXIpq1QIAAPkgfKGoJV5htsYjRVGNV5itgUtRrVoAACAfhC8UtcQrzNZ4pCiq8QqzNXApqlULAADkg/CFopZ4hdkajxRFNV5htgYuRbVqAQCAfBC+UNQSrzBb45GiqMYrzNbApahWLQAAkA/CF4pa4hVmazxSFNV4hdkauBTVqgUAAPJB+EJRS7zCbI1HiqIarzBbA5eiWrUAAEA+CF8oaolXmK3xSFFU4xVma+BSVKsWAADIB+ELRS3xCrM1HimKarzCbA1cimrVAgAA+SB8oaglXmG2xiNFUY1XmK2BS1GtWgAAIB+ELxS1xCvM1nikKKrxCrM1cCmqVQsAAOSD8IWilniF2RqPFEU1XmG2Bi5FtWoBAIB8EL5Q1BKvMFvjkaKoxivM1sClqFYtAACQD8IXilriFWZrPFIU1XiF2Rq4FNWqBQAA8kH4QlFLvMJsjUeKohqvMFsDl6JatQAAQD4IXyhqiVeYrfFIUVTjFWZr4FJUqxYAAMgH4QtFLfEKszUeKYpqvMJsDVyKatUCAAD5IHyhqCVeAAAAAIBiEb5Q1BIvAAAAAECxCF8oaokXAAAAAKBYhC8UtcQLAAAAAFCsN9kaYxRFURRFURRFURRFUVQ+RfhCURRFURRFURRFURRVYBG+UBRFURRFURRFURRFFViELxRFURRFURRFURRFUQUW4QtFURRFURRFURRFUVSBRfhCURRFURRFURRFURRVYBG+UBRFURRFURRFURRFFViELxRFURRFURRFURRFUQUW4QtFURRFURRFURRFUVSBRfhCURRFURRFURRFURRVYBG+UBRFURRFURRFURRFFVjzG75M1NdfNlnW8VAURVEURVEURVEURbVIvalcLstSq2eeeUYAAAAAAADmA+ELAAAAAABAgQhfAAAAAAAACkT4AgAAAAAAUCDCFwAAAAAAgAIRvgAAAAAAABSI8AUAAAAAAKBAhYUvz7wwK8OTT0vP2GFZ9vWH5IObvyVv3zgmb7r5Hqf0/+vX9Hv6M/qz+ju2YeVdhC8AAAAAAGC+5B6+3P7otHxi27f9kCVr6e/qYdiGnVcRvgAAAAAAgPmSW/hy64Hj8sHNe62BSiOlh6WHaRtXs0X4AgAAAAAA5kvT4cve48/Kbw/dbw1Q8ig9bD0O27gbLcIXAAAAAAAwX5oKX754/5Q1MCmi9Lhs09BIEb4AAAAAAID50nD4cuXOR60hSZGlx2mblqxF+AIAAAAAAOZLQ+HLH/63CWs4Mh+lx22bpixF+AIAAAAAAOZL5vBlIa54CVezV8AQvgAAAAAAgPmSKXyZzz5ekqqZPmAIXwAAAAAAwHxJHb7oJw7ZQpCFrEafgkT4AgAAAAAA5kvq8KXIx0k3WnqabNOaVIQvAAAAAABgvqQKX249cNwafrRC6WmzTXNcEb4AAAAAAID5kip8+eDmvdbgoxVKT5ttmuOK8AUAAAAAAMyXxPDl9kenraFHK5WeRtu0RxXhCwAAAAAAmC+J4csntn3bGni0UulptE17VBG+AAAAAACA+RIbvjzzwqw17Iiq92/+lnzpoSebqn+/46B12Emlp9U2D7YifAEAAAAAAPMlNnwZnnzaGnRE1e/c8aA72MYNTj5jHXZS6Wm1zYOtCF8AAAAAAMB8iQ1fesYOW4OOqPrdrQ+5g23cXzUYvuhptc2DrQhfAAAAAADAfIkNX5Z9/SFr0NGKpafVNg+2InwBAAAAAADzJTZ8+eDmb1mDjlYsPa22ebAV4QsAAAAAAJgvseHL2zeOWYOOqPrwX94n3z51tqn6T+NT1mEnlZ5W2zzYivAFAAAAAADMl9jwxRZyxNVHc+hwt9E+X3TZ5sFWhC8AAAAAAGC+5Bq+LOSVL7ps82ArwhcAAAAAADBfcr3taCGL244AAAAAAEArosNdAAAAAACAAsWGL1kfNb2Qtx3xqGkAAAAAANCKYsOXnrHD1qAjqn4nhw53BxvscFdPq20ebEX4AgAAAAAA5kts+DI8+bQ16Iiq92/+lnzpoSebqn+/46B12Emlp9U2D7YifAEAAAAAAPMlNnx55oVZa9DRiqWn1TYPtiJ8AQAAAAAA8yU2fNH1iW3ftoYdrVR6Gm3THlWELwAAAAAAYL4khi+3PzptDTxaqfQ02qY9qghfAAAAAADAfEkMX3R9cPNea+jRCqWnzTbNcUX4AgAAAAAA5kuq8OXWA8etwUcrlJ422zTHFeELAAAAAACYL6nCF12/PXS/NfxYyNLTZJvWpCJ8AQAAAAAA8yV1+LL3+LPWAGQhS0+TbVqTivAFAAAAAADMl9Thi64v3j9lDUEWovS02KYxTRG+AAAAAACA+ZIpfNF15c5HrWHIfJaeBtu0pS3CFyyMp2TjtUOyccr9Z5FeeFg+de1dsuMF998oztEBaWsbkPlYrTZTW9qkbctCjb3VzMrYtW2yZves++/GNb9c85sW5OjMmKxpWyNjZ9x/525KBtraZOCo+888lPZL/1Ud6jjTJu2rBmWq4r4OAAAWlczhi64//G8T1lBkPkqP2zZNWWqxhi/bHn1K/u5oa077I9uG5E3bnnL/FUIQ4Fo64cvs7jVOQ8FeeTV8qo3b9oUOHi6V8OWMauCtG5WZOfffYbGN1lYJGhZ5+FKZlpF1AzJxzv038rcg4cuMjKzqkMFjtf8fdv4/jZKMXqW2o50zUlH7ZqUclbxUZHpHnwwcLLv/LkbdsX3ZCum6fkDGTxQ7XgAALgUNhS+6FuIKmGavePFqMYYvtzxwVN6kGu66/p99j7uvto6WDl9++ph8buPD8rz7z4WzhK58qah97Vx9zR4ckBXL+mUyj7/cnh6V7pUrZWVew2vUpRK+HBuWjuUD0cuykPClLPu/kGdDuMDwpbxf+q4dU2NIq4FpmR2X3uU9Mnba/XeSE8OycqHDx8WmJcKXThk56byRzJ3e8dBmNL1tZWgcszJ+Y4f07Cq5/y6GE758dlSmveP6mRmZGOqW9rZONX9ckgMAQJyGwxdd89kHTDN9vIRrMYUvlbmLctVdD/rBi1dd2x+Q1y5E/Ym6MS+++KL7f9m1cvhy7sG75U2ELw1pZpuoV5GJTe2ycuu0++/m6MZH+5Yxp4Hbf3ABT/qXym1HRYQv58alN9eGcHHhS3lfr7QVHb5kNL115fys+0vJgoQvTXCmN3R8mZuW4ZU539qUkhO+1O0H6ti+Xu0vmybU/wEAgChNhS+69BOHinwMtR52o081iqrFEr68+Mqr0nbL39UFL15d3r9TzpRfdT/dnJdeekn27NkjR482djaXLXx5XWYO7JGr++6Qy9x5ab/1AXnCmBX78M7Kjo1D8qnxs9V/OsPdI4+89D35yq13yIf0sD5/h3Rt+67MXNQfKMv+bdv8cXi18R/2yeXX7pL9rztDqXn9u/Jn194hXznu/vunM7JjaLv8q89Xv/evbt4lO545776pVadHhynnHt8rn7pOf+5u2ftT/d55eXJ8l3zSec377pFg+DK1pxoKvfqs7BisTuflfzuj3gjNp88S3oSm8UM3bZev683bEr7MjN8ll92klpczfcma3Sbq6CtV2rplNO1f9eM4jY+VMqzWldMYuHFcrW2D22CZLE/J6Lpu6XAuke+Q7k1jMmOuwrmSjG/qlhXL9PtGLe+UEe+2gHNTMrKuRzqXV99rv6Jb+u83/rrshi8TJ8ek/+oV0u58X31m90xdQ2T20LD0rqr23dCxqleGDxtNmLTTHFINCSZkZne/dF/RXh32Vf0ydrK+GRQ7/qQQKVP4Uv33wOGyTO3sk2532ZnTVT40IF3h5W4ECWmW1dTcrExu7akuqy/sV9uAOx27pmVqe6+/zuqXR0Vm7h+Q3tXu+lLLufP6EZk2lnMtfCnL5JYu93O1chq+evzb1fy5y11vNz3r1PpyRmUPX5Lny1jGkcMvydg11WHUyv1exHoMNpqT14+nfGzEn95atcuKdfvdYanPnKht+87+Edj2048rKGkdNThcbxkfm5Th6zur286yFbJm66TMhv6eET9fmppGvd8541bL5Go97olg+JJlfajvzB4elh5neDfItmFj3TulpvvomPu+Uc5wLNubOpaMePNoVPsVfbLfX3nTMuYdA9VySDre2MMXkdLO7uDrzr7p7YN63Q3LpPklvVz058/PyNjG6v61ctt0wj5VZa4X6zS7wy6dVutibe1zmddxg8dkAACiNB2+eHXrgePywc17rQFKI6WHpYdpG1eztRjCl8dPvyj/rG+706COq/f952/IkdPhRnpjpqenncb2kSNH5Oc//7n7ajpZr3x58sBDsvfUWXntgvrHuRn5+peH5LLbvyuvVd/OEL4MyYfW7ZQdT52Vc6+el3PPHZG+m9SwhmrDen78ruCVLxeflq/cMCR/9mgwfXnt0V3yphv2yRM6uHn9admohtN++xGZ+el5ee3Vsswc3CXt126Tjd/zvlednqtv3yWfvPUBeeS5spxTn9Vm9qpxfv4u+fpTL6t5fL06XX1qutT0BsKXdbuk79bt0vfgs/L8T9X3nUGnDF+8abztYXniRT1uNY1T35MZPYzQMn9NjatdTc+OH1f/nVYz20SY/it9+y2TocZLYyqH+qV95bBM6xNp5+qJXhk3+8lwTppXyspVa2T0+KyUKxWpnJmW0bXtxjRUVANbfWaTakS6J+SzD/bX38Z0bkrGdk9JSfe1MFeR0oF+6TRDJKdx1S4d1wzK5OnqZ8rqpL9/VZt0363DtKry/X3Svqw6PRX1mdmjw9K9zLhUP9U013NCgmUd0jM0KSW9+VXKtWk8Vf2Mljj+iEaiLxwMBIQbftV/r1zZKWvunpZZtewq52dl+u41ahqM5RsxzHTLqlf6b+mW3u1q3ejbH5xdrzredrU8nPE6y8MyXmXm/lGZOKWHr/5xrn45h698sTU6qw3OEZk+o76l1/uZGZk8MO0GgfWN4XTzVVse8cOvn0ZHhsZ+2vUz4vXnoRrqI+p73TuN8PHEsNrWOqX/QMlZlpWT47JhVbus2ZtxW7CIX0cNDteZJzWc1RtkzFkPapq9/cy8ciNxvtT62aWWqbE+nf1+tRqOaqTrIMWRYX303tIv3TeOyNRptT2fc6fEmd7w921X14S3N/ffO9T2opffXFmmd6hxXjUq/trTIbY6TnXeMlE9dpyfkfH1ndK+dtydrnr28EVf1aj2O39b1LcTquWwdlSmZ9V8qH1walt3sLNgvVyu7Jf+G7tlYN+MzOp9WL2XtM1Xjg3666V8Xq3zcyWZuKVT2sLD1sfSq/tlQi3LijqW+sfkLNuus+yzH5MBAIiSW/ji1e2PTssntn3bGqikKf1dPQzbsPOqVg9fxo6dkrddd4c1bLGV/qz+Th5OnjzpNLYnJyczNbadsMQybbUKhi91Ht8jb/r8XnnC/WeW8OXqB1+u/ttzXF/ZUhtfXfiiPPG3avkOPCa19npZ9g54V56o8/wDd8ub1j0gTzpX0NQ8uXObvOlW73vV6XnTTW5g47n4lGz8fNR0hcIX9e/PHQh9LmX44kyjFxaFmeHLjx+Wruvukq8HrtpJr9FtIqAyKf3LqleqNK8ik7e0V/9K6ijL+I2hk2rnpFk1ZvYFrocROWw2hKZkcFm4AZPmloGSjH1WNWq8E3T3RD88b5WD/aphpsalGz5SvU0gPD3ObSPOFRtKqmmu5zTAvSDKF24MpRh/RCPR50xftvCl7oqkucng8rUOM/2y6vS3AU/K8dro5bxMNeDcf6YJX/Rnom+jCy+TtPNVWx7xw6+fRkeGxn7ScprdWz/PweHoRnb9NDq3aOlt0vlXE+skLLCOGhxu1H52alS6/GWfYr7m1LFCHT/qhnN8WFaa48+yPlaF92PFmd7w91OEL7Pj9ftWaPvSYWDdscMJs9Xx7IT775C6/UAHXrs3BMNe3RdROBB3b5Xqu99dXs5yaa/92xW/zVfXS9eOWqjtmJuRkSuNdRFxTC7t6sm27UZtKwnHZAAAouQevnj1zAuzMjz5tPSMHZZlX39IPrj5W/L2jWN+yKL/X7+m39Of0Z/V37ENK+9q5fDlS986LP/dGjO0SFf6O3l1xOs1th977DG5eNHWsq/nhCW3H3Guvqirpx+qu/KljhNE7JFH3H+mD1+2W67mCIYUtvBFTj0kn/BvEVJ0p7zXbpOvuyeP9vEr3nQ6i6U6PZ/Y9Zzzli901YnPua0pHL5Ybn9KGb5ETqPmTcMz6js3bVPfaSx48TSyTZicv2aaf3Fthu74tK2r7qqOtitHxT8ld06ae2QsPMJAQ8jWgNGvtUu1Y8wooUaOO8xJa6PJbehETI8z3V5jMtU013Ma4Jsn3X/VBBpJacafMJ7A/NQJLRP33/Wdf4aWuW2YqZdVcBuoSjlem9D8h4ONukanUjk2LF36qqMtYzJVCv8dPLRMUs9XbXnED79+Gh0R69HW2E9aTrZ5dl7zr4xwP3/Y+UeN0/j2OoltYp2EBeatweFGrIfg91LMV2hd+SoT0m+OP8P66DKulPM54wl/3zaPtu3Ntm/VOu+1HzuqIYl5hY/JmW417lq1y4q1AzJu3OrlfOazY6HjfTXsaB9y58RZLv0yEdqs47f56HUbmBd3mYePycFlnnYdZz8mAwAQpbDwpZWrFcMX3XnuH9wx7ocpjdant93nDrE5XmP70UcfTdXYThUEeGHERX0LzwPyuY3bpN3tE6VajYQvtlCnGlJc/UD1ihJr+CLPyddvrl2d4lxFcvNDbuP9ZbnnyxHzExhnREjihCrR0xUMX2rzXJMmfImZRs2Zzm3ySTWPetl2jddNTGZZtwmf+xfPur8ehoRP6qMaT85fJo3P1cr4S2dUwyhw0uxeQaNO2J3L8hXdD8nK8F+fz0zJ2JZe6fL7nqhWOHypOxF3psF9pOyxwcB3g+V+N9U017M2wBVneS4frn4vzfiTGhRR0+cINfzq/u0JNZ5sw2xmWaUd75w6Bh0Ykb5ruvx+YQLDV9KELw5n+1jj9JnRcY3ZCA1NS6PzFTn8iHUfsR6D059yOTn9NK2p3WI3V5LRa42rFZyrK8Lz4pU3HynHFZa4jhocbuS2U/1e7z41vDTz5Szn6OH4429qfSjO9Ia/b5vH8DC8R1TXkoPSzjXS7l1lpT4/vtY2f9WyToviTLf/tKNwOFI1NWT2UxMqb3uNO95EbfPuerGt28DyTLPM06zjqG0lbtoBAIhB+NIifnTuZ/LQ0yWn/uzvH3HDiPSlv+N9Pw/6Hul9+/bJP/zDP8jLL4dvi6mXPnx5XZ74xjZ50817ZP9zxtUYqa58eU6+vi4cvtSuVqkJhhz28EVkZmy7ewvRy3LPrUPyybHaFSyR82O58qUuJIkKhS5+T/qM6cocvoSunEle5kPStWtGnlTzf9m12y3LKZus24TH6Z8loW8HR+jx1E4/D3WqDYre3aXAZ8vnZmW/+SSltCfN56dl9PoV7gm3/gtuqFPIM+oEfdlK6ds1LbrrgqpQI8cZZv1fcAPTENngMzR4ou80wC1PGQk0NNKMP6lB4QzDdsWAFm74pWwY26armWWVarwV1TjslLarBqp99HhC8586fPHojkKHup0+Xcad6QpNS1PzpdQNv34aHRHrceburhSN/fpG/exB3X+Q3j9U1XUkbQsBwtKPqybNOmpkuIqzjG1XTZnfSzFfUesqfNtTU+tDccYT/r5t+izDmK32c1I9vtV3FGvdfhIk7gdKms8kHm+0um0+er048xK68iU87OB0NbGO00w7AAAWhC8t6K8njvuhStq6/WAunWk4Lly4IA8++KDTyD5zxtYKqJc+fHna6Q8lHCw4j4MOhy9bv+f+y3XuMblazWswfGmszxeHM7y7Ze+z+paju+Ue4/70qP5UbH2+1IUkbp8vnzsYutXH2udLTPiyN5TehL7vLLM0fb7IebU81XTftFeeqLvFKZ1GtomqaoPA7Hi2Kc5f4vtkv+UimkDIk/Kk2em8UZ2Ml6xBj5p63edF+CTbvZLHb+Q4w7T0+XJggwT7fGmPfyR2gyf6TqPD1ufL+nCfLwnjT2xQuH9Jr7vNQynpae+UkZPuv20NQUeowWOd5yaWVarxVvv6CX+mekVVbf4zhy+Oan9A1fGEp6WZ+fKYw6+fRoe7HoO3XFT7RUpu7IcbpPrqiE4ZOBw1zdVbSeL377TjMqVZR40MV3GWseVKvJMjdX2+xM6X2+fLhgOhZRPR50tj60Nxpje8X9rmsX4Y+vjVuTm6Y1jnlrerRmUm4vhnk2o/0LfuqGPxRNzdronHG4+5zdv7abH3+VI/7OC0p1jHUftj6mkHACCI8KUFLWT4ohvZ3/72t+Xee+/N1MhOH75UO7a97MsPy5OvqjO+18/LzORe55HMlxlBxLmHd8plztOCzsprr78u517UT0TaJpffUB++XKY7kw097ahdTYv3tCMdclymxv/1Z19XM3i++oQlR/WKl09tvMsIVFwXq7clpXnaUV34oszs2i5vuqn6FKbXnOn6nmxUn6172pE1fBF5clSHJbtk73Nq3GoZOfO14Y5geGN72tFTj8kjz6r3AstcefWp6mfN5ZJSo9uEw2mIhDpebELsE5OcUEQ1bg+pd1OeNDsn4+vrrxrxOff/q8bnodpTUcbWd0m72TDUw1zWIR2r3SdrnK/I7PGx6lMzdteCCt3QaV/WLYMH3Cd7qCodH5fRB93PNHiirxvg7cs7pEs/seSc+8QX3QHmMjUsIydJHH+KBkVFfUY/HWTDzkmZOeMO4+iomtc26dwyZSzHlA1jtwG7ZudMdfm6jbWGl1Wq8bp9T6x1rwLQT4c6NCjdy/VTamrzXxdsqHlvV+McPaXmck4tZzW9Uzs2yOghNY3+cAaMx6nXT0vW+Yofvrv9rhyQCb1/6Sex6EZ0eb9sWKa2PedpT+q1cvUJQJ0rVzYQvuh/dxmhmoXaR6rbhPvUKVWzpyZlbO+UWtJa2nGZ0qyjRoarOMtY7a9XuE+wUcuofHpSBq9uD27DifOlr17plrZV7lOTvOFc0+HcXuaPv6n1oTjTG94vq59fuXnCuWVSj9s2DL0N13VOa/KedrR+1H3Ckir9dKHd4zJlCbi1dCGkXn9qXV096DytyhnuuZJM7xuV/YGnxNUfb5K2ed0xcrdaL8lPO6ofdt20J63jBo/JAABEIXxpQTpICYcrv3/7t+Tmbx12Sv9/+P08wpc33nhDDhw44DSyn3++7jqRWOnDF+Wl78lX/uIOJ4h40+fvkE8OPSxP/lhffWIGEeflidG7/T5h9OOkv/49dUK3NRy+qOF+Tw3v1jvkQ+7wunZ8T84FrgbRw7pL/tXnq+9/xVhUzhUu6nufO2A503z1WdkxtL36PfWZf3XzLtnxtPm56PBF92vzxNhOJ1TyvnvPc885n08TvsjFF2SvOe6/2CN79fc3GN/Xfvq0fH2g9rkP3XS37LCFL5p+6pH63J89qs9q02lmm1Bnzk6fKrk9ktMMVyI4T47RTz9Je9JcGpe+FaqRrRpLXrWrRtmAOrGvqsjM7n7V6Ku+17GqV4YPq8bTtpW1Ro4e5qYJmT05Jv1Xu/3C1N2eUTV7eET6vM/o25xW98rAQXc4DZ7o6wZWvxqGM51XVPta6LiqX8aMvkE8seNP2aAonxiXges7pcMZRnWZDOxzH2frS98wrhwfkTXOdKvp2VYbe0PLKu14ZydleK077GUrqrdjlHRHzrX5r7+qpCLT26v9UOjv6L58Zg8OSK/fF5Caxqv7ZPSYd4ywT0uW+YofvjJXkv2buqvrYnmf7HcHo5dp76oO9R39erf0qcal7s8oe/hSlqmh7upw/OqQ7nWjMm0cRvQjeoPbRI8a57S7/affFgIS11GDw9XLWHfOrYfvTbMa/pqtk/4j5z3x86XMqeWzs889Puj10y/jp0vOdIW38cbWh+JsE5b9Ui2L/quqw+z4wn41hPphlI8NSrc77V51XKW2oePGsUE/XnpLb61fneWd0qPXb/3hw5EufFH0LUPb1bJxj0l6GXddPyAT3j4bcbxJ3OaVinmsdbeNafMjUcO2THvsOm7wmAwAQBTClxZku/LFDFeS3m/E3NycPPzwww02sheILWBAbhblNpFB5cSIdK+u/tW6+pfZapUO6D4uak8EAZamWdm/vku6hyb9qwKcOjMto2vba0+tQUuafXCDdF09KJPeFS1OVa+6afcf1w0AAOYT4UsLWojw5dy5c/Ktb31Lfvzjuuc2ty7Cl0Itym0iA+eSfNv9/k6HmStl+IT7b2Apcv7qb+lIWint6pE2/6k5aD3Vq2Cs/QuVxqQnot8sAABQrDfpIGIpVitbiPBF0317LCqEL4VbdNtEBqWd3dJ27YhM1x5jJJXZGRnf3CXt4cdNA0tNZVL6l62U/gdLtSePzVWkdHREepcbj5tGC3Ifo79pv5TM28NOT8nIjR3G46YBAMB84sqXFrRQ4cuiQ/iCZoT7JPDu998+EWiwAEtVuD8Mr9+OsWPck9fywn25eP0L7Z6q69sGAADMD8KXFvTjn56Xh54uBUq/5kl6HwAAAAAAtA7CFwAAAAAAgAIRvgAAAAAAABSI8AUAAAAAAKBAhC8AAAAAAAAFInwBAAAAAAAoEOELAAAAAABAgQhfAAAAAAAACkT4AgAAAAAAUCDCFwAAAAAAgAIRvgAAAAAAABSI8AUAAAAAAKBAhC8AAAAAAAAFInwBAAAAAAAoEOELAAAAAABAgQhfAAAAAAAACkT4AgAAAAAAUCDCFwAAAAAAgAIRvgAAAAAAABSI8AUAAAAAAKBAhC8AAAAAAAAFInwBAAAAAAAoEOELAAAAAABAgQhfAAAAAAAACkT4AgAAAAAAUCDCFwAAAAAAgAIRvgAAAAAAABSI8AUAAAAAAKBAhC8AAAAAAAAFInwBAAAAAAAoEOELAAAAAABAgQhfAAAAAAAACkT4AgAAAAAAUCDCFwAAAAAAgAIRvgAAAAAAABSI8AUAAAAAAKBAhC8AAAAAAAAFInwBAAAAAAAoEOELAAAAAABAgQhfAAAAAAAACkT4AgAAAAAAUCDCFwAAAAAAgAIRvgAAAAAAABSI8AUAAAAAAKBAhC8AAAAAAAAFInwBAAAAAAAoEOELAAAAAABAgQhfAAAAAAAACkT4AgAAAAAAUCDCFwAAAAAAgAIRvgAAAAAAABSI8AUAAAAAAKBAhC8AAAAAAAAFInwBAAAAAAAoEOELAAAAAABAgQhfAAAAAAAACkT4AgAAAAAAUCDCFwAAAAAAgAIRvgAAAAAAABSI8AUAAAAAAKBAhC8AAAAAAAAFInwBAAAAAAAoEOELAAAAAABAgQhfAAAAAAAACkT4AgAAAAAAUCDCFwAAAAAAgAIRvgAAAAAAABSI8AUAAAAAAKBAhC8AAAAAAAAFInwBWt6sjF3bJm1tugZkyn0VIUcH3GXUJmt2z7ovAkWZkgF3e2u7dkztpa2qladzsSxDYGmb3b3G/30dOOq+eIkw523RnjvMlWXmwIj0XdMlK5a5x9RlK6Trmj4Z2DklZfdjABYe4UsrMBqNDdeWRdIkPz0q3e40t98yKRX3ZcQhfEll0YQvZZnc0iNdV/ZI//0l97UGmceOBo8BU1u8bevSO6kuFuFL8xZi2ioys6tP7X9d0rt9mt8gIAXCF8OZcem7ol3alnfL8NHgEWT2wQ3StUyd364ekIlz7otFOz8tw1er6XHnoa5uHG8wfOFYCRSB8KUVLKHwZebuLmO6e2V8vn6cFjXCl1QWS/hyYlhW+vtAn+xv5k9ShC8LiPCleQswbeX90ueNs22lDJ9wXwcQifClxvx88Hd3VsZvdF9X1X9wPuKKikxsMoKX5T0ysHtCJg9NysTuERlY1y0b7m/wJINjJVAIwpdWcHq/DA4NZq8v1IKMldum3YG1sLlpGV7pHcir1buPiyGTEb6ksljCl2OD0u5OJ+HLYkb40rwFmLbZcVnjjZMGBZAK4Ysh1ZUvgzJ13n2xSMbV5G2r1PlhnuPkWAkUgvBl0arI5C1e2t0to6fdl1tY5VC/2+jslu6r3AP6VaPS5I0XSwDhSyqLJXyZK8n4F1aofaFDepq9lPdSCF+OV68Eaul1ZnXphS/TW1eqz62RsTPuC4VbiGVYkamt3dLR1i5dG/dLac59uSDzv0yB/BG+tKbZvRmnPdPv7fweK4GlgvBlsTLT7obv55xPZdn/BXd6rxyVqfv73B+MlTJ83P0IIhC+pLJYwpc8XQLhS7VxSvhSnJTT6V+ZeKmHL/NoQZYpkD/Cl9Y0NeT9EbZdBo+5L8ZYvL+3wKWD8GWR8g6g+oDbf2gRdIN1blx63R835xYp417S9gYbjUsH4UsqhC/ui9ksbPhSuxWR8KUoKafT74uI8CU3C7JMgfwRvrSm2u93mmPMYv69BS4dhC+LkRFkLJbbdko7u90fCO9KF+NKmGX9Mkk36jEIX1IhfHFfzGZBwxf3EujFuc4urfClFugTvuRlYZYpkD/Cl9aUKXxZ1L+3wKWD8GURqgUZi6TDWrOj3ZXD4nUNXOsDJsN8+I3NAZn07j+dK8vMgVHpv75LOpe741HVsapLejeNysSpDMsoYlhJFXkyMleR0vFxGd3cJz1XdkqH8Z3002cPX8qnJmR0U690rerwh9l+RZf0rBuUsaMN/LCWZ2RiZ7/0mtO5bIV0XdMng7unZDbF/b7+Scxnx2qh4NysTO0elL5rumTFMne4be2yYnWP9A2NyVQpp+TNFr5Yx90hnVf2Sv/OCZlpYPeZPTomg+t6pEt3uOeOL9u2lmODc57Cl7zXq952R9bpe8lr47ZXwgllUdusotfzgDoO+POmhrvhQXNt2dejv18a20fb8k7pur5fRg/MSDnLffPnZmRy94hzPAoMz5jH5N0nZntzjncj0ndV7RgSWRHb6qw+vun5Xa37Map9Xu8TPesGZHTflMxEPtWugX3hzJSMDanjqTm+TMs3Q5ittq9JdxsP/B7o5a+PIdvHZOJ4SSrmOJtZpg3tz2mWYe0zA4fdlxTbb0ij26p1WEmVMI95HmuLmu9UKiWZ3jcqA3peAsvH+C1KfPJjbbvt2WUcqWz7Q6bjQzrW8CWH42+A9fzL+E3JGmD6v1HmuZda5qFlU/Zvg48OJRr6I4XtnCTMdk6rVH8je4zl0CFdO9yz5/PV7an/enO+9HJSvxNXmrVB9qvRVofVyO9ttj/8VUqWbTGpko77TR/vgdZD+LLYVCal328MLJIrRoy0vXuncdJgzkvaE2//h6pHxvSgTo/LhtVGoySiOtcndxZWOTkqvRkCF7/UycZw3b22FZnZ2y/dKYcXP32hH8C5kuzf2JX449ZxzYhMp+z5vrSv2kO/bTh+Le+RkWPxJ7y1E7TqiUT52Ij0JC6Ddune1mTHs1roRKdyPMW4l3XJhvvNJneM8pSMXJPUsNAd040nbGsNNDijNNRYC8oUvuSxXs+MGU9QSKro8KWIbdZZgnr/Wt8ZHI5bweUTWo+6I+UU+2XbKnVCnLTJnZuS4bUpT2CXdcvw8bi9J3p7MxtUiRXeVmcnZThxf/CqXdbstc10hn1BNcymtvckNiDaV2+Q8dgO6NM0KNTxe3eK7curKwZlyl0FTS3ThvbnNMuw9hmn4Z7ntnp+RkZvzBC4+KUai9si5rGAY23u851GZUbGN6Vp9OrqTPgtMrbbzZOp94fk40M65natj4Ol+1Mef9OOO9W5nO6kfipVg7t8bFi6k6ZPLxv9+xA6d7ApPnzxfusqMr2t27qNOsPI+vt5vJnf25Thy9ysTGxOsV9ZquML++3HrNyO90DrIXxZZMr7ev2DTiDIaFnmU5nqG1K1y7JTPrHJ+DHr36l+VLwf1+Wd0rtpUAZ3jsvkoXEZHRqo+8tjpzqZjTwNKBnD0j/wW8dl+rTaXs5Va/bUpIyaJ20r9MlZOfgXzxDzCqX2K7qlb/OIjB2YVNOnSv/VItS46r57xv1mmPEDeHW/DKz1lmeHdK8bkJHdE/4wB9Z1G1chqEp89GD4h16dEK/t94c5vjO8HDvViUf0yVTtBE2ddO0akE73e9X5H6wO98CYjAz1yxrzL/m6cba7ye3Z2Db6NpvjXiP9Q6MyrpfRoQkZ294vvYG/PqYYd2m/bFjlfV7Vcj0/7jD1/GxaE1ju7WvHYhoFGRqcSYx5np/wJYf1Olfx96vygX7/sz13T9deN6p+Hytqm9XBUknG/P3L+yu7Oq44V671yXjg+GWsxxuHZdj73rIVdfvlYGj7SNwvzWBa/6X2+n732OZuw0N9wWB3Wb9MRA4vZnur1JbzxC3e8Hpk9ERwHThVNpZhZUoGjf2huo/Vjm8Tu0fUPBtX/yzrk/3Wv+yn3BfqArHqsW90X22fDmx3y9RvTeQundyg0E8QqW1f1XHVlr/7+2L8Nb1T92PmaXSZag3tz2mWofGZW0aNbdzdttzj4/jOQec3JNDgidtWw/vLNcMyfrxUm78zMzK502ykr3AChvBsBxR1rM1zvlMryaj3ZEd9nLq6Twb01VLOdqTHGz5eqvOgU+5X6xjb7WfVvrbF2x/c4br7X3XfCx1vYveHdGrHyW7p31zbPzquMuepepVvd2Ce4o+/WuV4MChxjifeMN3zGnPdxJ7LKRW1H3m/Uf7w/HMAvf+ay11N35YN/mcXLnzRf1CsqPHUjnPVK5nVsUdNb++VXdU/8lVKMuVuP7pGbvSmq0sGnOOhWVNSerWZ39s04UtomldvkNFDMzLrD1NfpTMc+GNN9/YpmY3bt3I93gOth/BlMdG37/gnJb0ynniZagsw+6exPZXJ75CwTVZuNU5go5gnp051SO9O9SMScfI1e7Df+BGOCnjKMu7/gK2UgcPRP+ulnbW//iSGX+f2y+CW+NsvZtWPoTf/0VcymT+A1WpfOyrTUX/QL0/J8NW1H6aVMScqlcMDtfEv75XRk/ZP6un0l2NMQ8/861j1s+qE4EBUk6oiM3cbjZxmr+Sq2zY6pT9y3Gpd7ttgbBv1waBPNzD85d8uXZsn7JdTl6dl1GiIRIdpKRucaZjzPC/hi1t5rdc0J6chxW2zPeok3J3uVRtkTDWW4xnr0a3O9WMx++WkDBiNyqTjx7RqmI3EXVZ9fkZGjONC9PDSbW+17SBmX3CZl+knNoRK0zJ+uLl9obSrtv21rx6QCdsH58oybW53V43KjHXZJTUojNtkk07q9W0SqjEwHfFbnGWZOhran9Msw/pttePGmN+Q2QnpT7Gtmn8MWrl5Mno7OD1a++t7XD91RR5r3cpjvrMoPzgoA3G3/+irBjZ5f4RS2/ctUcvRch6g94Wo7UpfkWQso+jhplP/G7DGCRSt9FULZkC+Uu1nUSM/r46L3v7mnM/N2KfzjLlu2qX/YMQAz6vP+UGO2oaGJqPPD83fCLcWLnxpkw1b3NBoWbcMHoo6GgZlOsZk/r1NEb4YV7br409kEKp///zjavy5Xr7He6D1EL4sImYfKc3+kM4X8+TM/mNp/GVomTq4Jx08zZNTVYG/OFrpVL52YrNmr+Uobjx5KbExXFE/7N5nr1QHe/flxgWDn+ET7ssBoZMudSIzmfQXucAJSEToFAjzOiPGXTO9rfaXiKiT0uAJWrv03Z/UgDXnLd2jEiOFto015n3xEWbuNq5OitindEPT3+++sL8+QDSdU9uSt9wjTzDSNThTMed53sKXHNdr1pPBwrdZVan/4h1q2KU5+TNPVNeON7fuNXN4kdtmuu0ty0l85lAhUoppC+xTUVfQeHRH7l6DM+pJgAkNCvOy/gb3KU/m5dTQ/pxm/Ya21VXDMp2wreqrB+K3VaPT/MT5q8jEJu+zXZFXdxR6rNWVy3wXwPwjldEvXlDoPCBxX1DMbXnZYP22nkHwOBn/R6oqvc6NgCzi+GseoxPP504M18KSiBDPHF7iNqSYDX1dCxm+OJXxKo5Mx5g00xOQcKxUprd559ftictl5u4u97NR7QEl9+M90HoIXxYN8yCY8hadBWcGK9FJd+32nBQHz8APVb9MpDnWHk44oTWuvmkfSjo9Sf4xyqq0q8efPvuPV/Ckqyvyr3xB5g+d7TuZwzzzRC7iBDFwgpYynDLnP90JQYRGtg0zTLN+x7xsPN1+N7WldsJpDynSNYZTMed5vsKXPNdrxpPBwrfZFIFOTbBhF3kyaZqbNL6Tw/HDHF6ahndO4UvthNt7el2jkqfNvH0z1ZUIapvythF7IJVwDDfDeNvVmhm0aviSz7ZqXiGU3LA39zP7cabgY62qBdlHUynJ2GeTxtnIeYA53JTbYIRGfgPk1Kh0xX0ncx+G5jKw/bHK2CbbumTkpPtynMAtntG/Q/MTvqT5w0bQwoYvwQB2PGmQKcaf//EeaD2EL4uF+RfOJk8I540xzbG3FCXdmmQyf6jSHmiT/pJpDHNl4pU0ST9G2SWflCadcEQwQiXbX/CmhmonrqlOSgMnNvYfWnNekpelK/MJQYRGtg31qdrJg+UKjdnx2raT8oRT//XWmw57mJeuMZyKOc/zFL7kul4zrvuit9lsx1azYdcn+1N9Me/jR8aGd07hS+D3SN/6lXiLVpSkaZuV8bXu+zFXTASY4Yk1FEhuUNSuRoy59SWF1gxf8tpWjWFGXq1Rk/g7V/SxdsH20TTSjNP8TPrzgMzbYISGfgOSjr/HBmsN500TyWG6Ugt+1W9G+Erm0pj0eMNLGxAFrsqK/h1K8ztZJ+NvoLMfZTzWZFq/GX9vk7dL8/0U+1fi+Is43gOth/BlUVicl9bV/iqV9NdR82Q34QfEOHgnX6XiSgpfzJO+pEb7nDqZ8/5KkvrHPV7iSWngBy7FXxc8sT9KwWGmOykzv2O/lcScF+stXjaZTwgiNLJtKLEnc8YwUzeGzO9YL1tP01hKqZHpC0lzUlnYek3zGV/x22zgEa6JjPWY+qTPnJ48GnZptqV021u2Rlqwk0W9bFesHZCxo6HHLidKmjbj/dTLy/yO7XiZYh0EOmBXpTt93Z7mccBBmRu+De3PGbeB3LZVs6GU3PCqnQ9ENKoamXfzO0nH2gXbR9NIM07zM+nPAzJvgxEa+g1wzl298dcffwPDTPnbb36n7nfe3B70E6FSMq8SjpqONL+TddL8vjU4zZ5M6zfN9AQkb5e1P4gkB4LmurP/8aSI4z3QeghfFoPTo9LtHVziOqvLyPwxsVcTJx6hSzmzVOylhpl/PJSk8CVwuXN8z/wl9ePh/aUm1SWRSuX0dO3pH1d2OdUZ8Zje5PAlyzqJ+yGbksEG149Xtmk1f1xzPUFJo8HhxJ0A6qeeeO81VEkNypjGcCrmids8hS9FnXgmr7MW2mYdjazHjPtyZVZmjnpP16keO7pWRzyCOk3DO2Y6MzfSdIeHO/uCT1XRtWyFrEnoaLwmYdrMYLyhss1LynVwZkIGQk/M06Wf7hLbEbIh8zJtaH9Os36L2VbNWwRSP00w4hymdY61jf7expirSOm4fkrLoPRf7+7HV9aelhWsqHE2Nl2Zt8EIjR4n435fzCsZG6rQPmJOY/qrc4Lfi/odSvM7WSf338B6mdZv5nElb3OBW4Hjnjx2Xu2LXn9tUbeYFXK8B1oP4UvLC3YY27sv1XWzqZg/JvZq/MTD7Gg3c8VdetnID1Vi+KKW8rFB48koXbJh56TMnHEfu6cfjXtmRia29tROllI8wnlm30DoMZLJZf9Rb/Rk0DjxrPue+V5jZZvWwhrpaTQ4nLgTL/O9hiq3BkEEY56XQvjSMtuso5H1mHJfnp2UkfCjb5MqchrSTWemk3hTpSST20OPvnar46r+hKdGJUybeexuqGzzku14Wj4+LgNrLYGXDpm2TsbekpR5mTa0P6dZvwVtq4FHjrdL18ZRmTw16z9KunJuVmYOmI+Zjf7jRuscaxv9vbU4PyPjW0KPfU6sqHE2Nl0N79chjR4n435fzPcaqpjwJa9zAE/cfETK/TewXqb1m3lcabY5fQVc7TzXf9y8e35cUW2u0tFR2bDa+0y7GnfEHy4LOd4DrYfwpdWZ/aGk6pAsvdKDgzI4FFf7G7zKJthxXp912PW1wX88ckyv6Y38UKUIX7TS/RukK8VJUsc1IzIV156YK8n+9eFL8vtlZPeETB6dkdlzajv0Sp2l6qtpvM/a57vRk0HjxLPue+Z7vTJyaFImM5btEvyGTtCaPPnwNTicuBMv872uzePW5RBbx0qWvwY30iCIYMxzY+GLeVl4T+RTFgpbr5nWWQtts45iGnaV48PSbR6H9C0vm0dlXE3/9Gnj2KGqom+DTJyGdNOZRyOtfGrCEhrpx71GXRWRMG3msfvKAWcZ2NZrdNke8dvg8bRSkqndlkB9ea+MR+w3mZdpI/tzjp0uB6VcTqX9RsMqppb3yMix6B/O1jnWNvp7G6KXix9MqdJh3aYRGTswKVM6oDL247LatpLH2dh05bFfa40eJ+NCC/O93h2WdZpUJ4PbU2AbSvlgAs38XtTvUNx8RDIe9pDPb2C9TOs387hSbnPnp2XkmvqrBOtK/2FzX0yropDjPdB6CF9anPko3LS3uSw44zapTI/EVj8M/uWLUd9r5IcqZfiiVU6OuNPeLh3LjTR/VZf0rBuUsaPJ4zR/yNtW9ctEwg9i8kmN+QOY4QTK7POlrkPEBoeZoKETtCZPPnzGcLIEEWafL3VPGmhwmPEaaRBEMDtVbqin/xkZvdL9vtoOou6XLmy9Zlr3LbTNOgpo2FXUMP0OKttlzd3TCbe3pJmGdNOZVyPNoa+GMa8U1PNi7SciadqM95tpCAekbFDEKB8fCwYOqwZlyvKDlXmZNnK8MX/fmtwGgjIsp8qMjFxd/Wz78o7aVULLO6Xrmj4Z3D2V3Glxyxxrm98+gsNok85bkjptTjPOxqYrr/3aPE6m/502w/36PkEaG2aMpCdbRkgzHY2EL6nmL9NvYL2WCF+0uVnZv3FF9bPqGOAf+5etkK4re6V/54TMJJ6gFHG8B1oP4UsrC/Sb0ivjGTv7WyjTW73GbMbOgefMnvEj5reRH6qU4Uvl6GD1ypdl3TIc8xe6eOajHZM6Gq4yO3tLDl/snYZaqWXlnwRbGubmYzrTPTkmWUMN2SZPPnzGcOydL9qYy9bSYVzgLzH5dLAcOMFI3SCIYD4qu5Er48z5i3liSWHrNeO6b5lt1lFAw85sPKR58pK5/ptseOcavrgqav36t3Na95+kaTOXV8qnXyTK0KCIM6eO9cbl9rbtcV7CF/OJMU1uA0Epl9P5KRl0gqh26d42laovHKuWOdbmsH2YT91J9QQbMwSPGmdj01VE+JK6Q3vzAQW2TpnV9u5vuymfdhTLfLT1Z8dSX7k9udn9jqqo36FGwhezT5u8fgPDWiJ8UcfC8RurV750rh+P7vclkTm+vI73QOshfGlhZr8pma4gWUhmYNTAY/PMDvysPw6N/FClCV+M4Ke5K4yMkz31YzWZOP/mk57ShC/pO5KrhWD2eQp0lJbHiY/SMuFL2seKJt7WF7yFLp+TgUYaBFHMvyxmX37T22q3x8VtV/MRvqR50lDLbLOO/Bt25rSkevKS+cjnJhvetZP46NvPsjPDaNvJe/K0mb8J3RluJYjWWCPWKuG2gszL1PytShkgm8f5ZreBoHTLyR9/0w8DaJVjbQ7bh/lblOYJNubvUOQ4G5uuIsKXuKA+wDw+2bYP83xR/f5OxPajl0Ig7FHb0Gn39TiBP/pF/1aZ85/qaU8ph9vs+U+j4Uu6J/ul2+b8tkoOXSPkf7wHWg/hS6sKHLhT/oi0ALNxlOWeW1/Sk50a+aFKE74Yt29ka4CFmU9kSf4xrKiTd//kJHLc5g+gqjQnKYFHpUZcRRTYxlbKwKFGr/apKayRnoZ5wqsq+Yc7+LjclVvtp5OBzqOvVdtkw3/V8TTSIIimry7wt6FlaptLeawoq22v1sl0n+yPubKusPVq/tU+TZjSKtusI/+GnfnEl/akKx/0lRfmcaHJhrf5V9q8rioKhC/WR/2mmLZAw3RNDr+FOTSuPWb4YmmQZV6m5pVMaa52Pbdf+vzjvKomt4GgNMvJ2B/TXqkTozWOtTlsH6muRvJUZHKzEaBFjrOx6SokfNFXNSdtz6Erw6IeFmGGhys3TzZ+5ZQrPLykva5ysHbOqivqt0p/zvtMmqsSy/f3pRpus+c/mdZv1t/bVNuc8Qeg1PtYjNyP90DrIXxpUYEfhDSXn7cE8yqORgMjcxiW23Ya+aFKE74Yn2lfOyrTs402PoJXIsQ9fnP20GCwY01VqcIXVe1XD0d3+jurTuCNjv46Izu7VNuZWp5+A7ytUzbsTuhj4nxJpveNyPAB+7JvpfDFmZ/Izt0qMnN37bHhOrQYjzpxCZ1Etl89KJNxvbrNVWT21KSM6cftui8FNdIgiBMMkZxO7eLWo60/jqinD7gKW69mv0T65DHFH+NaYpt1FNCwM/vw0UFa1PIoT8tYoFNvVZHTkG46dWPBHFZcw3d234AM7E7u3LC0t8+fH/vVm+mmzXzEv74tdPBQqfokugiV2RmZ3D0gY9ZbNJMaFFMy8oURmTiV8KtbnpJh80oNy+9dlmVaFfz9iH10q34Udrij2ya3gaA0DS/jM2p7HT0+G7teErXEsTbNfCcIHNein/Ck+8mYHOoONNJTLesM01VM+KIq7vZsNV8TtxjHp4g+kRzmI4hVda4fk+m40NF5bPe4jGybsK/PQCAZ329W+Vioc3NV6X6r1HBjrhyZPTBQ9/CGyOE2ef6Taf1m/r1Nt83VbgfulP4D8cfmNPI93gOth/ClJZmX32bsN2UhmVetNBEYmX9hqDthb+SHKk344pz0hk5krdUuK1Z3Se+m0ciTwsBjq1V1XKU7HJxwe2Mfl9GhfuOJGarxuLH2Q5MYvtw4LMP+yWmHdK8bkMGd7pMh9o3KQOhJI+2r1UlPwlUygR86XbqDtOv7A0+iGljXI13GUz6iln1rhC8rZWBbrYHefsUa6R+qPmVi8tCEjG03l7+uDundm3AWEjpB1NWxqkf6NptP7OqX3is7jeUfdbLSSIMggXHPda06pPNKYxo390nP6vAjc3U/DdOR4ZynuPVakYlNxrpY1iV9Q2My4e8rAzJ+0v2oYcG3WUcRDbvgYzurT0ipPulI7+MTu0cC+3j71Rtkg/db0WzD+/yE0ceYPnYYxy11bBncPO73w1FbZvp42Kv2r9o0ese43lXG9hgZJKVdhqGAUdfyTunRxz9jnfdf3yWdxiOvE4+n1nVgTJM7DudJdaF1YD4+ODJkz7BMfSeGA78f1addecevSRnfqebTePR15xY1HK+/kGa3gYB0Da/wX/ijqv2KLmcfHU1oSC38sTbdfMdT2+uQub3q3+pBfx06636T8QjqVWo/9vf7qHE2Nl35hy+9MrytdvzV5zcD/v6v9n31OxN47Lw6pg9GhU+ewJW6urzjirHOw79fMeuzrM4hzX2oeg5gTGPg+NTpnC94IXHcOYh5m64uZ963m79XwXO7gbsH/T5oIoc7n+FL5t/blNtc+JgVVV4H3PuSOpLP83gPtB7Cl1aUdJ9sizI7jo26xDSV0H3AgXtICwtfFP2XzNXu51JVdMO1tLs3EIJYy/vLkXGpeVJjwblPVze0N3YlnvB23DgqMynvoZ49PCw95glTbLWr9Wtf9q0RvlT72ikfG0meJ3XyMXAw5TjPz8hYiuXu1/LhiJOVRhoEKcyVZXpnX6BRGFf6hHT4cLqxF7peLY0ts6LGt6DbrKOghl150u3A1PucvbyODf3jbuQ0pJ/O4FVF4apNr3l7VFK1r94gYyejGl9ZlmFFZnZvqPuLcnR1qOOr+9WApHVg3jqaVB3Ss3Uy9kk2aZepafZg/V/O60uNe7vu4DbNZf8FbauaGv/U1tpvf5rSV25Ox/02LeixNuV8J9FX8dQF4vXlXcVa+6NT1Dgbm67cwxe3I9vSvhT74vJeGY3c90NmJ2U4zeOK3Wq/Mb5PpFT7kHcONjvunyPG/lbpK3o2p9guvceqG1eaRA63yfOfzOs30+9t2mNAxbnKcUVoWLG1aoPsj23c5HW8B1oP4UvLCXbA2lSIMZ/Mvhhy6HTLvG83sAwa+aFKCl9CYUb9X9mCSbv513TdqKt7PLHnzJSMbemVrsBfgFf4j96sXThT6xfB3vjzfgCDTzoqn5qQ0U3B4eu/LupHYo8fb2C7USfRM4fGZFBfMWBOsyr9qG3nr5b7pqUUc9LcEuGL2VGlOlma2j0ofdd0GaGEviJEP/pwMvG2CZtKaVrGd+q/vJrDVOU8UlFtO0NjMnkq7vL7RhoEGVT0bTaj1m3Vu2pr/Hi2S4MLX6/68nu9TI2/bFb/Uj4gsY9qX6ht1lFsg3bmwEhou63Ok15/gVtivH5H8mp4n5msHlf8bcfdbrYEL/OvlNTxbXt1PzD/+ljbzkZk7GjSdtbAMkzYvvXxb+zQjETfOZpiHTjLX19JqLar8NVi7l9vB/SjU5P6ZPGkXKYB5RmZqDvO6O9VjzFTxn7h9y2T1zbgSF5OgQa45S/Tful5Dy3H9hSPxl+YY23KfTSl2aNjMhD6C733Ox3YP/wnJEWNs7Hpyjt8CTzpyN9GjauQvHOcxKsb7Mr6NrKhPukJXNmkSu93zu/2uEyfTvnDrY4VU7sHgtPn/v4Hb5usbSdpzkH8cy9zmzbO7WphbC3IjRzufIcvWurf2+RtLvBHLr0MQleg+qWvXAqv01UpHsrR9PEeaD2EL1jazHvM9T3rJ9KFFuVDxl8zc3ssJgAAra926198vxoB5yaNv7rzKFlgMTOv6uu8ZSL2CkBfZSbxEf3ApY7wBUta+cEN/glk5BUsVuYVSikfawwAwGJX3i8b3L/op7mCxWQ+0Sjbby6A1jEjI16QmuYKFpPRtcLKbakeWg5cUghfsITpzsfcH48GApS8LucFAGCxMDvFzxyg5HWbKYCFc2rU70w4c4CSth9G4BJF+IIlrJl7u80rX6odvAIAcKlrvJ+k4JUvA4fdFwEsLs2EqMaVL85DJIAlhvAFS5h55UvGq1fMR+tlvOwaAIDFyrzyJVPDS3fM7/f5wu26wKJlXPnSnunqFf10Nq/Pl5UyfMJ9GVhCCF+wpJl/hWtfO+Y8ujVJ+eiwdPtPXuiUwWN0GAYAWCLOjUuv+7upO6ofO+2+HufclAxfXetos3NoSvjlBBYp8wmn6jx44HCKJLUyI+PrO/1jQLv5ZEpgCSF8wdJmPu1I1/Ie51GGk0dnZPac2l50nZmRqUMT1ceqBh5n2y5rdnPJJABgaak97UhXh/ToR9gfmpKZM+7v5rlZmTk6KRO7R6T/+uAjZtP+oQNA6zKfdqTPh7u+MChjByZl+rR3DChL6fikTO7Tj+3vDj4uftWATJ13BwQsMYQvwPkZGdvYZZxIJlf76g0ylvKx1AAAXFoqMrN7g3SZDaqkWtYlG3anfCw1gJY3e3hYepZb9vXI6pCerZPpHksNXKIIXwBXpTRVvbrlyq5gQq+qY1WXdF3TJwM7x2X6NBdLAwCgfjhlyrm6Rf1GXmFcRapread0XdkjfZtHZfx4SSo0uIBLz1xZZg7oq1t6pCtwdbiqZSvUMaBLejeNyNihGZnl9BkgfAEAAAAAACgS4QsAAAAAAECBCF8AAAAAAAAKRPgCAAAAAABQIMIXAAAAAACAAhG+AAAAAAAAFIjwBQAAAAAAoECELwAAAAAAAAUifAEAAAAAACgQ4QsAAAAAAECBCF8AAAAAAAAKRPgCAAAAAABQIMIXAAAAAACAAhG+tJDZ3Wukra0ttjpWdUnX9f0ysntSZs65XwQAAAAAAC2L8KWFpAlfgtUuXRvHZLrsDgAAAAAAALQcwpcWYoYvK9f2y+DQYKj6pffKTukIBDCqlvfKeMkdCAAAAAAAaCmELy3EDF/W7J51X7WYK8v07g3StcwIYK4alZk5930AAAAAANAyCF9aSOrwxVMakzVe+NLWLv2HKu4bAAAAAACgVRC+tJDM4YsyvXWl/532oSn3VQAAAAAA0CoIX1pII+GLHB7wv9N27Zik/BYAAAAAAJgnhC8tpKHw5Wi28GX26JgMruuRriva/e/px1f3bhqViVNpHps0JQPu9wYOuy9p5RmZ2N4nPas6asNdPSLT7tum2ePjMrqpV7pWr5B297PedPSsG5DRfVOpH6NdPjVhGVaHdF7ZK/07J1IPx1/2nx0Tv+/iuVmZ2j0ofdd0yQq/f512WbG6R/qGxmSqlPE2r7myzBwYlf7ru6RzuWV4Z9zPxfHX94BMen38WIebdb0CAAAAAIpC+NJCmg5f1o5Hhy/lKRm5phaM2Es/unpcSrEd99bCF28aK8eHpdvs/NercBg0OynDidPgVbus2RvzCKdU86OrQ3q2T0k5oTPi2rKvhhrlYyPSYwQZ9mqX7m3TkiqCOT0uG1bXAi97pZhWf333yJhePKmG2yad6/cnrFcAAAAAQFEIX1pII+GL+Z3IPl9K+2XDKqMxvrxb+jaPyvihSZk8MCYjm9YYV3ao4awdi2mo18KXnl0lqRwdkE73323LVkjXNX0yMDToXIXRtc2YnsqUDBrT0H7FGukfGpGxA2oa1HRM7B6RQX0Fi3dFzrI+2R911UppXHrNYESNt3vdgAxuH5MJPT9DA9J3deiqmhvjQ6XacuyRkV21eWq/Qi+rQRnZPVFdVkP9ssa4asgJiXbHP+c7HE45866nVS//faMysK478Pjwzi1T0YGOEbb17xyTNd5wl3dK76ZBGdw5rpbnuIzqZXBVMJyKHS4AAAAAoDCELy0kc/gyNy3DfqAR8bSjuZKMXVv7TNfmCZm1hRDlaRldWwsVuu+ecd8Iq4UvbesHZMAZf7t0D03ah+sq39/nDzspBKiUpmX8cMT4A/Osr+gYl5mogZ2ZkH7zs9tsN0FVmcveqWVdMnAgah1UZObuNbVwZ1m/TEZNw/lJGVjpDbdDenfO2Oc9MK1qXR6MGKB5pZM/zOnIq2VmD/bXwrG2bhk97b4BAAAAAJg3hC8tJFP4MleS8fWd/ufbrhqVGUsDXIceXkjQ/oX9Etv7x7n90uddSREZKBjhi1PJV35oU1u8z6+RsTR9m0QIXOkTe4WOy5ynmPAhGL60S9/9Sf2kzAZCrcFj7ssh09tq6ygu/HGcGK4FJWp9WpdqKHxJHKZU1LKvPRFrzd50V1QBAAAAAPJD+NJCEsOX82WZPTUl49v7pDtw282aav8fdUoyepX3uXRXPUxtqV39Yg8gguFLYqDjmt7mBQArZfi4+2JmMzJ6pTduNT+n3JcTmMt1ZURYEQhfrhxVY0pW2tXjf8e6viqT0p8YZpnMQEctpxPuy6ZA+NIvE4nDVMwnYm3hceQAAAAAMN8IX1pI8OqLdNW+eoOMR4Uqs+OyxvtsykDBvD3I3oeMGb5kCFKOD8tK73vLe2X0RANP4Dkzlnl+HCm+lyagqWMEIdbw5dhg7dakTROp+luphVQRV6mY4UvK4Csw/4QvAAAAADDvCF9aSJbwpWNVrwzsi+7rw2E21NM2us3vWJ+eZIYvxuOOE+nbX4zbpNraZcXaARk7WpJK2mGY07Z50n0xjWkZ9vtd6ZP9lsTCXPapb81JCF8Cw0y6jcxlfscafhnjjOxgOYzwBQAAAAAWFOFLCwlcfbG2XwaHBo1ynwx0dEZmz7tfSDC7N32YY63wo6IdRvhifT/GXFmmd/YFnqzk1LIVsmbLmEyV4q8NMZdPV2SHwDbm7Tz2PmfMYQ8cdV9MkhC+TA0lPwI6tmxBScI4rQhfAAAAAGBBEb60kEaulIhjDq+hyjt88VRKMhnut8atjqv6ZSzilqTGl88ChS9+J8MNFuELAAAAAFwSCF9aSJHhS9fmcZk8NJmtjpUs/ZTkEL4YyqcmZGRdt3R4w3SqXbqG6h9HbV7JsyiufDHCl94dluWbVCctIRThCwAAAAAsOoQvLSTv8MVsqOfX6M43fPHpq2G29hghTHt93yvm/BTY50te4Uvu61MjfAEAAACARYfwpYXk3lg3G91Zng4Uq6DwxVU5OiCdUdPcwNObHOZyWDkstmcZFRG+6PezPu0oEeELAAAAACw6hC8tJP8rJUoyepXb6G7rltFT7stNKTZ80dM89llvmgfU2Ezm7UPpH3NtLteVW+2PkS4kfKlMSr/XufCyfplI2VFyLMIXAAAAAFh0CF9aSP7hi0h5X68/zLZrR6WU+tHQUeYxfFk2GApfRCoH+/2rSdrXjiXPz/mJWgCiA6jT7ushhYQvyvTWlf5nVm6ejH80eBqELwAAAACw6BC+tJAiwheZK8nY2tojj9uvHpTJuEc6z1Vk9tSkjOlHP7svBTUWvszuG5CB3VOS8DRpKe3tk5XetN4yablVZ1bGjfnpXD8eHcCcmZCB1cZnLZ34eooKX+S8Wl6rqp/R1bl+TKbPue/ZqOVfOj4uI9sm7MuW8AUAAAAAFh3ClxZSSPiihQIAXR2reqRv86AMDnnVL71Xdhod3oZv+fE0GL7489YuK1b3Sv/QqIz7T/YZl1E9/lUd7mdULVsjYyX3y2Hh+Vm2QtZsGpTRfdXhje8clP7rzXlJvkqmsPBFK43JGv/qG13eMjCW/+Y+6Vm9otZHTNSyJXwBAAAAgEWH8KWFFBa+aOdnZGxjV61xn1TLh/MNX4zHRCdV++oNMnYy4RKZ1PPTIT1bJ2U24XafQsMXbXZShq8xwqWEar9xnPAFAAAAAC4RhC8tpNDwxVUpTcv4Tn2VS5esMK/GWLZCuq7skb6hMZk8NSuVyLCisfBFq5SmZGx7ddydy41xO1eCdEnvphEZO1qKGXc9Z5hDoatGnHnplf6dEzITd4uPofDwxVXWt3Tp6Q1cZaRqeac7zeMyfTomeCJ8AQAAAIBFh/AFAAAAAACgQIQvAAAAAAAABSJ8AQAAAAAAKBDhCwAAAAAAQIEIXwAAAAAAAApE+AIAAAAAAFAgwhcAAAAAAIACEb4AAAAAAAAUiPAFAAAAAACgQIQvAAAAAAAABSJ8AQAAAAAAKBDhCwAAAAAAQIEIXwAAAAAAAApE+AIAAAAAAFAgwhcAAAAAAIACEb4AAAAAAAAUiPAFAAAAAACgQIQvAAAAAAAABSJ8AQAAAAAAKBDhCwAAAAAAQIEIXwAAAAAAAApE+AIAAAAAAFAgwhcAAAAAAIACEb4AAAAAAAAUiPAFAAAAAACgQIQvAAAAAAAABSJ8AQAAAAAAKBDhCwAAAAAAQIEIXwAAAAAAAApE+AIAAAAAAFAgwhcAAAAAAIACEb4AAAAAAAAUiPAFAAAAAACgQIQvAAAAAAAABSJ8AQAAAAAAKBDhCwAAAAAAQIEIXwAAAAAAAApE+AIAAAAAAFAgwhcAAAAAAIACEb4AAAAAAAAUiPAFAAAAAACgQIQvAAAAAAAABSJ8AQAAAAAAKBDhCwAAAAAAQIEIXwAAAAAAAApE+AIAAAAAAFAgwhcAAAAAAIACEb4AAAAAAAAUiPAFAAAAAACgQIQvAAAAAAAABSJ8AQAAAAAAKBDhCwAAAAAAQIEIXwAAAAAAAApE+AIAAAAAAFAgwhcAAAAAAIACEb4AAAAAAAAUiPAFAAAAAACgQIQvl5LzFfd/AACXrLmKVJb64V4vgzn3/wEAABYBwpdLxOzeNdLe1ibta8dl1n3tUjW1pU3a1Ly2bZlyX8GSdXSgui20rZGxM+5ri8aUDDjT3iYDR92XGjC7e011GVw7dsnv+0tG3HZdmZLBVfq9Thk8Nt8JTD7bbNPOjMuaZWo6lq2R8aL2+zNjsqYV5hW545jZ4tj38jdXlul9A9K7eoXTVtDLtmNVl/Ru2i8l9yMA5gfhS6swfmzSVPgHyQ8k2gbU6fGljfAFvgbDF//kO1PlHfAQviBC3HZt/Fas2T3fa7xFwhd/+RQ4HYupAZh0/rBshXRd2SN9m0dl/DhHCY6ZLW4xhy9zZZk5NCaD63qka1WHsR92SOeVvdK/c1ymS/MdmlfUeXOnMS1GfWG/lN1PAZgfhC+tosnwpXxwQLqWtUvX0JQ6zF7aCF/gI3yhIXEpituu52Zk9Bp1Ur+8V8bn/U+WLRK+nJuQgdXt0r56UKbOu6/l7VIKX0LVfvWwTC3hFhfHzBa3SMOX2cPD0rM8uK/ZS52rbxyTmaKOXSEV9Xuy0hlvp/QfMLb4yqyUZumuAJhvhC+twvix6T+gpvNcfC3le90JX+BrMHyRin2/qqvSftmworq9rdw8mXOwSfiCCI1u14VrkfBlPizS8KVuWucqzrGsdHxcRr7Q5d9ysJSPFxwzW9wiDF9Kapvy961lK2TNljGZOF4yzidKMn1gTAbW1m77aVs1UFx4bJgaaq+O78ZxrnIBWgDhS6tYpEn/QiB8ga/QRmpFJjevrA5/Wb9M5H6SRPiCCIQvC+9SCV9CSrvc40XbShk+4b64xHDMbHGL7HxYX1nS6U5v+9pRmU5IOMrHhqVb91nlfH5MSoX+MXVWxtdWx9V194z7GoCFRPjSKghfUiN8ga/ARmrthKpd+g8WcWku4QsiEL4svEs0fJHyfulzPzv/fQa1Bo6ZLW4x7Xtz0zLsdICuKsOVLGZgU+x+OCtj187HeACkRfjSKpr8sYk9mfCG7b3n9Ho+KH3XdEqHO872K7qkZ92ITJyKjuy9cfgH8PK0jA/1SY/fqVi7rFjdI33bJ2Qm6drGuYqUjo7JyKbeYKdkyzvVdAzK+InoAdSFL2cmZWRdj3T699pWOzYb2D0ls1F/UQgvk3NqXraoabnCvTxTVceq+nkpn5qoH9c1fTJyYEbKaf56oaZ1VM+zP54U389p/cXyt7/kxt58bGs+6zZmrNtTo9LlvJ5zI/W8amS6J1TtSR3SnZuRiZ0Dah67ZIX71yxvOvt3TkZvg5aG7OyhkcCy0vtD1/UDMna0bkn7YteH34hP7og7LtTMd9+v3yaiK2K6k7aLCN48+sdY2/6YdOzIQ1PbdcoAJGLf690yJlMN7yuhcTvjGJDeKxsfx+yhUem/3th3nN+AhONDhuNVpLlZmdzZH3r6h7ENVyak3329iOVcty3q6dneJ93etrisW0ZPue8l8ZdHwrQ6auswtjE2z/PV0HZgOjMlY4F9qjqMruv7ZXTfdGB/rjtm6v0x8Puf5njmLcfaMco2D0nH75Y8RuvzofCyjKpG/giW176X1+9AE/te+f4+d9wrZfi4+2IqFZnY5I5v5bBMh6fX26e9J5gmLbMwdV4yuVvtv1cbtzmFyrr/N7jf121/3m+Dv246pP9gaEIb3c7C55lK+cS4DFxfm+aOTRP1522NnH/nsp/XjrlJFXlMbnC9RGt0mjKEeXn8Tl+iCF9aRaaTp3qxDTBv2Mt054RTMrjaO/DYqkN699p7cfTG0a479T06KF1+Q9NSsZ1BTsvwFZbvBKpd7dj2AdROQCaltLfXPxDZKrJDRn95D8j+wynm5UxFpoaM++Ut1XHjeOzlo6Xd8dPaceOovQO2nNZfrAwHyfnY1rTK8dqlubZy1u3J9NOdnl7X7pMBlvXJ/nPuyxaz6sQrbptwKvKvYbUfv4HDJRm/Me4EJLoz7dj1kfOJfdP7fmCb0EFHl3TpMk4o/UbC5kEZVCeW4XkqJ+yv7asHZCLinMCbxzV7Zxs/djSp+e3a2G6ifivKk/H73rIuGTgYsZBieeNul8GDSft3pzrZjhnHXEnGYrd5dXzYOWPvZynD8cpK9+Xk/bXaVs42PFnocvYbgIfVP2ZVY7NuetSxJ6mR7PGXR4rzB+PKF2fcNvM5X81sB46KzOyM35edxq37ac08Zs40fDzz9gX9uPPGj9+tdowOfFc3Kr1jtN9gVaWfnqUarQNDgzKS9TiS076Xx+9A8/teWfZ/wf3Oler8zX01NfVbUO0I13ILoLdP623XOo1GLVsjoyeDW5e/rcRUXeO5if3e2/56dqkN6/yMjK4NDyc4j01tZ96y+eyYlPT+f7fR345bK7eZe3wT59+57OdTMuLNn62M8x9roFHI73mj00T4kgfCl1aR5eTJIrYB5g9bHeD0DrysWwYPzMiscaCpnFY799Xezt0to6fdNwz+OFapHVMdNNuvHpSJU7O1zn/11SyHBmsNi6tG1YHRbnprp6xYq5PikpTNI9W5aeOgrX6ELQ1f/0dlVad06oPdxlGZOm0MRCfEuzf4l3SuVCcqdQdDY3lXh7VBRtW0+PNSKcnUttoBvX15h/P/+gd93Jzn8yWZHOp2P9cu/YfqD7va7F5vWO3SPTQpJW/Zh5ZZ+6aJmGltbv3FynCQnI9tTc6MyxpvmazeIGPHjTOhyqzMHKguM2+95Hlwrxwb9G830o30WOfGpXd5d/WvT2fMbVCt1wP9tW1wa/BEoKrWiO5U27L+Ad2wc6q2bWhqfxhb7z0icqU6NtRvX7HrI+cT++b2fX2iWl3v1vviT49L38rq97sj7k2vrRu1zNaPqZPS2vIoHx+rndSr8c9YglBvHttXdznD6Vyvjx1GB+Zq2zKPHe235NzJci7bdUL4UpmSQW85qOPa2HFjPQW2p/R/3a3xxr1SbbPG/m0spMppdVLnn6B2RvQrovshcI8BehiHgsfewDHVdstfhuNVHXP5LO+RYXPczhWZo9XtSK0D72S9iOXsbYtrdk3I6FXq/539f1IdR9R5iu6g8/Rs+s4xjd+zpPMHv8+XleqYYNu453W+mtwOFLOj087r9ZUyavj6o2pdls/MyNS+ERnYFzwa+cezleocQu1vHdcMxx/PbMdWf19Q5yCr9TLprB6/jROayqy5vCLOD1rpGH1uv/Q576vfvrun664GKO3tc8OCRo4dSk77Xl6/A83ve2p+3OUZbuynMlcLmZzQwmScS3U6y6S6vPzNy1mfxtOVIv9QlLKx3OR+729/WybcK3o6pGfruEyr31dnmZ4p1X4nmt3O/GUzIBMH+539X+/D434Hx8GnODV1/p3Xfh7DP4Yt0wGP+6KnyfXSqOhpInzJA+FLq8hw8mQT2wAzhu3sBFGJyPkJ6XcPQraOufxxuOOJusqj4h4M29q6GjsY6AatO56+++t/Av0TEFWdtmDFNXN3t/u5fpkIf8hcJpE/WsZloboir2Aoy/iN7mdsB29juUZO74lh92TCculqTusvVoaDZPHbWkUmb3GXu2ogTFqXuXLcW2buuPI4uBv3b7d7l/s2YXqr22Fv6C+vVbVGtP5BtwUrDv1oYX2CqD9n2b5i10feJ/bueBra9/1tQ50kRISD5X291XHYlpexHCI7KfRP6tqkd1/8sSPu6VWxx46G5bVdx4cv/rSrkyb7/lcLwbI//SLtNluSMa9RbRlHbTuJHsb0NvekUm8L4XWd4XgVVtrprduY49PsuL8d6SpiOXvbYvsy9Rk9jKyBuck47lrPH1QjQwcRE1t7qo3aZd3qd8a+3OdzvpreDoz9Pe5cIMw8nsV1eBp/LmPuCytl4HDUvhB//G6lY7Q/jMg/nNXOdRoJG3LZ93L8HWh631PT6u13tnPVZOo4+dnq9+vWqXkuFbkvKiX1OXde7X/kSddYbna/97cdtUzb9f58OHp5NL2d+ctGjUvNe+eWyejbhpo9/85rP4/ir7926zZU7O95hNhpInzJA+FLqzAPtEllaWT5B7OEBrH94FwzudkdR1wjz3qAMhhpfmMdldZ6Z7cdeGsNKPuVMT51AOlxPhfXEIxfJvpEpTou+4+4x182lktPaz9K/TIZuThqPzbtMT/Czay/WBkOkoVva8b93nHLvPqj4w4jp4O7f6Kvfujq/gLRiGOD7omu7TJm40c94UeztKun+rm47cu2PnI/sW9i308zLf4+a1mf6vvVZRkd3mh+4GVZHrkcOxqV23YdE77MqffcE83unVFn64p/uXvW/Sb9Nhs9jtrJW+yVRX4I314/nxmOV0HqBPnK6riTjk/T29ztSFURy7m2LdpPujMxjrtx1X6Fe5Ve1Ojmdb6a3w78xnzsb2u9XI5nOR2/W+kYHTd8jz8vtt+bWDnte7n+DjS57xn7Xd10plLbB/y+XTwZzqVq+4HahupCiBSN5Rz2+9r21yadCcFc09uZebxbZQllDf50NXr+ndd+bmP8kcLat2Dhv+cWSdOUZnvyNPw7fekjfGkVKU+enLIcjPwDTMKBKvIeb1fcAa92cB2QyZiDnRqKn+Yn7pwR4g7O/nvO/Z4xjJOM6JP3hGXinxglNMIiT6CMhlRCIDJzd1f1c+G/+ue0/mJlOEgWvq35gUWKadnrbZM5HNxPjUq3M6zo/oYyi12utR/1ukuOww5Hn6DHro/cT+yb2PfTTEvM8vJPyBNObGqBaX3glcuxo1G5bde17aZu2k54J2EJxysjCMrW+MiwzRrLMDAOo8+R+HDeaKyFT+YzHK8C/L9UWwKdMH99FbOc/W3R2mDKyDjuxpfbwaR5u4dpPuer6e3A+G3dPOm+lk4+5zL5HL9b6RgdN3xP7O9NnJz2vVx/B5rd98zznaR5sjLCl/DyNIedcC5V66B9peU2zxSN5Rz2+9r2l3xMbno7M5ZNfBsjh/PvvPZzC/8W0Kir7wv/Pa+XOE1ptidPo7/TSwDhS6swDib9B9R0OvctRlSgk5SqdAeqhB1YiRuO/15iqpth54wQd3D230s84YpppPjLpCf6ck7NPzFKOHhEnkDV7glOWha1H6/QMHJaf7EyHCSL3tYil4NN2vWTxLxkVE1P1CXbmcUuV2P7TDq5ijlBj10feZ/YN7Pv+yeI0Ved+CfMdSdAtavh4k7YHDHbhD+PiVeGxRw7GpTfdh09bbXQJmkctWFkO0Zn2GaNbSFwa2HqEKr2/bp1nuF4FZDleOGPo5jl7G+LSU9TSyNmWh3ubUeTOzf4nVzaOoif1/lqejtI/9sa5u+LSSFs3PHMWAbx4ZESdxxuoWO03wCN/Au/vhW7+t3Mtx3lsu/l/DvQ7L6XtN8lMrbtyCtfUiyv2Cu04rbhqjz2e3/7q/vtrtf0duYvG1vYZMrh/NuY56b28zB9a4/z2ej+rIr/PQ9JMU1ptidflm14iSF8aRVNHsT9A0dsgzh5B4gbTuw4AlLsnOpkcPbUpIxtrz6it8t4VGmgLD+wcScgQbUDUt0yTbtM0p4wRB50a9OQvkLDyGn9xcprHDkMx3898cRYyXJCF8O/r1YPJ3GkIedLMr1vVAb1Iwx1L/Fmb/1+2aYvZvsMi/lRj10fGU4GUp3YN7Xv196z3qtfVieQbn87cd9NX/XLPJdjR4Py266jp80fR4bKdrKWZbkY68xc3v68Zajw+spwnAkw9of4qwMUfxzFLOf022IKMdNaR59guw2S8O0B8zpfTW8HtW0xsVEUks/xLJ/jd+x7IYUfo/3tqF3WWP7KXz484PaNkXG/03LZ9+b7dyDBvPT5kmZZ17bF+u00bhuuymO/T7/9Kc1uZ6mXTW25pK/wfpjTfm7St/a468TeyW9VHusltZTTlGZ78mXahpcWwpdWEfljk07sgS/DDhA3nPQH1/ids3JyTDYEHpumHy2rA5hq9awbkD7vKgTLj2MuDai0y8Q/mKb9XPSBO32FhpHT+ouV1zhyGI7/+nyFL37a3xb5lB2ruVmZ9Dqw9Mp8ZOKVvdJ/yxr3slHb9OXzox67PtKeDCiFn9hrJf10KHc8+jGS1/fL4JAOYGvha+ctEzJbd3I+3yfdGdZNSvlt19HT5o8jQ2U7WcuyXIx1Zi5vf94yVHh9ZTjOBBj7w5INXxT/L8+h2y7mdb6a3g6MbTHxKqygfI5n+Ry/Y98LmY9jtPkI/vYruqR306AMbu6TnlW1J5jFPkI+Si773nz/DiSpXVmR+UogzbhiJfppR2mOcbVtsX6dxq9vLY/9Pv32V9XUdpZ62dSWS/oK74c57ecG/499cR3vK3msl7TSTlOa7cmXaRteWghfWkXGk6ew2ANfhh0gbjjpD64xO6fxVzf9aLhJ8xHRhrgfx/Q/nDEHzbTLxD+Ypv1c/YHb+3Fu+F7MnNZfrAzj8O+5Lmhb819PcTKaev1EMdL+qMdS2lXUduh1ztslG3ZPBx6364tdHvn8qMeu85QnA4F7ows8sXfMqhPO1foz1ScVOMPVodX1+tHzUUOP74Q7rVyOHQ3Kb7uOnjb/MuUUl343pjbu5KsNan/Vtd92ZOuEOqUMx5mALMcLfxzFLOf8GoBKzLRa+X0TBJfDvM5X09tBbVvM2uDI53iWz/G7FY/Rs4cGqreIOk+uqX62Y5VqIG8Zk6ks+5spl31vvn8HktRuj0m+3cvC7yjVcvuMvwySb+E2+/yoPy6nWN857Pfpt7+ahrez1Mf/HM6/89rPPX7fgjFPTnIV/3vuyjBNabYnn99nTcbf6SWA8KVVZD15Cok98KU+UMUPJ48f96kt7hUvsQ3d+Pt6F1f4ksPJQk7rL1bqcRgnG0Vta8YyH0+YiVqnesnjsympaaj+6Hcnn+CY/PmMuzdWie3XIJ8f9dh1nuZkwFHr1LLQE/vKlAzrq94aeLzn1JB77GjiPv2FDF/y265jpi2PYCNWbdyJj7OP6gTQv1Q/6X79GBmOMwHGfjt4zH0tit9HUTHLeSHDl8jtaz7nq+ntoPbbWv+Eknj5HM/yOX632jG6cmzY6Rco7hHcDclp35vf34FklUPeo7vVdhz3lKk6FZm8xZ0X3bgOL2tjn04Muv1Grm1fStFYzmG/T7/9VTW1naU+/ucR1uW0n2tG34KpHo1f+O+5knWa0mxPrmbPzy9lhC+tIuPJU1jsgS/1gSp+OM3/uNdej/3RMx6vZvvc4gpfVAPfewyg7Qc2jZzWXyzjyROxl3BXJqXfWzdFbWvGtMQ/kldvC+7JS4rx1TmjTv7deUl6NGKdlNuFP4/Wz+Xzox67zv2TsoSOpU97f/lQZdmvmt/3q7y/5CQ23C1qJ7kJj4mOsaDhS27bdcy0Gftn0jgaUxt30mM3a+srPA8l/2Qv6RGqkTIcZ4KmZXhlunHX9t1ilvNChi/+Y3jb+mXCPNue1/lqfjuo3T7V4KOmmzqe5XP8bq1jtNdYTXG1RWb57Hvz+zuQwpyaL7evsixXz1bUNlHt1ySiEWvs00nLy9+fG33UdA77ffrtT2tyO8tw/G/6/Duv/VyZ3uZeLb1KvR97a4+r8N/zBqbJvAIv9qEnRriY+Xf60kf40ioynjyFxR74Mhyo4obT/I97LYWOe9qI/6gzXZYfx8UWvsj5Cf8Ami5ZDslp/cUzToxipjGwbgrb1oyDdtwPgtFXS5rxBelt0RtHAz/K/l8kYk4ezk/KgLtM7dOXz4967Do3GvyRJ156eW/2GmOqLPtV8/t+lTcc/deumVQ/9AbjLzSN/lV2QcOX3Lbr+Gnz793WVxcldi6TVW3c+p78gaMRRwrz6WGWkEb/Ray6/8QMI06G40yYfzIet3wC+24xy3nBwhfj1t/2WybrjvXzOV/5bQfZflvzOZ7lc/xurWO0957uCHXG/jjyJuSy783r70A6ZpDSceNo4m9b+cRobR+Mmgdj245dXsb+bA9p4n+TPc3u9+m3P63J7SzL8b/Z8++89vMTw+42ku1YV+jveYPT5Hc9sFLNZ9TXmjo/v/QRvrQK40Cb+KhpVeGDVeyBL8OBKm44efy4+z++amfX/WSUjfmozE7L2MYudTLWLh3L3UaK5cdx0YUvSvnBDX7nYrqvm4lTs+I/MVw/BvRc9Yk5/dd3ynCj06pk+wEMqq2bDundPiUl46BamZ2RiaFuZ910rnIPvAVua4EGwtWDankZzbdKWUqHhqVnuXpvVWdD95TqKzCqJ/0rpP/BUt3+FVX+fmf8RUJP36S5sNT69KavbXmHu95t05fPj3r8Ojca/Mu6ZGDfTHCfOz0lo+v1Xz461XqtTktxJ/bKGaPDXWt1SOc1fTK4L3hs8J0Y8R+V2756g4weVevOO9F19qNZmTk0JoPruqVvb/34czl2+P1l6L9GxS+NOrls1wnbzdy0jHgdmuv+iHaqfflcbfusqN9A50lzQ33S/YXQ400TeeN2j9GW/o4qpydl+Bqv08So2/nKsn+995kO6dk6ITNnjP3rvNrfTk/L+M5+6V01XLfNZznO1Dmv5sHb1ldVtyF/vPopfMfdDuHVOvAaVEUs53kNX/S+cUYdw7f3+ftP5Mn8vM5Xk9uBUrt1tF26No7K1Ona9yv+8UC9Xn3Jkc/xLJ/jt5rKljpGz+6rdYRqreWd0rNuUMZPNPCX+Lz2vXn7HUjP7EC2bbka7/ZxmVbbYu38QU3T0XEZ+YI+x/WmfTA6hPf3aXUO4ZxL9MjwoeDyKh0dqf2eRnaUmvCb7Glyv0+//VU1tZ1lPP43df6dx35uXB2VOQAq6ve8mWkyrsLruHFEpoKNBZk5MCjdav9s9Px8KSB8aRXGyVOaCh8EYg98GQ5UccPJ5cddd3DqXXFgrXbp3jYtpfv7qv+2/DguxvBFmz04UDvxjamGp1XJ+gMYkGLddA2pg7Q3rwVua1rl6GDs8qqeuHjrOHl8NbXtM2uZ68b8a5e11Mnl/pJ3RZFt+vI5eU9c5+YJr7U6pHdvyWnEOP+27Fe57PtKpTTpnHzWxh1dUX8RrJwcTQhwqmUbfx7HjtKuHnccWba5mua36xTbzfkZGb3Ra9TGVObjhDvuZdVpHPROCm2lThQHD8c00OZmZWJzrSESXZZjaobjjJX51C1bLe+V8VKtM+4ilnNR4UuqUvM3ejLmdHs+56uZ7cBRkentoafO1VXwu/kcz1Lsh56k84NWOUbrBv2hEelzOkRPqnb1/Qb+FJ/Tvjc/vwPZlI+NVP/oEpqG+tJB4Xj8VTv+Pt0vEyeTl1l0H2rxv8kBTez36bc/pdntrIHjf8Pn3zns537HuWpezCe7Wmvj/vrlV8DvebPTVAu97dX4+fnSQPjSKjKePIUPArEHvgwHqrjh5HPCoqiTrandA9K7ekVt5w2n3F6Ha5Yfx8UavjjKMzKh/4p3Ze3Rut7Br3fTqIwfN/6y4clp/aUyV5bpfYOBR/96T6IZP+6um9KY9ESNI+9pLU/L+JD5+EG9rHplYPeU+zhi74kqyeOrqW2fWSu8HVVOT8jIuh7p9E+MqtPXv3PSnT6vg2Lb9OVz8p5qOerHYuvtztjn9OMde9aN1K7a8a7oKOjE3v/LoPsXT/OKIr/OzKjp3OCHWpH3OTvHEL2ddskK44RKPylBH0fGDgX/euxp/tiR0OF0Wk1t1+m3m9mj+q+/PdJ1hRGS6P1ZX120e1JmMveZ4I7b6+zScrxwHhua4ako5VMTMrqpV7r8ZaFKP4ZcP6p957hMm39V82Q4zkSy7BMdq3qkb/uEzLib3eTm6utFLOd5D1+c43i/jB6w7xs28zlfDW0HBh3s1n3fn2f1u+p+TsvnXCaf47dvoY/RcyUZdxt4neurVxDZjtH6r+zVK3H0MBrsdyWvfa/w34EGqGNi9aobtd+Y22Jbh3R623KaY1b4GJdimdklnI9bNLLfp97+8tjOGj3+N3L+ncN+7i+bNBWz/BpZL1HymKbyiXFnemrnv9VtfMC/crmR8/OlgfAFAFAs7zLVZX2yP8UJgt+BYBNPtChGrW+kojrAA4D55t123J7mmKtvWXCPg40/whex8giYWxDbGUD4AgAomH+rTkxH26b0f8WdZ/4JcYGPfgSAeeX9hTrFY40d2a+mQEaXZPjCdgZohC8AgEJlvczbf4RsyrBmvuins+jpsj0lBgAWpwy3VjhmZPTK6ufTNaKR2SUZvrCdARrhCwCgUH7nbleNykxSfxOz49Ln3r/fapcaTw3pe627ZTSyc0MAWGxmZXxt9ZjbffeM+1q02X19br8jXAFYmEsyfGE7AzTCFwBAsc7t9wOVzlvG7R0EOo8odB/RrT4X9bQjAEC+yvd7Dd1O6Q897tpTmZ2Ria3ek6UafNoR0rlE+3xhOwMIXwAA8yD8iGX9RAr/UYZm7/3qZKtr45jMnHe/CAAoWEWmhsxHfusnl9SO0ebThPRj5DfsnuHWyyJdouEL2xlA+AIAmC/+ox5DJ1n6cYkpHykLACiG/8hv45HGupywXD+2e9+0cIieB5ds+FLFdoaljPAFAAAAAACgQIQvAAAAAAAABSJ8AQAAAAAAKBDhCwAAAAAAQIEIXwAAAAAAAApE+AIAAAAAAFAgwhcAAAAAAIACEb4AAAAAAAAUiPAFAAAAAACgQIQvQEaV8xX3/xavS2EeFgLLDQAAAEAjCF9axOzuNdLW1iZt147JrPsa4s3/MqvI1FCnM87OoSn1r3xMbVHzoOdjy5T7SpGKmYdLX4stt6MD1W2mbY2MnXFfAwAAANCyCF9axGIPXyrHhqVrWbt0bTUapnPTMrK6XdpXD8jEOfe1HM3/MpuVsWvdoCTHcc5v+FLMPFz6Wmy5Eb4AAAAAiwrhS4tY7OGLHyC0DYgfIZwZkzXOa20ycNR9LUcLscxmdvZIR1uH9O4tua80L7/wZVqGV7bJmt3xS6OIeVgKWmq5Eb4AAAAAiwrhS4u4tK98GZSp8+5rOVrsy8yTW/hyalS61HCSwhdcAghfAAAAgEWF8KVFXCpBwnwifAmaubvLGQ7hyxJA+AIAAAAsKoQvLYLwJTvCF0N5Soavqg6H8GUJIHwBAAAAFhXClxZRFyScmZSRdT3SdUW728jqkM5r+mTkwIyU55yvxJsry/S+Qem7plM6nO+3SfsVXdK7ZUymYhprXhDg99EyNyuT2/uk25uOZd0yesp9z+/TJbkBmDooOTMlY0N90rOqo/p5Xcs7pev6fhndNy2zxrwnDnOuJOM3usNZNVB/65NtXMtWSNeVvdK/c1ymS/XPtEkblMweHZNBtf46l7ufV9WxSi3/TaMyfiI4tXXDdNd97btq3atpGtg9FZj/qlmZ2KL7IvE+ayujHx4lcR7mKlI6NCr913fJimXmcGwVse7z2v7Ushjd1BvcDyKXRQY5r3tvW/SDr/K0jAeG3y4rVvdI3/YJmSlXPxLL+n1jvt1bzKzL/8x+2bBaLS81P337Yvc2AAAAAPOE8KVF+EHCWtU43dsb25huXzsqM3F9qJQnZVA3vizfdWpZlwwctDfK/MbvYfWP2QnpXxX6bluf7Pcaj7mGLxWZ2Rk/320rh2Xa/bQWO8y5kuxfX300cNvyXhkP9ZFaun+DdJrDtpUeX6iBnxhcnJ+RUS/wiaiV28y5MIc5KaWkdV/Xf86UjFzZJV2qvKBEhxz637UaSR++mIGV0+D3hlELUXRVg6RBGRwal+lwTpHD9rdm72wDyyKdIta9ty2268dQHx2UrrjQyrI9mirHh6U75vvOfJ+M3vdm97r7ha6ksBMAAADAvCB8aRF+kLCq02kYdq4flanTRqu2Misz+wb8Rl37F/aL9Q/olSkZ9AKTVRtk7PisVLxG5LlpGfMCiTbjChaD3/jdNSGj+jYW1VDesHNSZs6oZXdO1enZ2nhzDF9K6v12Z1hq3q8fkYlTajx69ucqUj4zI1P7RmRgX7DFGjnMubJMbnHnc5matnBD15/udlmzbUpKZgO+UpbZU5MytqVXenfXt5CTgouxtV7o0Cm9+ioHtdyc5X9eD3dKxrcPyPjp6sc9/jCddd8uXRtD615fRbK7FhisVOOuvy6j9ijkpNuO4uZhepu73Fb1y0R4nRq3NrVvmrBMg5LT9te+usvYD9xlqKn9wFwW7bdM2qcjSkHrvrb/djn7aPvVg8427E+3czXRYC1UuWpUrPnLmXFZ4+3jq/XyM/ZyfQw4UB1G+/IOd39JCF/WjhO+AAAAAC2A8KVF+I033ehaOyYlr9EWUjk64DY8V8rwcfdFw8zd3dXh2EIHR1n2f8ENCG4crwtw/MbvMn3bghpGKCgIyCt8Obdf+twGZ6c1WLCzD7Oi5sELXrrVMrLEFF7j1DL/SeIa4OX7+9wGcacMHE0fCfjDVBU3//66beuXiboP5RC+zE3JgLMe2qX/UMRUHB+Wlc40GFdAGfLa/nSt3BwdrMQvi2hFrXtz/9XbY+T+e7Df3Ua6LOFTRSZvcZfNygGZjLqqR60DL3yy7nvnZ2RsU490XdMvYyczLBwAAAAAhSF8aRG1xps9VKkpy/iN1YZXe2TjuU26d1pbvlV+A7q+4VZr/LZL3/0JzdOcwpfSTq/B3i+TWRrSdcM0gpeYACRuWpJEN8BL1SuF1HtZr8aoLfNeGT/nvmhTGpMe53O2hnsO4Uua9Tk3KQPOZ4x+WTy5bn/NLItoxax7Y7hJ+6+x/PoPhraSyoT0u+/17ovb93SA5U5Lin0PAAAAwMIjfGkRtcbbgExG/NXcU9rVU/1sqA8UOeE1ahMapEYjLxyw+A3MZQMylTAd+YQvRkNy86T7WjrBYVZkaqjLv/KkP6JPEcfpUel2Ptcu3dum0nVg7IpsgJf3S58zTLe/nAz8YX52zH4riicu+Jiv8EWmoqchz+2vqWURo4h1r6Tff0sy9tnqcOrW07HByFuJwmq3FhG+AAAAAIsB4UuL8BtvSY1OzX/MbPCWi1qDLPh0m3q1BnS4Aeg3MKP6lDHlEr5MyaB7tURSaBDmD/ML4zKt/r/acFXD2ZW0BCsyvb3b/3zb8u7qU2jirrRwRTbAMzScw/xhJoZPMcFHHuGLH4rEXL3hP2Wn/rajXLe/qD5lfHHLIk4B617xt8UrR2XGfc0uej2ZAU788lN41DQAAACwqBC+tIjocMIiouFVa7ylr8jGr6WBWSen8MVrRNfdhpHAH6bbSbHz/6rS9hsze3hE+gJP5WmXFWsHZOxo9BqIXD4RgVga6Zd5weGLvnpoy8rqe6sGZDKcvhkdCts6/Z3f7a/R8KUq13WvpN9/U4QvmQJYwhcAAABgMSB8aRHpG2/KJRq+ZL1dJzC/+uk8pyak3+0wVj+qOK2y+t7Iuu7go5SvGZEpy6U/kcvHXyfJt42F5RM45BG+KOenjMdEd0jnNX0yMDQo/dcbj7KOeNT5/G5/zYUvnlzWvZJ+/yV8AQAAAJYiwpcW4Te8Em9bUA7br7Lwb/sI9wWTQfrGr5IhfJne5l5RERO+JIUGYf4y00+GcRvLFbVsnH5HIp+2E6NSksmtPbWG+Cq1HENBSuTyaaIxnE/gkFP4olVmZHTtCvWZdml3A5e2ZSuk65o+GTkwE9lPyvxuf/mEL75m1r2Sa/jCbUcAAADAJYfwpUXUGl7Jt63M3N1V/Wy4kev3O2J/DHAa6Ru/SurwpSITm9zh1jVOZ2V8bfW9uqc3JbA3eCsyudkNeq4alZmMV6E4To+689Ve17CPXD6z45HfSZJP4JBX+KLWx40d6v1OGTiccSOa1+0v5/DF08i6V/IIX8xAZTx+IM4jq73PEr4AAAAArY/wpUXUwpekR00bjzQONwIrk+5tN0mPqo2WvvGrpH3CjzFdtsapHyY1/ahp13nVMF9VHV/a/l+CohvI0ctnRkavrL7X8KOmE5d5uvClJ6HD4djxeQFKYoe3FvO6/RUUvjS07mO2xTox4YuxPyUtv6kt3q1hhC8AAADAYkD40iJq4YvuU2NMShFXbOi/eFevLrCHNDN3d1eH08htN0r6xq82LcMrq5+3dcDqKe2qzZu1cepfQZMtLIlr8FaODrid8HaqxnnGGGGuNl/hToBTNcAzjjOfwMG4umh9fHASOz7v6gvd4e5sxuWmzN/2V1D40uy6byZ8UWtt8hY3VFHLf8rSr46jVNtfrOHL+WkZub5Luq7slZHj2dchAAAAgPwRvrQIv/G2vMPpd6LjmmGZPG00nCqzMr17g3R5nZ5GXZmgGo8jXoepy7pkw84pKZ2rfbKi5n/21KSMDfVJ9xfG6xqK6Ru/VaWdbmO7rUN6t6txBSZ5RiaG9GN926VzVVSfL1UlNf/VUKldujaOytTpslTcAKpyblZmDo3J4Dr1evUlR3yDtyJTQ53V95etkXGjgTq7t0/WbBmTieMlKYcWYmV2WsbWe9+rvxIndvkYTwPyl703grmKlM/MyOTuQem7O/jdvAKH8r7e6nDaOqX/gLFE1Li9ZanFjq8yJcOBpwCFq11WrO6V/p2TMmsLCOdt+2ssfClq3ecTvig6WPH28asHZeKUcQVMpSylQ8PSs1y9t6qz2reRJXypPfJb1dr6ZQwAAABg/hG+tAiv8aaf0lPa2xt4+kq4Om6MvjLGcX5GRp1+O+zf98vSUEzf+HWZgYO12qVraMq5EsX5d2TjtCLT240OT60V7Ig0scFbmZJB9/Yj82oi/3txtaxbhi1XDSQuH33VwTUJyz703dwCB33Vhju/wQo20GPHd25axrf0yIq6YVgq6uqMedn+GgxfClr3uYUvSuXooB+y2qp99aBa7t78J4QvidMDAAAAYD4QvrSIauNtpQyfcF84Mymjm3ql6wov2Kg+9jfuaTNhs0f11SI9xjBULe90nlozuHtSZs65HzSkb/wa5soyvW9Q+q7prIUnejzXD8j4cfcv96Ux6dGvJzQGKyV3vlcZjXdnWP0yeqAUuNonVYP3xLB7+1GbdN/tPkdqblamdo84j08OLBu9jK+sXtVhXsFjSrV85ipSOjTqDL9zuTfsNulY1SW9m0ZlwryiSck1cDg/I+NbjO3GeUrRoP80KC1qfH6jf1m3DKrtbPac2l/qquSs6243HFi5Nfq5RsVuf42FL0Wt+zzDF0d5WsaH+qTH3w+qVxwN7J5yrzgqydj/v733jY3izPc9j+5qr/bF/nm5L+5Ku1rp3BerlY729u5etUQEyohRjoboLg5SCLtBiQ53B/kqWY8PeBIcxAaTDB3C9eCAmQF8GCBh7CTEhCyYjUkm3pixgWlyjAnByWA8MBi4NJdc3yQ33CTnt/VUVVdXdz9dXV3d7adMfT7SR7Krq+vPU/XUn28/9dRP1XDNY0f3RqVbtT5SLY8+JHoBAAAAAIgDhC8AIIXOclcUAsAAvEec6nitNAAAAAAAQFIgfAEAkXPuY2FPDojbPigY77XIxY+CAQAAAAAAQDmELwBQw2MzDuqtWzWFNQAAAAAAAAmG8AUARC7sct429VBGRiu94jjP15el7ynV6iUlj/4dDx0BAAAAAABUg/AFAIrelJT+WZ9MlHbiqlAdCX8yIJvzr5Ku9LYjAAAAAAAAKILwBQAcbgzJet/bmdJ/vUpWPenqf/uU5ZLWPjnLi3QAAAAAAABCQfgCAAXsVzGr14YXvybbfmX1k2ulc/dROXvV995qAAAAAAAAqArhCwAAAAAAAABAEyF8AQAAAAAAAABoIoQvAAAAAAAAAABNhPAFAAAAAAAAAKCJEL4AAAAAAAAAADQRwhcAAAAAAAAAgCZC+GKYnaf/ESIiIiIiIiIuEKNA+GIY3YZERERERERExHgaBcIXw+g2JCIiIiIiIiLG0ygQvhhGtyERERERERERMZ5GgfAFAAAAAAAAAKCJEL4AAAAAAAAAADQRwhcAAAAAAAAAgCZC+AIAAAAAAAAA0EQIXwAAAAAAAAAAmgjhCwAAAAAAAABAEyF8AQAAAAAAAABoIoQvAAAAAAAAAABNhPAFAAAAAAAAAKCJEL4AAAAAAAAAADQRwhfDfPvttwtGXVkiIiIiIiIiJskoEL4YRhdyxFVdWSIiIiIiIiImySgQvhhGF3LEVV1ZIiIiIiIiIibJKBC+GEYXcsRVXVkiIiIiIiIiJskoEL4YRhdyxFVdWSIiIiIiIiImySgQvhhGF3LEVV1ZIiIiIiIiIibJKBC+GEYXcsRVXVkiIiIiIiIiJskoEL4YRhdyxFVdWSIiIiIiIiImySgQvhhGF3LEVV1ZIiIiIiIiIibJKBC+GEYXcsRVXVkiIiIiIiIiJskoEL4YRhdyxFVdWSIiIiKadOfOnYiJVVcnELH5RoHwxTC6kCOu6soSERER0aTqBhQgiRC+IJozCoQvhtGFHHFVV5aIiIiIJiV8gaRC+IJozigQvhhGF3LEVV1ZIiIiIpqU8AWSCuELojmjQPhiGF3IEVd1ZYmIiIhoUsIXSCqEL4jmjALhi2F0IUdc1ZUlIiIiokkJXyCpEL4gmjMKhC+G0YUccVVXloiIiIgmJXyBpEL4gmjOKBC+GEYXcsRVXVkiIiIimpTwBZIK4QuiOaNA+GIYXcgRV3VliYiIiGhSwhdIKoQviOaMAuGLYXQhR1zVlSUiIiKiSQlfIKkQviCaMwqEL4bRhRxxVVeWiIiIiCYlfIGkQviCaM4oEL4YRhdyxFVdWSIiIiKalPAFkgrhC6I5o0D4YhhdyBFXdWWJiIiIaFLCF0gqhC+I5owC4YthdCFHXNWVJSIiIqJJCV8gqRC+IJozCoQvhtGFHHFVV5aIiIiIJiV8gbqZG5We9nZp17lnXL5zR4sbhC+I5owC4YthdCFHFO9cOiV92zdIh3ui6Nj4qhw+c7N4vK9uypmBX0rXc/kTSp9k/Z9XUVeWiIiIiCYlfIG6ufi6dV3cKXuHspI9X+ylP3/jjhQ/CF8QzRkFwhfD6EKO2v1SzvRtkE3db8qpM2fkzJlTcuAlFa50yTtX3XG+uSZD26xh67qk78SoNY4a73O5UzatyurKEhERER9EczI50CWrH05JKpWWpW2DMqUdz7yEL1Avt4a2WNfNe2X8W3fAAoHwBdGcUSB8MYwu5IjkNyX/Z/vs1i19Wef/Ox+8av2/Vd77U8l4NagrS0RERDTtjPS3qpDEb1qWPr5GOvYMy9Rt3XeqeK5XlqVaJPPhjMxen5WpK7PuZ7Ny/IW0tOyZtP+f3NMi6ZdGJOf/7jxL+AL18Z2M72mX9pdPyC13yEKB8AXRnFEgfDGMLuSo27lrMrpng7RvPCATc2rYTafVS89HNbV0KVVXloiIiGhaJ3xZ85usHZTYXpmUscFeWfNwStLPDMqM9nuVnfzNSkm19mu+Vx6+LN5K+AILmS9koNO6Tn7jkvt/BW4PS6a9XfaeKe0Bxvl+55tfuP9bfDsue61x918Qmbt4RDLPqxbp7fL6RffzH+5K9u0e2eIOb39+i/S8d0nmfnA/DwnhC6I5o0D4YhhdyBHVaye2Ogdwy00978mnX+Y/y0qfGjbwkZz61SanX5h1HbL1jTNys7TFTIC6skRERETTOuFL68BM2We54S5JpVplcKZ4eDXHtqUktW1M+1ncJHyBunA7291+6q47QM93Z/Za19hb5MRNd0AeXSgzNSCd7Rk58v5+6ezIyP73xyV7/oJcVfdrP9yS4e3qWnyLOzwr4+/ttsZvl843LtXUuS/hC6I5o0D4YhhdyBHVr/404fTl8vGQ9Kk+X9a9KkP2Y0ZO+NLevkF2DWZl+s60ZAd3yQZr2NYT18qmU0ldWSIiIqJpK4cvcyMZSaU65PhsYdjMyEHpalspSxc5jygtXt4mvSPudz87bn3WIouLHmHKyFh+evdmZGRnm7TYfcGkJP3IaunYMyIz9wrTd+bRK23LF/umkbf2IKiahC9QF3Znu86Pl8Vul+E77jgWX7zZKe2dA+Jr32KjC2XuntruTGPrEbla0l+vPZ111rRLQpyrR1W/Mz0yWsM9HeELojmjQPhiGF3I0RBvn5JXrYP+ht9+av3vhi99Z3zjXJP3VEBTw6NIurJERERE0+rDl9xMVg4+k5aWHWNFjwWpjnT3DWZlyn5EaUpGtq2WVKpNBq9bn9/L2Y8tDb+UktRLw+5jTDnnu/empN+aXvqpbhm+6PYFc/qgbFyeksUvHJfZ/DzO90qL3V+M209MbkqOb14m6Q7fOA2U8AXqwelst0eOlLzlKHv+qhRur27JiZet62bNa6fLQxm3D5n2LXJsxh2Ux21ls+XoVXeAjwv7re90ysCU+38ICF8QzRkFwhfD6EKOhnh9SLZ64csd+ajHOgnsHJUvvXE+l3deLA1kgtWVJSIiIppW1+Gu5dLV0n1yqnp/LLlh6bLGz5wuDNM9dpT7sEvS+ZDGN3zu4kFZnVomveec/7O7l0mqtJ+Z86oD38a3elESvkB0Qna26/bhsmWodKxbMry1NJRx+5DRBDVOK5lN5aGM4rwKXzSPNQVA+IJozigQvhhGF3LU7oS803NAhj5Wr4/2PXbUvkEOX3TG+ervD9iPGXUdOmWPc+pQl/V5u/x67KuSaVVWV5aIiIhoWk2Hu9dnZPLDfsk8lZbFfzsoUyWPBRU7JpkQ4cvYjnR5qGI7Jf1rUrLyN04nvPZ4pa1cLh6UlSWPPzVKwheITsjOdu0+XDStUr78nWwvDWXuDNvDej4uvzlzWtnsl6ymY92rRzdZn9X2umvCF0RzRoHwxTC6kKN2p+VUz1bZ0KECF2WHbNjeJ6cu3Ska7+aZw7L1OXec57ZK38i0fOX7vJq6skRERETTBvT5cn1Q2lIp6TiWf1X0nMx86PT5srKkT5aq4UvFTnjdljf5z+zHjlpl33l3nvdmZWRbC48dQfwICEr83Ho/ow1G7EeOrO97bzFS2C1Y9K1bnPH3ywX3/wJ/lmNbrOvz10Z9jzpVh/AF0ZxRIHwxjC7kiKu6skRERETTBoQvbquW/GfZ3S2SWtQqvaenZPZ28TiNavminDq+UVrywc7DLdK2bbhK65voEr5AZAKCEj8XDqgfL4tDk28u7LffUFTaSa7dgmXd66JrSzP3cY89vyPT7gCXW++rDnpr6+9FQfiCaM4oEL4YRhdyxFVdWSIiIqJpw7Z8ccbzhyT+cRrV54uaz+AzLZIZcTvqbbKELxAV51Gf7XLkD6Wd7V6SW75WLnMjTjjSczQrX0xdkt/1Z6Tj5QE58Yb1/RePSaH73LvOa6QrtWD59pK8vtH6fONuOTZ2SS5dzDrTam+X7e9dLesjphqEL4jmjALhi2F0IUdc1ZUlIiIimtYJVcr7fDkoGx9PS2p5t4zl1Hg5GXlJ/d8lw585481cHJbupxZLelH18MUJVYrfdjRzrt9+21HRI0Uzg9KaWin7zvu/2zwJXyAaczL6mmq5orPkEaMfbsnonk12SNK+rkMy/Vm5+53bImZ/1h3J4oes7LfG2aR7m1GeuUty7LUt0rHOmVfHlh458oe7NQcvCsIXRHNGgfDFMLqQI67qyhIRERFN6/a5kn/MJ6/9uM+gZP2d3N7Oyr62Fllsj5OWpU91Sf/EjAxvDhO+WN6bkZE9HbL6kbQ9j/Qjq6Vjz4jMFD1SNCsjW1uKl8WbV+NbwxC+QFIhfEE0ZxQIXwyjCzniqq4sERERET3vTcng3y6V1TsGJeu2rrH9LCuD21ZLalFGxhrc9wvhCyQVwhdEc0aB8MUwupAjrurKEhEREdFzvFvSqYyM6AIW+3XTrTI4o/msDglfIKkQviCaMwqEL4bRhRxxVVeWiIiIiJ6fqc53W6RrcFJm7H5mLHP5vmXSTXndNOELJBXCF0RzRoHwxTC6kCOu6soSERER0e/s+UHJeP3KKBdLy6o2yQxmZbYJr5smfIGkQviCaM4oEL4YRhdyxFVdWSIiIiKalPAFkgrhC6I5o0D4YhhdyBFXdWWJiIiIaFLCF0gqhC+I5owC4YthdCFHXNWVJSIiIqJJCV8gqRC+IJozCoQvhtGFHHFVV5aIiIiIJiV8gaRC+IJozigQvhhGF3LEVV1ZIiIiIpqU8AWSCuELojmjQPhiGF3IEVd1ZYmIiIhoUsIXSCqEL4jmjALhi2F0IUdc1ZUlIiIiokkJXyCpEL4gmjMKhC+G0YUccVVXloiIiIgmJXyBpEL4gmjOKBC+GEYXcsRVXVkiIiIimpTwBZIK4QuiOaNA+GIYXcgRV3VliYiIiGhSdQOKmFR1dQIRm28UCF8Mows54qquLBERERERERGTZBQIXwyjCzniqq4sEREREREREZNkFAhfDKMLOeKqriwRERERERERk2QUCF8Mows54qquLBERERERERGTZBQIXwyjCzniqq4sEREREREREZNkFAhfDKMLOeKqriwRERERERERk2QUCF8Mows54qquLBERERERERGTZBQIXwyjCzniqq4sEREREREREZNkFAhfDKMLOeKqriwRERERERERk2QUCF8AAAAAAAAAAJoI4QsAAAAAAAAAQBMhfAEAAAAAAAAAaCKELwAAAAAAAAAATYTwxTC6jm3jqq4sEREREREREZNkFAhfDKMLOeKqriwRERERERERk2QUCF8Mows54qquLBERERERERGTZBQIXwyjCzniqq4sEREREREREZNkFAhfDKMLOeKqriwRERERERERk2QUCF8Mows54qquLBERERERERGTZBQIXwyjCzniqq4sEREREREREZNkFAhfDKMLOeKqriwRERERERERk2QUCF8Mows54qquLBERERERERGTZBQIXwyjCzniqq4sEREREU26c+dOxMSqqxOI2HyjQPhiGF3IEVd1ZYmIiIhoUnUDCpBECF8QzRkFwhfD6EKOuKorS0RERESTEr5AUiF8QTRnFAhfDKMLOeKqriwRERERTUr4AkmF8AXRnFEgfDGMLuSIq7qyRERERDQp4QskFcIXRHNGgfDFMLqQI67qyhIRERHRpIQvkFQIXxDNGQXCF8PoQo64qitLRERERJMSvkBSIXxBNGcUCF8Mows54qquLBERERFNSvgCSYXwBdGcUSB8MYwu5IirurJERERENCnhCyQVwhdEc0aB8MUwupAjrurKEhEREdGkhC+QVAhfEM0ZBcIXw+hCjriqK0tEREREkxK+QFIhfEE0ZxQIXwyjCzniqq4sEREREU1K+AJJhfAF0ZxRIHwxjC7kiKu6skREREQ0KeELJBXCF0RzRoHwxTC6kCOu6soSERER0aSEL5BUCF8QzRkFwhfD6EKOuKorS0RERESTEr5AUiF8QTRnFAhfDKMLOeKqriwRERERTUr4AnUzNyo97e3SrnPPuHznjhY3CF8QzRkFwhfD6EKOKN65dEr6tm+QDvdE0bHxVTl85mbxeF/dlDMDv5Su5/InlD7J+j+voq4sEREREU1K+AJ1c/F167q4U/YOZSV7vthLf/7GHSl+EL4gmjMKhC+G0YUctfulnOnbIJu635RTZ87ImTOn5MBLKlzpkneuuuN8c02GtlnD1nVJ34lRaxw13udyp2xaldWVJSIiIjbXmYFWSbX2y4zmM9OGX7YxyaRSkjmt+6w+CV+gXm4NbbGum/fK+LfugAUC4QuiOaNA+GIYXcgRyW9K/s/22a1b+rLO/3c+eNX6f6u896eS8WpQV5aIiIjJdEb6W1OS3jZW/tn5XlmWSsnqQ1MVPlspBy+WDA+Q8CVYwheoj+9kfE+7tL98Qm65QxYKhC+I5owC4YthdCFH3c5dk9E9G6R94wGZmFPDbjqtXno+qqmlS6m6skREREyqk79ZKamf9EpWNzyV0oYSlb4TJOFLsIQvUB9fyECndZ38xiX3/wrcHpZMe7vsPVPaA4zz/c43v3D/t/h2XPZa4+6/IDJ38Yhknlct0tvl9Yvu5z/clezbPbLFHd7+/Bbpee+SzP3gfh4SwhdEc0aB8MUwupAjqtdObHUO4Jabet6TT7/Mf5aVPjVs4CM59atNTr8w6zpk6xtn5GZpi5kAdWWJiIiYWLWtWJwWMa07uqU11Sr9V/yfzcrxjgqtZQIkfAmW8AXqwu1sd/upu+4APd+d2WtdY2+REzfdAXl0oczUgHS2Z+TI+/ulsyMj+98fl+z5C3JV3a/9cEuGt6tr8S3u8KyMv7fbGr9dOt+4VFPnvoQviOaMAuGLYXQhR1S/+tOE05fLx0PSp/p8WfeqDNmPGTnhS3v7Btk1mJXpO9OSHdwlG6xhW09cK5tOJXVliYiImFjvjUlmUUo6js0Whl3pl1Y7kJmUg6tS0jbo+yw3LF2plHQN53zjj0hvW4ssVi1lUmlZ+lSH7BuZKXxumQ84suf7peuppZJW4y5aKqs398vk7cJ4zrwzMnZ7Uvo3r5al1rI50+yS/gnfPC1zE75pFZmW7nF3vHuzkh3oktWPpO3PFi9vk94P9ctWFL7MZn3zXywtbb0yMjNC+ALxxO5s1/nxstjtMnzHHcfiizc7pb1zQHztW2x0oczdU9udaWw9IldL+uu1p7POmnZJiHP1qOp3pkdGa7inI3xBNGcUCF8Mows5GuLtU/KqddDf8NtPrf/d8KXvjG+ca/KeCmhqeBRJV5aIiIjJNSfDm1OS2jwsOXfY7LEOSa06KJPW3/YjRh3HZTY//ni3pFMdcnzW/f/zfmldlJbVO4Zl8sqszF6fkrFDG6UltVg2Hi+ENnbAYY23+KluGb44Y403KzMXB6VreUrSL41483bCl2WybPlq6T45KTPWeLNXJmXwpRbr+10yknPHu35cOqzptR6elNw9638VsvRZ81jeK1n1vz29nIxts763fKP0n3PmOfVht6y2vucPm8rCl3tZ6VXLZS3ryGdqnazvnd4nbY+k7aCH8AXihtPZbo8cKXnLUfb8VSncXt2SEy9b182a106XhzJuHzLtW+TYjDsoj9vKZsvRq+4AHxf2W9/plIEp9/8QEL4gmjMKhC+G0YUcDfH6kGz1wpc78lGPdRLYOSpfeuN8Lu+8WBrIBKsrS0RExCRrhy2LumXM/t95rGjZ7qzzuf1YUiFsscOYNf0yZY+bk5GX0pL628FCOOM6+ZvVTr8wbhBiBxypNhm8XjxebrjLGp5x521phy8lrW2UboubfPBRvMyus8elw9/q5bODsjq1THrP+caxnOwr7rOmNHyxp61b1pMb7dYzhC8QL0J2tuv24bJlqHSsWzK8tTSUcfuQ0QQ1TiuZTeWhjOK8Cl80jzUFQPiCaM4oEL4YRhdy1O6EvNNzQIY+Vq+P9j121L5BDl90xvnq7w/Yjxl1HTplj3PqUJf1ebv8euyrkmlVVleWiIiIifbzflmT7/fFDjnShYBBtQL5Sf4xI6cvGC+YmRuT7kUpaX27+DEeW/80rf/tgMNtTVM03umMJnzRvUmpuL+Vmbet6ZV2+msv+zLpPe8bxz/tvPY8W2Vwxh2vJHwZ25GW1DOD5X3AuMEQ4QvEi5Cd7dp9uGhapXz5O9leGsrcGbaH9XxcfnPmtLLZL1lNx7pXj26yPqvtddeEL4jmjALhi2F0IUftTsupnq2yoUMFLsoO2bC9T05dulM03s0zh2Xrc+44z22VvpFp+cr3eTV1ZYmIiJhsnYCldWDGDibSizIy5j26Mydj29LOY0luy5JC+BDQAW1JUFH2aE9ebfhS2smvsmRe9mNHy6TruBv83MvJ5OFWSfseO3Ja2/j7gvFbmEdZ+LLN+lzboTAd7kIMCQhK/Nx6P6MNRuxHjqzve28xUtgtWPStW5zx98sF9/8Cf5ZjW6zr89dGfY86VYfwBdGcUSB8MYwu5IirurJERERMuvmAZWz3sqL+X5S5D7skrR7xsft76ZLhfL8rtbZ8aWT4Ypkb75U1S90wRXXe+/xBGcv3RWNpt3xZ0Stjqt8YjXZfMWo8Xfji7+cm78wgLV8gfgQEJX4uHFA/XhaHJt9c2G+/oai0k1y7Bcu610XXlmbu4x57fkem3QEut95XHfTW1t+LgvAF0ZxRIHwxjC7kiKu6skREREy6dt8rP9koG58pefOR0n6cZ410vbSmJJSosc+XhoYvORnb0SKth6d845Ro9/myWvMIU7Gly+b0J9Mlw/63MFnaIRThC8QM51Gf7XLkD6Wd7V6SW75WLnMjTjjSczQrX0xdkt/1Z6Tj5QE58Yb1/RePSaH73LvOa6QrtWD59pK8vtH6fONuOTZ2SS5dzDrTam+X7e9dLesjphqEL4jmjALhi2F0IUdc1ZUlIiJi4rUfKVKtSHxvMvJ034hkfW4/muT/7MpgyduOZiQ7oN52VOWNQnkjhy9Oqxv/G5XKdd929PAa6c2/Oen6lGRP9kv37mFvWcqWLWdNW73t6JleGfPednRQNv60xVovwheIE3My+ppquaKz5BGjH27J6J5NdkjSvq5DMv1Zufud2yJmf9YdyeKHrOy3xtmke5tRnrlLcuy1LdKxzplXx5YeOfKHuzUHLwrCF0RzRoHwxTC6kCOu6soSERERnc50tQGJpfMGIF1HuJYzI7Lv+dWydJEKaNKy9KkO2TdSHNI0PnyZs/t4WWoHRgUXL2+T3qJ552RyMCNtyxe741jL93ibZI5Neo9WaZdtdkwOeuu0WFraemVkZkr61xC+ADQSwhdEc0aB8MUwupAjrurKEhEREReS6pGjlbLyhYMycnHG68Nl9sqkjPymQ5Zpw5t4S/gCSYXwBdGcUSB8MYwu5IirurJERETEBaTd8e0a6f9c85n7quzucc1nMZbwBZIK4QuiOaNA+GIYXcgRV3VliYiIiAvI3Ih0LUpL6+4xmcp3insvJ7OfjcnBF1ok5Xvd9EKR8AWSCuELojmjQPhiGF3IEVd1ZYmIiIgLzCv+fmbyfbmskY49IzKzwIIXJeELJBXCF0RzRoHwxTC6kCOu6soSERER0aSEL5BUCF8QzRkFwhfD6EKOuKorS0RERESTEr5AUiF8QTRnFAhfDKMLOeKqriwRERERTUr4AkmF8AXRnFEgfDGMLuSIq7qyRERERDQp4QskFcIXRHNGgfDFMLqQI67qyhIRERHRpIQvkFQIXxDNGQXCF8PoQo64qitLRERERJMSvkBSIXxBNGcUCF8Mows54qquLBERERFNSvgCSYXwBdGcUSB8MYwu5IirurJERERENCnhCyQVwhdEc0aB8MUwupAjrurKEhEREdGkhC+QVAhfEM0ZBcIXw+hCjriqK0tEREREk6obUMSkqqsTiNh8o0D4YhhdyBFXdWWJiIiIiIiImCSjQPhiGF3IEVd1ZYmIiIiIiIiYJKNA+GIYXcgRV3VliYiIiIiIiJgko0D4YhhdyBFXdWWJiIiIiIiImCSjQPhiGF3IEVd1ZYmIiIiIiIiYJKNA+GIYXcgRV3VliYiIiIiIiJgko0D4YhhdyBFXdWWJiIiIiIiImCSjQPhiGF3IEVd1ZYmIiIiIiIiYJKNA+GIYXcgRV3VliYiIiIiIiJgko0D4AgAAAAAAAADQRAhfAAAAAAAAAACaCOELAAAAAAAAAEATIXwBAAAAAAAAAGgihC+G0XVsG1d1ZYmIiIiIiIiYJKNA+GIYXcgRV3VliYiIiIiIiJgko0D4YhhdyBFXdWWJiIiIiIiImCSjQPhiGF3IEVd1ZYmIiIiIiIiYJKNA+GIYXcgRV3VliYiIiIiIiJgko0D4YhhdyBFXdWWJiIiIiIiImCSjQPhiGF3IEVd1ZYmIiIiIiIiYJKNA+GIYXcgRV3VliYiIiIiIiJgko0D4YhhdyBFXdWWJiIiIiIiImCSjQPhiGF3IEVd1ZYmIiIho0p07dyImVl2dQMTmGwXCF8PoQo64qitLRERERJOqG1CAJEL4gmjOKBC+GEYXcsRVXVkiIiIimpTwBZIK4QuiOaNA+GIYXcgRV3VliYiIiGhSwhdIKoQviOaMAuGLYXQhR1zVlSUiIiKiSQlfIKkQviCaMwqEL4bRhRxxVVeWiIiIiCYlfIGkQviCaM4oEL4YRhdyxFVdWSIiIiKalPAFkgrhC6I5o0D4YhhdyBFXdWWJiIiIaFLCF0gqhC+I5owC4YthdCFHXNWVJSIiIqJJCV8gqRC+IJozCoQvhtGFHHFVV5aIiIiIJiV8gaRC+IJozigQvhhGF3LEVV1ZIiIiIpqU8AWSCuELojmjQPhiGF3IEVd1ZYmIiIhoUsIXSCqEL4jmjALhi2F0IUdc1ZUlIiIiokkJXyCpEL4gmjMKhC+G0YUccVVXloiIiIgmJXyBpEL4gmjOKBC+GEYXcsRVXVkiIiIimpTwBZIK4QuiOaNA+GIYXcgRV3VliYiIiGhSwheom7lR6Wlvl3ade8blO3e0uEH4gmjOKBC+GEYXckTxzqVT0rd9g3S4J4qOja/K4TM3i8f76qacGfildD2XP6H0Sdb/eRV1ZYmIiIhoUsIXqJuLr1vXxZ2ydygr2fPFXvrzN+5I8YPwBdGcUSB8MYwu5KjdL+VM3wbZ1P2mnDpzRs6cOSUHXlLhSpe8c9Ud55trMrTNGrauS/pOjFrjqPE+lztl06qsriwRERExmmPbUpLaNqb9zO/MQKukWvtlRvMZEr5A/dwa2mJdN++V8W/dAQsEwhdEc0aB8MUwupAjkt+U/J/ts1u39GWd/+988Kr1/1Z5708l49WgriwRERFDe29GRvZ0yOpH0pJKpSwXS8uqNuk6NCazuvEfcAlfGiPhC9THdzK+p13aXz4ht9whCwXCF0RzRoHwxTC6kKNu567J6J4N0r7xgEzMqWE3nVYvPR/V1NKlVF1ZIiIihjMnw5vTknp4jfQOjsnklVmZOjciwwPd0rF7RHL58e6NSWZRRsaKvvtgSvjSGAlfoD6+kIFO6zr5jUvu/xW4PSyZ9nbZe6a0Bxjn+51vfuH+b/HtuOy1xt1/QWTu4hHJPK9apLfL6xfdz3+4K9m3e2SLO7z9+S3S894lmfvB/TwkhC+I5owC4YthdCFHVK+d2OocwC039bwnn36Z/ywrfWrYwEdy6lebnH5h1nXI1jfOyM3SFjMB6soSERExlLPHpSOVkq7hnP7zvKczkk4RvvglfAmW8AXqwu1sd/upu+4APd+d2WtdY2+REzfdAXl0oczUgHS2Z+TI+/ulsyMj+98fl+z5C3JV3a/9cEuGt6tr8S3u8KyMv7fbGr9dOt+4VFPnvoQviOaMAuGLYXQhR1S/+tOE05fLx0PSp/p8WfeqDNmPGTnhS3v7Btk1mJXpO9OSHdwlG6xhW09cK5tOJXVliYiIGEo3fMmMaD6znZWRf71aFtuPIxVsHZjxxpk93y9dTy2VtPrs4RZp2zkiM/d80zidsb7TKv1XfMNsxyRjfSdz2jfs3qxkB7q8R6AWL2+T3g8L81KqcETNPzdhzffJxd7y2GGIWoZSfUFKbmJQup9fIy0PO5+lH1ktXQOThRY+7vRT26x1+LBX2pY709etV1n4Eno91f/WeJ/PyMjONm9Z7HUdKV7XuduT0r95tSxd5IzjN72jsF5Vt8GVfmlV4VnR9NKy9Kku6Z+oErxFlPAF6sLubNf58bLY7TJ8xx3H4os3O6W9c0B87VtsdKHM3VPbnWlsPSJXS/rrtaezzpp2SYhz9ajqd6ZHRmu4pyN8QTRnFAhfDKMLORri7VPyqnXQ3/DbT63/3fCl74xvnGvyngpoangUSVeWiIiI4ZyV4x1pSS3vkuHPK9+EO8FGecuX3OmMtKRaZONAVmauz8rsZyPS/VRa0h3HC/3FhA4lcjK2rcValo3Sf25GZq3pTX3YLasXpaXj2Kz3PRWOrNmakdbHN8rBDyet+U5Z5qfh8/N+aV3UYk2/sF6zJ3slMzBiP141e31Gsoc7ZFlqmfSeK3zPDl+sea584aCMfabGs5bjdK81rZSsPjTljVdf+JKSZT9ZLRsPjcmUKjdrHcZ2t0o6tVoOfpYfz9k26Wf6ZTLnDJs9t09arfLuPZ8fJ+Q2sMOXZbJs+WrpPqnKzBrvyqQMvmSV96IuGXGn30gJX6AenM52e+RIyVuOsuevSuH26paceNm6bta8dro8lHH7kGnfIsdm3EF53FY2W45edQf4uLDf+k6nDEy5/4eA8AXRnFEgfDGMLuRoiNeHZKsXvtyRj3qsk8DOUfnSG+dzeefF0kAmWF1ZIiIihla1hti00rrxT8vSZ7rkoHVzPutvNWGpD1+m5OCTKVm2M+sbZjmxT1aqQCMfEIQNJT47KKtLghDlZN9KSf2kV7Lu/3Y4YrccKR6vyHtT0t+akpYdY0WtWsqdlIOrilvy2NNX8yspg8nfWMvhC1vqDl9Ky610WexWSWnpHvePowIZf6uXkNvADl9S0jZYCLFsc8PSVbRsjZPwBaITsrNdtw+XLUOlY92S4a2loYzbh4wmqHFayWwqD2UU51X4onmsKQDCF0RzRoHwxTC6kKN2J+SdngMy9LF6fbTvsaP2DXL4ojPOV39/wH7MqOvQKXucU4e6rM/b5ddjX5VMq7K6skRERKzV3OdZGVRvPVKPwTy8RvadK7QY0YYvM4P2DX35jbsTLrS+7YYIIUOJmbf1rWvy3x+ccf63w5HNw4GhSnZ3i6SePCiTJQFKuTN2SFMWvmimXxq21Bu+lPezU7Isdvn6AhRb1UFySpbtdsOWsNvADl9WysGL+vEIXyBehOxs1+7DRdMq5cvfyfbSUObOsD2s5+PymzOnlc1+yWo61r16dJP1WW2vuyZ8QTRnFAhfDKMLOWp3Wk71bJUNHSpwUXbIhu19curSnaLxbp45LFufc8d5bqv0jUzLV77Pq6krS0RExMjem5Fh+3GUjXJ81hmmDV/c1hSlfZHk9UKEsOGLPQ/9tPzft8ORgA5xc+Pd0rLIGl/TMmb2vNPny8rH3f5RXMvCF830Gx2+lAcepUGQ89jRss3Hvf5bchedR6lKW7QUl1VBb1r2eGGWrXESvkBkAoISP7fez2iDEfuRI+v73luMFHYLFn3rFmf8/XLB/b/An+XYFuv6/LVR36NO1SF8QTRnFAhfDKMLOeKqriwRERHr0r2pLw5GdC1fWqT3tNMvSpn5fkQqhRKl81AtX1b0yphuWpY5N4AIDF9uj0lmeVpaBwp9s+SdPdYhaWt5uwYnZWY23+qkQsuXRoYvJesZPnyxtNand81SN0xRHeR2yMFx36NDYbcB4QssJAKCEj8XDqgfL4tDk28u7LffUFTaSa7dgmXd66JrSzP3cY89vyPT7gCXW++rDnpr6+9FQfiCaM4oEL4YRhdyxFVdWSIiItZlSZ8h+keCnP5GVv9m0jdM4/leWZZaU9YSJTfcZbc+8W787T5fVmsejSm2cviSk5Gty4o7mvVpf6/0caJ7Wen9SYPCl7DrWUP4YrfiseYxVfHxqZDbgPAFFhDOoz7b5cgfSjvbvSS3fK1c5kaccKTnaFa+mLokv+vPSMfLA3LiDev7Lx6TQve5d53XSFdqwfLtJXl9o/X5xt1ybOySXLqYdabV3i7b37ta1kdMNQhfEM0ZBcIXw+hCjriqK0tERMRQju+Tts0HZfDDrPfWnezJg7JxeUrSzwyWBAvLpOv4lNOi4rYz3HnTzmJZs3PYfYPQrEydG5b+Hb0y7PbRkg84lnX0SzY/jnqL0eMt1nf9N/7u244eXiO9+Tfy2MvTL927h71lqRSO2C1bfpKREXfZSp06tFpSi1rloPsmpdnPxuTgCyslvahB4Uvo9QwfvoztSEvqheNlHSD7DbUNCF9gwTAno6+plis6Sx4x+uGWjO7ZZIck7es6JNOflbvfuS1i9mfdkSx+yMp+a5xNurcZ5Zm7JMde2yId65x5dWzpkSN/uFtz8KIgfEE0ZxQIXwyjCzniqq4sERERQ3llWDJtK6VFdbJr3YQrFy9vk8zAmNfPiGNOsnva3PHSsnR3IZzITQxa02iRxe7304+slLZtx73XI9t+Zs3nmXw/K4ulpa1XRmact/sU3/jnZHIwI23LF7vLY83rcWt5jk16LVb04YgTXOTXoch8QHJvSo5vXi1LFznD1Xr2jszYbzFqSPiiDLWe4cOXOdXHy1J3PfI+3CJtO0eKtk/VbUD4AjBvEL4gmjMKhC+G0YUccVVXloiIiLiwzZ3ulpWPb5SDH+ZbASlnZPLDg9JR8qhUHCV8gaRC+IJozigQvhhGF3LEVV1ZIiIi4kJ2RgafScmaw+UdB+dfN53eUd46J04SvkBSIXxBNGcUCF8Mows54qquLBEREXEhm5ORl9KSfqZXxj7Lv5lpTnLXp2Ts0EZpUW84yr9uOqYSvkBSIXxBNGcUCF8Mows54qquLBEREXGBe29GRvZ0yOpH0l5/L6ovlzXP75ORsr5b4ifhCyQVwhdEc0aB8MUwupAjrurKEhEREdGkhC+QVAhfEM0ZBcIXw+hCjriqK0tEREREkxK+QFIhfEE0ZxQIXwyjCzniqq4sEREREU1K+AJJhfAF0ZxRIHwxjC7kiKu6skREREQ0KeELJBXCF0RzRoHwxTC6kCOu6soSERER0aSEL5BUCF8QzRmFv1BBRBKNC7qQI67qdjpEREREkxK+QFIhfEE0ZxRo+WIYXcgRV3VliYiIiGhSwhdIKoQviOaMAuGLYXQhR1zVlSUiIiKiSQlfIKkQviCaMwqEL4bRhRxxVVeWiIiIiCZVN6CISVVXJxCx+UaB8MUwupAjrurKEhERERERETFJRoHwxTC6kCOu6soSERERERERMUlGgfDFMLqQI67qyhIRERERERExSUaB8MUwupAjrurKEhERERERETFJRoHwxTC6kCOu6soSERERERERMUlGgfDFMLqQI67qyhIRERERERExSUaB8MUwupAjrurKEhERERERETFJRqHm8KV7OCt/ufmw/MUzu2OhWha1TLplrSThSzR1ZYmIiIiIiIiYJKNQU/iiQo6/2vqm/P7qLffr5lHLopaplgCG8CWaurJERERERERETJJRqCl8Ua1M4hS85FHLpJZNt8w6CV+iqStLRERERERExCQZhZrCF/WYT1xRy6ZbZp1xCl8AAAAAAAAA4MGG8AUAAAAAAAAAoIkQvgAAAAAAAAAANBHCFwAAAAAAAACAJkL4Yhhdx7ZxVVeWiIiIiIiIiEkyCoQvhtGFHHFVV5aIiIiIiIiISTIKhC+G0YUccVVXloiIiIiIiIhJMgqEL4bRhRxxVVeWiIiIiIiIiEkyCvMSvvzu8xuBXsn9O3fM6BC+NF9dWSIiIiIiIiImySjMS/iivhfkf75un5yevumOHQ01Hd0y6yR8iaauLBERERERERGTZBTmLXw5f/2O+18xqVfelv/hpX75z9r3yMgXs+7Q2iF8ab66skRERERERERMklGIRfiy7/efydqBETuA+WDqz+4ntUH40nx1ZYmIiIiIiIiYJKMQi/Dln3b9VhbveFf+cduv7QAmCoQvzVdXloiIiIiIiIhJMgrzFr5kr+nDl1+f/lQ2nThn+y9/+1Fd89Ats07Cl2jqyhIRERHRpDt37kRMrLo6gYjNNwrzFr784dq/cf+rzLk//RvClxirK0tEREREk6obUIAkQviCaM4oEL4YRhdyxFVdWSIiIiKalPAFkgrhC6I5o0D4YhhdyBFXdWWJiIiIaFLCF0gqhC+I5oyC8Q53/RC+xFtdWSIiIiKalPAFkgrhC6I5o0DLF8PoQo64qitLRERERJMSvkBSIXxBNGcUCF8Mows54qquLBERERFNSvgCSYXwBdGcUSB8MYwu5IirurJERERENCnhCyQVwhdEc0aB8MUwupAjrurKEhEREdGkhC+QVAhfEM0ZBcIXw+hCjriqK0tEREREkxK+QFIhfEE0ZxQIXwyjCzniqq4sEREREU1K+AJJhfAF0ZxRmLfwJfXK27J4x7uB/rNX3iJ8ibG6skREREQ0KeELJBXCF0RzRmFewpdNJ87VZBQIX5qvriwRERERTUr4AkmF8AXRnFGYl/BlPiB8ab66skREREQ0KeELJBXCF0RzRoHwxTC6kCOu6soSERER0aSEL5BUCF8QzRkFwhfD6EKOuKorS0RERESTEr5A3cyNSk97u7Tr3DMu37mjxQ3CF0RzRoHwxTC6kCOKdy6dkr7tG6TDPVF0bHxVDp+5WTzeVzflzMAvpeu5/AmlT7L+z6uoK0tEREREkxK+QN1cfN26Lu6UvUNZyZ4v9tKfv3FHih+EL4jmjALhi2F0IUftfiln+jbIpu435dSZM3LmzCk58JIKV7rknavuON9ck6Ft1rB1XdJ3YtQaR433udwpm1ZldWWJiIiIaFLCF6iXW0NbrOvmvTL+rTtggUD4gmjOKBC+GEYXckTym5L/s31265a+rPP/nQ9etf7fKu/9qWS8GtSVJSIiPuDOjMi+51fL0kUpSaUsH26RlW1dcvD0rH58xHmW8AXq4zsZ39Mu7S+fkFvukIUC4QuiOaNA+GIYXchRt3PXZHTPBmnfeEAm5tSwm06rl56PamrpUqquLBER8QH29rB0LUrJ4p/2yuDpSZm5PiXZD4elf0eH9I7kCuNd6ZfW1n6Z8X83gY5tS0vmtP6zas4MtErrwEzZ8HqmmRQJX6A+vpCBTus6+Y1L7v8VsI6HmfZ22XumtAcY5/udb37h/m/x7bjstcbdf0Fk7uIRyTyvWqS3y+sX3c9/uCvZt3tkizu8/fkt0vPeJZn7wf08JIQviOaMAuGLYXQhR1SvndjqHMAtN/W8J59+mf8sK31q2MBHcupXm5x+YdZ1yNY3zsjN0hYzAerKEhERH1xnj3VIKtUlwzn953lVcJBKevhyb0wyi1IRg5IZ6W9NlYcvdU0zORK+QF24ne1uP3XXHaDnuzN7rWvsLXLipjsgjy6UmRqQzvaMHHl/v3R2ZGT/++OSPX9Brqr7tR9uyfB2dS2+xR2elfH3dlvjt0vnG5dq6tyX8AXRnFGoKXz5y82H5fdX49cgTy2TWjbdMut8UMOXr/404fTl8vGQ9Kk+X9a9KkP2Y0ZO+NLevkF2DWZl+s60ZAd3yQZr2NYT18qmU0ldWSIi4oOrE75kZOSe/vO5uSnpf2appNXjSD69sODerGQHumT1I2l7+OLlbdL7YXHAMLbN+o4uuDmdsec95h92b0ZGdrZJy8NqPmlZ+lSX9J/3P/40JplUq/Rfycmkmq89nvrf/fzKiPS2tchitZyLlsrqzf2Snc1/t8r33XmvdNdFfV89fjU4kZPZD7vdcX3m10l971CXtD2eL6fF0tLWKyMz7jw/65fW/DQ9M/Jh0DTtsvGtl6dafn9Y467P5/5yc7fDSEnQc3tS+jf7Hi/zmd4x5o03e75fup5y1+XhFmnbOSIz/v1DtYJS261oeu62ssrKG6+BEr5AXdid7To/Xha7XYbvuONYfPFmp7R3DoivfYuNLpS5e2q7M42tR+RqSX+99nTWWdMuCXGuHlX9zvTIaA33dIQviOaMQk3hS/dwVv5q65uxCmDUsqhlUsumW2adD/xjR8rbp+RV66C/4befWv+74UvfGd841+Q9FdDU8CiSriwREfEB9vpx6bBunlteGpapgNYv+gAlZw1vkdTyjdJ/bkZmr8/KlAoUFqWl41ghMAkdvtxTQU9a0k91y8hns9b0ZiQ7sFFaUi3Sez7/PRU2rJHMtlZZ+cJBGblozfczS/XZ5/3Sas179Y4RmbKWZfZKVvpfUMvXK1kvPKj8/ezuFt+8LT/LyuChgzJ23f2uHTroWqmoEGKfDJ6bcr83IpknrXX+20FnuWyd0KSs5UuladYUvqRk2U9Wy8ZDY856X5+Ssd2tkk6tloOf5cebleMdVtk+0y+T7naePbfPmre/bOckZ81XlffGgazMuOvS/ZT1vY7jhXWxl3mZLFu+WrpPqkfVrPGuTMrgS1ZZL+qSkSqtqKJI+AL14HS22yNHSt5ylD1/VQq3V7fkxMvWdbPmtdPloYzbh0z7Fjk24w7K47ay2XL0qjvAx4X91nc6ZWDK/T8EhC+I5oxCTeGLUoUcqpWJeswnDqplqSV4USYifLk+JFu98OWOfNRjnQR2jsqX3jifyzsvlgYywerKEhERH2xzE/2y8fG03dKjdfNBGb5Y3tGuNkD57KCstm7Ce8/5hllO9q2U1E96Jev+HzZ8yX3YJelUmwzmww7bnAy/YH3fu/l3wgY1vami1jo5GXnJWoeiwMPy9rBstMYvhEGVvj8jg8+kZGXfpG9YiRXDl3Jzw13FwVKzw5edpddJk3JwlW9+s8elI5WW7nH/OCqQ8bd6mZKDT2qmNbFPVqrtnA9p3GVuGyzZT3LD0qVblwZI+ALRCdnZrtuHy5ah0rFuyfDW0lDG7UNGE9Q4rWQ2lYcyivMqfNE81hQA4QuiOaNQc/jyIPjghS8T8k7PARn6WL0+2vfYUfsGOXzRGeervz9gP2bUdeiUPc6pQ13W5+3y67GvSqZVWV1ZIiJiAryXk6lzg/Zbj9QjO4t/uk+ytwuf6wKUmbdbSwIGVzc4GHQfuwkbvoztSGvHs/ubWdTtjueEDV3DpY+3jEn3Ik244fa1UggYKn0/3+pjsazZ1i9jn2sen6khfCldt/x8mxW+lK9PSR8zM4PWfHwBim1OhjenZNluN2yxx9Gtn7vsb7vTspd5pRy8qB+P8AXiRcjOdu0+XDStUr78nWwvDWXuDNvDej4uvzlzWtnsl6ymY92rRzdZn9X2umvCF0RzRoHwxTC6kKN2p+VUz1bZ0KECF2WHbNjeJ6cu3Ska7+aZw7L1OXec57ZK38i0fOX7vJq6skRExIR5ZVi6lqck/ULhURNt+KJCEetmW28hOAgdvqjxtNNS5serdIPvDNd/13JbcfhSMSC4Mib921rtfkzSj7QW919TKSjJ9/myaqXX54rj/IUv5etT2sGv89jRss3Hvf5bcheteS/yPXbkLktRufn0pmWPF2bZGifhC0QmICjxc+v9jDYYsR85sr7vvcVIYbdg0bduccbfLxfc/wv8WY5tsa7PXxv1PepUHcIXRHNGgfDFMLqQI67qyhIREZOnE6yUBCO6li8remXM7mek3Jx7k18pfCmbh2r58vyg229JqfmWHZVu8J2WLx2Dbr8rpXqteEIGBHZHwhtlpb//Gl1Qci8rvSqoesYqh88K69y0li9l44cNXyxvj0nvmqV2kOJ0kNshB8d9jw7ZLV9apPe0pvyU+b5cCF9gIREQlPi5cED9eFkcmnxzYb/9hqLSTnLtFizrXhddW5q5j3vs+R2Zdge43HpfddBbW38vCsIXRHNGgfDFMLqQI67qyhIREZNnWb8tukeC7D5fVmsePyk2u3uZpNb0y1TRcPXIizVNX0Bh9/myqEuGfY87lVvpBt/p8yW9eVhyRcNLrS0gGNmaKrSa0T2WYwcR5Y/gzA62lYUv2seiKj3qc75XlqXWSP/nxcNVXzLqLUSF8cOHL7nxbmmxtmFxXzd+nT5fVv8moN8bJeELLCCcR322y5E/lHa2e0lu+Vq5zI044UjP0ax8MXVJftefkY6XB+TEG9b3Xzwmhe5z7zqvka7UguXbS/L6Ruvzjbvl2NgluXQx60yrvV22v3e1rI+YahC+IJozCoQvhtGFHHFVV5aIiPjgOranTboODcqI96aerAwfUm8YShf6+LB0XkndKvvctxo5rSDctx09vEZ682+9uT4l2ZP90r17uBDUnFNBwjLpOOy+QccaZ2THalm53PquP6DIv+3o8Y1y8LS7PFcmZWzwoHQNhHhsyH3b0cpNB+1WKOr7MxfHZPBQl/R7Hc1WDisGN3fIPm89ZmXqdK89vUJnvVnp/UnKfnTHaZ2Tk7nciHTl3xZlD5uRyZPqFdLWehSFL07ntqnWfZK94kzfaSWjmaYaX7WoUcM7+r3x7TdJPd5ibZto4YsdoKlHySqGL75+b3YOy2R+vueGpX9HrwznX51N+AILhjkZfU21XNFZ8ojRD7dkdM8mOyRpX9chmf6s3P3ObRGzP+uOZPFDVvZb42zSvc0oz9wlOfbaFulY58yrY0uPHPnD3ZqDFwXhC6I5o0D4YhhdyBFXdWWJiIgPrjPDGWlb1WJ3sus8jrJYWtoy0j9e0kLj3pQc37za7gtFjdNxLP95TiYHrWksX+x+Py1LH2+TzLHJohYoUycz0vqIaulijfNwi7TtHJGZiYOysiigsFT9p+zpkNX5cdXy/LRD9p3OByBVbvBnRuxOg53ldOa15vl9hddFV/y+tR7H/OuRksXLrfUYLF6P3Ll93jjpR3rtZfcPU2+MWr25XyZn1Jt/Stbt8+PS9dRSu+VK6uEOOe6GGbpp2uN/NiyZZ9zx7e3SKyMzzluMooQvc6qPl6XOunnmt4UvkMlNDEqmrbBPpB9ZKW3bjnuvqCZ8AZg/CF8QzRkFwhfD6EKOuKorS0RERFzY5k53y0rVoujDQsseu5XOhwel4yeax6FiJuELJBXCF0RzRoHwxTC6kCOu6soSERERF7IzMvhMStYcntJ85rxuuvAq7nhK+AJJhfAF0ZxRIHwxjC7kiKu6skRERMSFrNsZsf1Gpvxbo+Ykd31Kxuz+fXyvm46phC+QVAhfEM0ZBcIXw+hCjriqK0tERERc4Jb1peP05aL6wxkp67slfhK+QFIhfEE0ZxRqDl+6h7Pyl5sPy188szsWqmVRy6Rb1koSvkRTV5aIiIiIJiV8gaRC+IJozijUFL6okOOvtr4pv796y/26edSyqGWqJYAhfImmriwRERERTUr4AkmF8AXRnFGoKXxRrUziFLzkUcuklk23zDoJX6KpK0tEREREkxK+QFIhfEE0ZxRqCl/UYz5xRS2bbpl1Er5EU1eWiIiIiCYlfIGkQviCaM4oEL4YRhdyxFVdWSIiIiKalPAFkgrhC6I5o0D4YhhdyBFXdWWJiIiIaFLCF0gqhC+I5owC4YthdCFHXNWVJSIiIqJJCV8gqRC+IJozCoQvhtGFHHFVV5aIiIiIJiV8gaRC+IJozigQvhhGF3LEVV1ZIiIiIppU3YAiJlVdnUDE5hsFwhfD6EKOuKorS0RERERERMQkGQXCF8PoQo64qitLRERERERExCQZBWPhy7V/++/l+r2v3P/qh/Cl+erKEhERERERETFJRsFI+PLPXz1iT0v50C+PukPrg/Cl+erKEhERERERETFJRmHew5eJGzn5T9t+LVO378lly3/07K/k05v/1v00OoQvzVdXloiIiIiIiIhJMgrzHr78Pxdn5J+8cND9T+S/3vAbGbp0zf0vOoQvzVdXloiIiIiIiIhJMgrzHr58+9338l+s2ydP/GZYHuv7f+W/6uiT//j9D+6n0SF8ab66skRERERERERMklEw0udL7qv/IH1jn8mhs1P2342A8KX56soSERERERERMUlGYV7Dlx/+4R/k7J9uy+8+v+F54cZd99P6IHxpvrqyREREREREREySUZjX8OWVU5/Y0yj1//vjrDtGdNR0dMusk/AlmrqyREREREREREySUZjX8OVf/vYj+T9/O+L+5/DPXnlLfn36U/e/6CzU8AUAAAAAAAAAHmzmNXz52Tun5b//v9+QK7l/5w4RSb3ytuz9/SX3v+gQvgAAAAAAAABAHJnX8OXav/338j9l3ipq/UL4AgAAAAAAAAAPMvMavih6RiYl/a/fcf9zwpc9pwlfAAAAAAAAAODBZN7Dl90ffyr/66tH3P9E/pdtR+RXo/T5AgAAAAAAAAAPJvMavnx1/zv5F3uG5Llj4+4Qkf/j4AfSsu+kfG19Vg+ELwAAAAAAAAAQR+YtfHlx6A/yn/xfv7JbuvzxTqHDXfX3f7vpdfuzl98/7w6tHcIXAAAAAAAAAIgj8xa+qNDlFxXCle9/+AfZePys/HPf40i1QvgCAAAAAAAAAHFk3sKXRd2DsuzXJ2TTiXNa1WcP/fKoO3btEL4AAAAAAAAAQByZt/Dl+Kd/0oYufocuXXPHrh3CFwAAAAAAAACII/Pa4W4zIXwBAAAAAAAAgDhC+AIAAAAAAAAA0EQIXwAAAAAAAAAAmgjhCwAAAAAAAABAEyF8AQAAAAAAAABoIoQvAAAAAAAAAABNhPAFAAAAAAAAAKCJEL4AAAAAAAAAADSRmsKXv9x8WH5/9Zb71figlkktm26ZdRK+AAAAAAAAAMB8UVP40j2clb/a+masAhi1LGqZ1LLpllkn4QsAAAAAAAAAzBc1hS9KFXKoVibqMZ84qJalluBFSfgCAAAAAAAAAPNFzeHLgyDhCwAAAAAAAADMF4QvAAAAAAAAAABNhPAFAAAAAAAAAKCJEL4AAAAAAAAAADQRwhcAAAAAAAAAgCZC+AIAAAAAAAAA0EQIXwAAAAAAAAAAmgjhCwAAAAAAAABAEyF8AQAAAAAAAABoIoQvAAAAAAAAAABNpObwpXs4K3+5+bD8xTO7Y6FaFrVMumWtJOELAAAAAAAAAMwXNYUvKuT4q61vyu+v3nK/bh61LGqZaglgCF8AAAAAAAAAYL6oKXxRrUziFLzkUcuklk23zDoJXwAAAAAAAABgvqgpfFGP+cQVtWy6ZdZJ+AIAAAAAAAAA8wXhCwAAAAAAAABAEyF8AQAAAAAAAABoIoQvAAAAAAAAAABNhPAFAAAAAAAAAKCJEL4AAAAAAAAAADQRwhcAAAAAAAAAgCYy7+HLf/z+B/nw8z/LL393QbLX7sg//IP7QZ0QvgAAAAAAAABAHJn38OVfvfmxPZ28B85MuZ/UB+ELAAAAAAAAAMSReQ9f/skLB4vCl/9t70n3k/ogfAEAAAAAAACAODLv4cvDrx0rCl/WDf7e/aQ+CF8AAAAAAAAAII7Me/jy/mfX5b/b9Lo9rf9529vy+b/50v2kPghf5pHv78v9792/AZKE2vfvu38vNKi3EHcWcv1qFNRTAACAB5Z5D18UqpPdqdv33P8aA+HLPHF7SJ59KCWph56VodvuMIAmMjc1JN3rVsmP1X6XsvzRClm1LiMfXHNHmC/uT8iux9QyrJBdFxbYHWKC6m3u3Wed/eSZo5Jzh0FM+KTb2TapZ+Vo6X5otH5NSLe9XCnp/sQdZIL5qKe3j8qzcVhXaDgc+2IOda/xfD8nl092y/onfixpt2yXPLZK1v/iA7nhjgIQN4yEL81goYYv3skylZHRatebcx9Ip3twSf1iVKpent44Kmvt8dONO9B7F8+cPKD53Lf2txX5fb7ITvlgzh1pvvBdOD377nxf2ubk6DOlZRDgjgn3ey4JqrfcgMSYoPDFaP2KSfgyH/V0Id0A+pZV60M/llVPrpXO7QMy9Cm1nWNfzFnI4cv3czI9flR2bVwrqx5b4quHS2TFk+sl89aQXL4x36H5fZnYscK3LD43fCDzfYkIEJZ5D1941XQJVwdklX2wSMuuC+6wCtw/nfEdXKqHNXPDne64DbxRvTcq3U+kJf3ELpn42h1WxGXpe9TExfNChLIK5L51Q2SVj9qHV7wyKrl8U/zv70vuRq56+Nhovp+WgVbrouNH62Vo3mQfCS4AAB+zSURBVH9SqTN8qVpvHxy4AYkxQeGL0foVk/BlPurpgxS+lJj+mz6ZSPAdF8e+mLNAw5fcuT5Z+6PiuqY3Lau2HJXpebrGUD/OPWrPd4VkRnx7/P2c3MjN+xUiQGjmPXxpO3Lank7ew3/4wv2kPhZs+OLegKsD16r+aXeYnokd6aKDXLWD99nt7rjzeSJ2wyQChRBQVsFc2OU2I7Vuxhr7lOICxBe+vDIqc/esY1mQD3jAEgQ3IDEmKHwxSkzCl/lggYYvZcv6/X37WHfj0yE5tGGV98hBkus9x76YswDDlxvWPuXVrYd+LM/uOCqjn97wXW/ckMsjR6X7Z4XHflKPdc/LjzwTu917op8P0coFFhTzHr78067fFoUv//uBU+4n9bFww5f7MvoL94D1s6HKJ8zv8yHNKln/81X2+OnSX7eLCB/qNJLpfmfZCBSqQ1kFkzvuXkg+OSDztwfHFV/4EljvgRuQGEP4Yp4HJXwp4cY7br1PPSp9U+7AhMGxL+YssPDF/9h3+mcDcrlKwjF3oU+edvvmS//sqNxoasfhORn6mTOv+bzHAWgE8x6+/I8vDxSFL6sPfeB+Uh8LN3zxPx4U8CjRVJ/TvO6hbpn4xG0R8GifXHY/LsPr72UeL0TmJqTvKedgSKBQBcqqKlxI+iF8CQv7TYwhfDHPAxq++PvES+o5lWNfzFlIdU/94Gt3gG5ZQ0sWf2DT3HpYuCbiGhoWGvMevrw2MukFL/+47dfy0ReNebh7IYcvhQNy5X5f8q0k7E6k7o9Kxh6/crASJtDJjQ9IpuQtMms3HpLRqwHxtres/ovnnIzuWCtL7OGVtA7e7thF2D2V75LO1hXe99N/vUrW7zgqEwEX5xM7nHG9E9j3OTl7oFOe/mu3GeJDT8vAVfczH5HWOQRzV0dl4BfrZVV+/u60V7V2yq53z8q099hMHWU1d1mGdnfKWq+zs7T8+In10v3uRKE/lDJqOEFpt62GSMuRv7nxrdvts3Jo49Petkg/NSDTXqduheFl+i4s8xeb3rrle773lm2JZE5rtq017+LttURWWNvq0Mi0zFVdhyoXThH36WDqDF+qbNuy+qQrnyerbOP8PPLbp0I5hK1vdp3abu1nvrcY2B1srsvIwHjlfbnsBkTtrzv866L217XSeWBUpgMWo6hMvr8vN8YPFa2LsyzdcvQT37JYx6GJd4vfvFDTto9Utxq0/RpBteX3+jjT7Ycm61fJvPPHkSejz6Nx59caUefCtzIlb//w7e/e9UNzyjnquVmLVx5VltWmsA0Dz3XzvF51X3PcnpCjRXXKmYZ9HDx5uag+N+bYV36u1q1D2bGvFC9orXA94yNftrpzW9k5XnuMqX48t7lX+t0Ao5xnG1X3GnUeqKPuFe4hrPuMT92BoVCt+d35qR+IS5c3X6fzLf2rlVkp96bl7LtW/f0b33VBidr6H7HeR7rGjLqflV5DWThv+yws85JfjJY/YlXX9Ww99bxwzK1mxWNyxO2y0Jn38EUxnZuTX5/+VO5+/a07pH4WdPhS9RGh0hvoOflgQ9D4vkeZdD1+f39Djv486KCwRNa/Na3v0FR7cTghh55cJass85VWVR71f8FD5SfgubOy64n8wULjQ6uk+7S+wnonmXPWPznrhJZP6D1LOhmuZ50DuS+X/+7piicBT++Z1GhlNXdul6zKHxA1pp/ollFtUTU2fIm+HIUD/VnrZJA7nSl/i5HaV70LtgA14cvad26IfD0tAz8r3Z/KA8ob7673DvI6l/x8oEKHcYUTTcULpzr26WDmJ3x59nhObhwPLp+KnYHm5/GQ+nwiuBxUfTteKXjPWce3oO86rrDKQVdf/Tcg058E769Bnbvmy2TtW2dlKPDYkZZVe61luTEk64M6JbS2/a5PKh9hotetBm2/Orn/aaHJuU57vn8M2g9N1q/8vNOy63S1fXeFdbEdMI+Gn19r4MYHsrnsXOjT3t/PNrWcaz43B+GVR8Cy5vG1fLHnrWNBXXPcl+m3gutyaevnxhz78nVBve78RvVj3279cbjR4UtazaeO43nRd9VNZf56y7thtVSBunXT2r17lxyq9TjSoLrXiPNA/XWvcI8R6bFv61zgdISr+YE4X6fVvqtdRp8PPSsDfyzeu7x9JcCya9066n2t15h17Wf5svnpUbmh6n+/r78d10f/rvh5h/qvZ+up54X7Ga2+QE17/9G083n8MRK+NIOFHb6oA4q7A/puLD3uWRf19s74tAxccwZ5qfRTA5p32RfCnPIdXj0n6c7roadl17hVxfPJ6P0bcnZ3PkhIWxeYmlNq4MVhDTf6960L3PxB97HNcvTTXGE57l2Woy/mXx+nT+rzB+Bn3xmVAfX4jlVJN1s3SdO3rW2sOgG7lvOFTnWucwBFva2fnJaiDta/djsD3LhWdp0rnW74srp/YZcXVKx48ah1wipMa+7To4UTvt1yxP3Ao3HhS33LUTjQHz09IE9bf6ef2CwD41aZuR233bC2nR//hWSlJffG2THq/tqyRNbuHZLL19z9wDqp+LeJ6kcmv62f3n1WbuRPSnbLhl2F55W1r3KvcnNY5z4dzPyEL+knVtnbeMWLAzJhlWGhnuTk8rubve2ffuVsefl487AuONQJVdW1EWv7+k78969ZJ9u/ceui73hWytxJ64LiKeeXG//3VX0dfSVfjvpf5Lx94tEVssLankta+2T0qm9blGzrSvtX8UWe2l9GZdq/z18d8l04LpEldvBi3VAdmCjar3IldUN3b1Bf3WrQ9quH20PybL7uWPX66Ke+umzNe3rEKe/0j5a49U+3H5qsX/l5PyorHvPtu75Cun/NutD0LlBXVGh12szzaxX85fOjtdLnn7fa5z8ZcPYjaxvkL9abUc61nZur4JVH5ZvVPF6fL49aN/u6nXuBXXP4OzpdsU61lLGmr0a1tuXc7WmZOHlIuk8WH00ac+zL1wXrhusJVSYrrPW0jmn2zB3u5/zlZa3DuGYdGhy+pB6zbubUMeRvdgWvk+4Ye+8D6bQ/T8uz/ZfLWgPcON7pXsdFOXZYNKjuNeo8UH/ds9bHLc/Sm/1QfF8ImezQwo/vOmGFXSZOeXm7l709fW9XeqhTPtC+cCHktW2d9b6ma8x69zOvbLpl9HTGrv+qDg95HRwXv8WpMdezddbzALxj2EMq4HEH5qlzuyx0jIQv/+E/fi/nr9+RHxr1nmmLhR6+FF4jXf6YkBe0+BPooIs0r2n3qrKdVs3HqawrrIO/viJd/jt3pw9qMqi9OAx/oz/d/7QzD6tSHtXdjdjJu3vxounJ3LvZeEhdKFvTqHATp6h7nQPI97b+6N5aT1Ahy0q9ftXtG6ZiB2beAT8l60+WllSDwpe6l6NwoE9b44TpjM076YUJX6z9IK2277mAS4uvRyXjLl+lVhOqbyXn4kd3Yx98c1jvPh3M/IQvyke3V74x99ZR9zijNw93PtoysPBth0gd5Xmdj+svDL19wjJoPyscF8qPkwp/mayodAFqHWtVkOiMZ11wvVthpb1fAjXzqrtuNWj7Rea+nH3F3a+tG9+z/rDMj1UG+RsL/X5osn4V5h10nrBbM+RvqjXzaO75NZgbb+W3bUDdyw15+5GyGeVcy7m5Kr5jijZ8sW4yVBAxutd9lPehp63jtr7c53O96t4PfPW94rlKQ2OOff668Kh1Tq1UFwrHrZTu5q7R4YvSuhaIsk7eNCqE32rbD/3cmUeUsKEhda+B54G66561rPl61zlc25HUwTpO/tT5ftk29V8nVKyLFjes8dx11V9fh7u2rbfe13KNWfd+5pWNc528YsfZyo8NNfB6tq56Xglv+6W1+1Bzz+fxZ97Dl90ff2r39aKm9V+u75OPr9x0P6mPhR6+FJrMlr5CuvAIUXFlveFViNKDsBfWqOb/7jCHwsEq8JdPr6WN5nXWgReHYQMFq9K7B42n36p05LXwbljK51W42dBX7AINWOcAvJNdzTfEIcvKuoBxLiierthKQHF576P2tMqDipDzUQRt27qXw3egr/hLRjHeiSxM+GJZ8QbZpXASzcjZijtC4eRYvk0L61B+4VT/Ph1MYTtWVzPtwHrrr0/rJfC13l5H3pqLdt9FVbUw0nsNfi0ncx/eKyY1j1UW9gl9yxgP369zul+fw5WJdWHypDteYHBb2HfK5lV33WrQ9ouKrx8D3Q1BAXUxlV9O3X5osn4V5l31Qq/iPBpwrqlSTytT2A+r1b3Lf+fuR5bNKOfw5+YQ+I4pQab/+ungPj8W2DWHdzMfeK4qpzHHvvB14cY7a53xdI+mNDx8ib5OQdPP461LwPWGngbVvYaeB+qse756V7acofBdr5S+xbWG64RCPbD2obJza4hr2wbU+1quMevez/zHu8eCfwhu5PVsXfVch+9HirS264v6t8tCZ97Dl3/+6hF7Onmfeetj95P6WPDhi+8AXvRrsLeTlp+gizrhdYf5w5qyGxvfM9GVmro6+E4mpQebwIvDEAdDRf7NTdVuAHwX9aUnEu8gpz0o+2jEOgdwf7zwC9fmk9OFZnNVCVdW3sm6ykFP/epjj1f2TG/IbaII2Lb1L0fhQB82qPJOLqHCl2oHZ9+NX5Ubfq9eqZtpd5hDYR3KLkgasE8H47uYqaqmLALrra8+2c8aB+C7wC0rA9+FQ8U+F1yiX+g6BO0bhX3C6V+oMoVf53R1I1yZ+LZL4H5VuR7WX7catP2icsF9+17VOmiVQv718dpxTdavwrzLmsmX4ivDonk0/fwagPdLdYgfD7zt1ZxyDn1uDoPvmBKs28Gk/3EPPwvqmsN3rtp+1h0WjsYc+2qoC+cCApaGhy/R1ylo+nmCzimBNKjuNfQ8UG/d85/Lq62TFt95sbQ8a7hOKLTif1TzmGeIa9sG1PvC/lf9mFz3fuYrm4rrZNPY69m66rkG7xHQSj+0Nv18Hn/mPXz5bzYeLApf/sWeIfeT+lj44Yvv4OuvlF7yp2km7u3A/s8KTfLLdtbQF8m+A2fpQSTw4jDEwdCicAFerSIXDg4VT6a6VNVPI9Y5kJx84D2bqH6Be9bukf5G0NHQJkxZqefGQy6Td6FTup7htolNxW3biOUobMuwB9EwF0PeOGUnllIKzzBXK4fCybZ0/yysQ+kFSSP26WB8++cro+7zv5UtuwEJrLe++lS1JUrlMijMo8oJ1SLMtg0i6PveZ9WCCF+Z6raFVyaBN0BhjxuV5tWIutWg7ReRyvVFQ8A6BC1b8+uXb97Vbgh827Loh5Kmn18DCCzXErx5NKecQ5+bwxCwrDbuY0dn39rsdXK55OdDZY9sLKxrjvDnqlIac+wrlEFweGTh7Xeacg36rASvbDXHQG+dqv7qXnmdvBvQir/wV2phHoKG1L0GnwfqrXvV6l1VfPt2xZYvIcorsIVW0D7s0Ih67+1/Va8xG7CfeWWjC5v8NPZ6tq56Xop63Mget3J/Vs0/n8efeQ9fVEsXf/hy4EzgHhaaByF8UTu4c9IuJNpeIKO7qPb1feDt5EGv8vQqUA3WdHFY/WCoKBwMwls6vaCTdRGNWOeq3Jfpk92FDsJsl8jTga+TDFNWvhNYaEu3S7htYlNx2zZiOQoH0bAnc28/CRO+VL2JL8w/vJVPVmU3LQ3Yp4PxbYOa90+LKhc8oetT0Has4aIqzHa7f+2yDL21y371oeo533v9od+g8KXqPhFcN8KVSdjtUmlejahbDdp+EfHKu+oNn0XAjUPQsjW/ftVSLhW2edPPrwF4867WOsDCm0dzyjn8vhiCgGUtw9dHROnjAfO6XnXvB4V9sepNUQmNOfbVUBd8+11ZqQR9VkJQ2TZknbz9KC3Pan7lnzvX7faNUWO9UzSk7s33eaAK89LnS5iyLuyL5ftp0D7s0Ih6H37/s6h3PwtdNoVyCW/469kywtZl9biRu030nfw6NGK7LHSMdLjbDB6I8MVrYpVvvlhollrpAJh/S1L+UQ4vUdSltHVfFFgEHhyqHwwVjah483chVAN2r/ZHpftnhderqW25akv5L3HhyqoRJ+Rw28Sm4rZtxHLUcKB3CXPSC39ibO7JqvknE982iLJ/Vjmph79oC9iOoS8cqmy33Fnpay1+7eES9aaL/OsL12Uk8zNNK0GX8PtEcN0IVyZht0uleTWibjVo+0XEK2/Cl6L5h7J0e9VQh4rwXRwnNnyx8H55LnnsYl7Xq+79wLcvVm2FVUxjjn011AXffldWKkGflRBUto1ZJyl6BX/6r1fJ+l/skl3bO2XtY4U3mAW+Qr4SDal7830eqEahZUXNLYEUvhYrld92FOYYV9gXy7dp8PZWNKLeh9//HOraz0KXTaFcwhv+eraMkHXZ60Q3qON9i0Zsl4UO4UusKBxM7ObMXvpcuSJ6z3/aYUuhSZu2Xw2vOWz5s6KhCTw4VD8YKgIDopCEPsk0Yp2joF6VtmWVF8KUdzoVpqwKTVEjnQBtwm0TG+8xttJt24jlqOFA7xLmpBf+xFi4mIj+7GjldWjEPh1MYTtGurCqclIPf9EWsB1ruKiquN2+tqbvvn7QeWWx7/WDPoK2e/h9IrhuhCuTsNul0rwaUbcatP0i4pV3iJuswkWcbh8xWb8K867e2qDwq67+saNmnV8DCCzXErx5NKecG3cDaBGwrFq8vgmKy2FhXXMU9sWq5+wSGnPsq+EYEXRTFvKGraj/Ck3ZNup4rsiNdzstw+031zjjqmB//Y6jMlFLffPTkLo33+eBavj6jqz6uJcGr7sEzeMzXhlUfzzZ3+dH+XE5xPZuQL0Pv/8ViLyfhT7+N/d6towwddl782PAm5Ncmn8+jz+ELzHD++VG3aznLySCDn7ewWmtHL2heQzJjxfmVHueMIDAg0P1g6FNAy5SQ59kGrHOdTBnHYQrBRphyirorS7hCLlNLAoduZVv2/qXo4YDvUuYk14tF2ZNDZCaHvIVtmOkC6sqJ/WG3LyHvnCovN284Q9lZDTglxNvf9Rs91r2iaC6Ea5Mwm6XyvOqv241aPtFxXfzMRRc4IHHmMBla3r9Ksy76uvPK3UC2PTzawDe99Ky64I7rBLeo8nNKefG3QBaeOsVbn+tuH8tqGuOwrkqbOf0eRpz7KvhGNGQ8KXQwltXto06nt+/0Gf3CxT0Cu5INKjuze95oDqFl0lY+3HQW6bKuC9nX3HXRd1cl5a1r05XDbq9HwR1dSl4e9s0oN6H3/8c6trPQh//5/kH0Wp12fc66lCvxm/6+Tz+EL7EjfzB5qFdMuAGMcGVq/CrQeatAbfiVtqhC6+nrvaKt4oEHhwKB8PA3rPvn/XeTx/8atLKhD/JNGCd66LSAS5cWRVOgFVeIVuRsG9O8J0wNdu2/uWo4UDvEuakV8uJ0Xttoe6CIBQB69CAfTqYwv4S6cKqykm9ITfvoS8cKm83bzkCt6evLDTjNepiPVyZhN0uledVf91q0PaLiu/tLtX2/fxjsvp9xGT9Ksy72ms3C9urdB2afX4NovDDS7V5e/XDshnlHH5fDIFXHuH2V+81vKUvKFhg1xyFx6civmq6rmNfDceIoJsy78ZZ/TDoDtNxLf+LuaWmbBuzTvmb1RCtLWqmMXVvfs8DIVB9SrqtUFNPDch0yGum+9Y+4fRrUiEU8dXpauXl1Wft25uCz982Daj34fc/RZ37WQ3H/6Zez5ZSJXy5/HfuS0cesz4P+NHMo+nn8/hD+BI3vGcln5an7RN49V9P8geHRx9b4Ry8A569V78MOQf4FVaFq+Gsnifw4OBrqvhitdef5d/fb00n6MRcgVpOMnWvcz3cG5L19rxLD8Yhy8qXKEf9xcbrtPlR68BYaUZeD+VKzbatezlqv+kLc9Kr6cT49ah3wA+VzpcRvA717tPBhL3Jr0CVk3pDbt5ruHCotN28X/8CWvvdP5dvTVb+fUX4fSL44i1cmYTdLgHzakAdb8j2i4wvuA26+Kp2jDFavwrzDjxP+LaVLqRp7vk1GO9iPKh8vrauL9wbRWUzyrmhN4BeeYTYX30d7qZfOVt2fF9Q1xy+9a7lXNWYY18Nx4igmzJfKFvx5lgdO7bnAzNLTdk2Zp3yn6mOUKf1ryOvg4bUvXk9D4TDH6Qs+bl1Tq5yYz03NVCog5XWwbdvB5aXrz7rQ5qg7V2g3npf0zVmvftZLcf/Jl/PFlElZHX2kdqOdc09n8cfwpfY4WupYO+Y1s5erQL7D2aWVVvKvJjv+GmJrN07KtO3fa+m/doqI/stIxlZ/1hfeUWrcnCYO7nenfYKyYz4DlXf3y8+EH1/WQ494V6wP7RKNr81ITfuFSrufWs75a6elaO7O+XpDSWvqrOo7SRT5zoHMLH3aek8MCQTV8v7prh/7azs+ht3HZ8aKAvEQpfV1CHvNZqqH4yBT27IXP4kqF61eS8n0+NHZddGa1mOa04Pvl+Wlvz8kEz434N93/ruyC552pp++rEVFR6RcqlrOWq/6Qtz0qvtxGiV+Yebvc7QlrT2yai13ebyxWGvww25fHJAMutWSF/ZclZZhzr36WAKFxphXjXtbZc8VeptQ27ea7hwqLTdCr/+peXp3WeLX9n+9Q05u3etvf2W/Mitz5rt3piL9bBl4tsuIcfTXijWWccbsv28/jLUr1HBJVeG/8b3b3YVv+Xt/pzcGO+z3wYXfIwxWb/y805b+5Y1DzX9dy9Lzn+otI7nhY6gn67wy2Zzz6+B+PpLSj3m7EPefK19KPfpUdmsys/aBvkbqmaUc0NvAH3XNvpldV41PXqg06s/FS/mF9g1xw3rOJY/Fq7aMiAT1wrfv+8dD6zhziCbxhz7qtRDP4G/iPtCWau8u09Oy5zvuub+tQkZeFH9Ym7tj/n9VlO2jTqe56zrrfy5X+uPVsjajbtkaCrCL/GNqnvzdh4Ij78D2dSPnOvdy9a+WLjesJbpkyE5tMHXx+ETuyqH8F6dXmIda9U010rfeHF53fjkkKzPvz20YuetVc6peeqs97VeY9a1n9V4/G/q9ayfSvXcKtt866iaA6Cmns/jD+FLDPEquzLgdV0FpgvPzFon6qoV6fucjG4vHCgrqzmhVjs4+CpjsZrxv7aW++f5C5QANQe9mk8y9axzAN5yBGmdjD+ocDEYtqzu/3GgcDIKsNJJqHAhp9c5WeYPxpUP/NGXo4YDvUuYk16tJ0ZF7nR34UI9wPLlDLEOdezTwfhu8sNYWi+q1Nvw9SmgDGq4cKi83e5by+I2Ya3gihc/kBv5Dv005Rh+nwi+eAtXJr7tEnK8SnW0njreiO1345217jyqbz8d9z/ZFVivqh9jTNYvd94POcu4K39RqNO6UNx1LuAGrZnn12rcGAreh360XoZuFF4H2oxyrvncHIRXHiG11m/gjwFXTAvqmuO+XD7ghM367ymLv9uYY1+IepgnMHyx8IcSWpfI+uM37OsT+39N2TZkndQN/fgh6XwiP98g09b3I/wU36C6Nz/ngdqYu3DIDs9Ll6HcSm/39OHV6YyM/rF6mR295n6vjOrnVI866n1N15j17mcRjv9NvZ7NU6Geex3nWuvy4yd8b6TUueWD8vJr2vk8/hC+xBFfp1xhe7L2Hi0pfdY5gLmrozLwi/WyynsFmuVDP7YqynrJvDUkl4t+dnYJc3CwKtTQDmu6f51PNa1ptu6SsxVWJfeJSvLXFsZX/miF9Z1O2fXuWZnWPP8a9SQTaZ2DmJuW0be6pbN1lazwn0TsdbaW/+Tlol97yqilrKyLuYl3d9nz+rHvYKt6UVdJ+tHx4l+WSpmbGrLLubCcS2SFtd7d3jLm3+JR5cAfaTlqONC7hDnp1XRi9GNvt4ysf3KF7+LWOYGs/8WADH3q+yXGI/w6RNmng/Hd5IextF5UqbeNuHmv5cIheLtZFzAj1gVMq2/bqHqxLiMD4+7Y+U5PNd9vyMW6Rbgy8W2XkOMFXihGrOP1bz/fY5C11iU/c5dlaLf/tZqqTlnHmHcnJFf1GGOyfrnzznd2+f2cXD6ptkNhH7RfG1rDW1Gadn6thrUPnVXHtid+7N34L3lsrXQeGJVp97xydrszvBnl3NAbQK88AlTLo44NI8HnPz/zuV71XnPcv3G2/PveOlvnKXc8RWOOfeHrYdXwRaHZH1VdWrvxkJzNr3u+1Z2mbOtep+9vyJB7g7fiRacFUVErUVf1K7vTEkdNI2K/K42qe00/D0TAOiY6rW6seuPfF93rSHtfDnPMKj3GhSgzPSHPqT6i1PvQ+18j9rOox/8mX89WDF/yZRPGgPKLsl0WOjWFL3+5+bD8/uot96vxQS2TWjbdMuuMffgCAAAwbxQ6jUxqB3gA8OCR748lHeYtQqo1snscjP4KXwikEQFzDGE/g1qoKXzpHs7KX219M1YBjFoWtUxq2XTLrJPwBQAAwMW7IE7uqx8B4EEj39IuxGuNbWpvTQE18kCGL+xnUBs1hS9KFXKoVibqMZ84qJalluBFSfgCAADgoN7Ooi4EdW+JAQBYmNTwaIXNtNd/YribaKiZBzJ8YT+D2qg5fHkQJHwBAABwcF7x/bQMVOzcEABgoZGToZ85N7lP90+7wyqTO9np9jtCC8Cm8UCGL+xnUBuELwAAAAAA8EAxN5y/0V0hmZLXXee5n5uW0b35N0tFfNsRhOMB7fOF/QxqgfAFAAAAAAAeMO7LxG7/K7/V23kKr8D1v01IvUZ+87vTPHrZTB7Q8IX9DGqB8AUAAAAAAB5IvFd++15prFSvb16lXtt98rJUees3NIIHNnxxYD+DMBC+AAAAAAAAAAA0EcIXAAAAAAAAAIAmQvgCAAAAAAAAANA0RP5/zGZrjdlVn2sAAAAASUVORK5CYII=;" parent="1" vertex="1">
                    <mxGeometry y="50" width="380.62" height="300" as="geometry"/>
                </mxCell>
            </root>
        </mxGraphModel>
    </diagram>
</mxfile>